<?xml version="1.0" encoding="utf-8"?>
<svg xmlns="http://www.w3.org/2000/svg" version="1.1" viewBox="0 0 1400 950">
	<title>The titlepage for the Standard Ebooks edition of Metamorphoses, by Ovid. Translated by John Dryden, Joseph Addison, Laurence Eusden, Arthur Maynwaring, Samuel Croxall, Nahum Tate, William Stonestreet, Thomas Vernon, John Gay, Alexander Pope, Stephen Harvey, William Congreve, John Ozell, Temple Stanyan, Alexander Stopford Catcott, Nicholas Rowe, Samuel Garth, and Leonard Welsted.</title>
	<g aria-label="METAMORPHOSES">
		<path d="M289.09,130.00l-3.65-45.75l-0.47,0.00l-15.81,45.29l-10.48,0.00l-15.81-45.29l-0.47,0.00l-3.65,45.75l-17.59,0.00l6.92-77.19l18.71,0.00l17.12,44.54l17.12-44.54l18.71,0.00l6.92,77.19l-17.59,0.00z"/>
		<path d="M362.95,52.81l0.00,15.44l-26.57,0.00l0.00,15.35l25.45,0.00l0.00,15.44l-25.45,0.00l0.00,15.53l26.57,0.00l0.00,15.44l-44.16,0.00l0.00-77.19l44.16,0.00z"/>
		<path d="M373.19,68.25l0.00-15.44l54.27,0.00l0.00,15.44l-18.34,0.00l0.00,61.75l-17.59,0.00l0.00-61.75l-18.34,0.00z"/>
		<path d="M473.54,52.81l31.16,77.19l-18.90,0.00l-5.71-15.44l-29.38,0.00l-5.71,15.44l-18.90,0.00l31.16-77.19l16.28,0.00z  M474.10,99.12l-8.61-22.46l-0.19,0.00l-8.61,22.46l17.40,0.00z"/>
		<path d="M576.50,130.00l-3.65-45.75l-0.47,0.00l-15.81,45.29l-10.48,0.00l-15.81-45.29l-0.47,0.00l-3.65,45.75l-17.59,0.00l6.92-77.19l18.71,0.00l17.12,44.54l17.12-44.54l18.71,0.00l6.92,77.19l-17.59,0.00z"/>
		<path d="M602.74,91.36c0.00-22.55,17.68-39.95,38.92-39.95c21.43,0.00,38.83,17.40,38.83,39.95s-16.65,40.05-38.83,40.05c-22.83,0.00-38.92-17.50-38.92-40.05z  M621.74,91.36c0.00,11.51,5.52,23.02,19.93,23.02c14.04,0.00,19.84-11.51,19.84-23.02s-6.18-23.02-19.84-23.02c-13.57,0.00-19.93,11.51-19.93,23.02z"/>
		<path d="M693.26,52.81l27.60,0.00c14.32,0.00,25.17,7.77,25.17,22.92c0.00,11.60-6.36,19.37-15.81,22.36l26.57,31.91l-22.36,0.00l-23.58-30.50l0.00,30.50l-17.59,0.00l0.00-77.19z  M710.85,87.05l2.06,0.00c6.64,0.00,14.60-0.47,14.60-10.11s-7.95-10.11-14.60-10.11l-2.06,0.00l0.00,20.21z"/>
		<path d="M765.26,52.81l28.16,0.00c15.06,0.00,26.39,7.77,26.39,23.77c0.00,15.91-11.32,24.80-26.39,24.80l-10.57,0.00l0.00,28.63l-17.59,0.00l0.00-77.19z  M782.85,87.33l4.96,0.00c6.92,0.00,13.47-2.34,13.47-10.20c0.00-7.95-6.55-10.29-13.47-10.29l-4.96,0.00l0.00,20.49z"/>
		<path d="M850.16,99.03l0.00,30.97l-17.59,0.00l0.00-77.19l17.59,0.00l0.00,30.78l24.89,0.00l0.00-30.78l17.59,0.00l0.00,77.19l-17.59,0.00l0.00-30.97l-24.89,0.00z"/>
		<path d="M905.41,91.36c0.00-22.55,17.68-39.95,38.92-39.95c21.43,0.00,38.83,17.40,38.83,39.95s-16.65,40.05-38.83,40.05c-22.83,0.00-38.92-17.50-38.92-40.05z  M924.40,91.36c0.00,11.51,5.52,23.02,19.93,23.02c14.04,0.00,19.84-11.51,19.84-23.02s-6.18-23.02-19.84-23.02c-13.57,0.00-19.93,11.51-19.93,23.02z"/>
		<path d="M1024.37,51.40c14.04,0.00,23.95,7.30,23.95,7.30l-7.11,14.04s-7.67-5.33-15.63-5.33c-5.99,0.00-9.17,2.71-9.17,6.92c0.00,4.30,7.30,7.39,16.09,11.13c8.61,3.65,18.06,10.95,18.06,21.05c0.00,18.43-14.04,24.89-29.10,24.89c-18.06,0.00-29.01-10.20-29.01-10.20l8.80-14.78s10.29,8.70,18.90,8.70c3.84,0.00,11.13-0.37,11.13-7.58c0.00-5.61-8.23-8.14-17.40-12.73c-9.26-4.58-14.69-11.79-14.69-19.84c0.00-14.41,12.73-23.58,25.17-23.58z"/>
		<path d="M1107.97,52.81l0.00,15.44l-26.57,0.00l0.00,15.35l25.45,0.00l0.00,15.44l-25.45,0.00l0.00,15.53l26.57,0.00l0.00,15.44l-44.16,0.00l0.00-77.19l44.16,0.00z"/>
		<path d="M1151.52,51.40c14.04,0.00,23.95,7.30,23.95,7.30l-7.11,14.04s-7.67-5.33-15.63-5.33c-5.99,0.00-9.17,2.71-9.17,6.92c0.00,4.30,7.30,7.39,16.09,11.13c8.61,3.65,18.06,10.95,18.06,21.05c0.00,18.43-14.04,24.89-29.10,24.89c-18.06,0.00-29.01-10.20-29.01-10.20l8.80-14.78s10.29,8.70,18.90,8.70c3.84,0.00,11.13-0.37,11.13-7.58c0.00-5.61-8.23-8.14-17.40-12.73c-9.26-4.58-14.69-11.79-14.69-19.84c0.00-14.41,12.73-23.58,25.17-23.58z"/>
	</g>
	<g aria-label="OVID">
		<path d="M600.25,261.02c0.00-16.91,13.26-29.96,29.19-29.96c16.07,0.00,29.12,13.05,29.12,29.96s-12.49,30.04-29.12,30.04c-17.12,0.00-29.19-13.12-29.19-30.04z  M614.50,261.02c0.00,8.63,4.14,17.26,14.95,17.26c10.53,0.00,14.88-8.63,14.88-17.26s-4.63-17.26-14.88-17.26c-10.18,0.00-14.95,8.63-14.95,17.26z"/>
		<path d="M685.25,290.00l-24.28-57.89l14.88,0.00l14.60,38.04l14.60-38.04l14.88,0.00l-24.28,57.89l-10.39,0.00z"/>
		<path d="M740.36,232.11l0.00,57.89l-13.19,0.00l0.00-57.89l13.19,0.00z"/>
		<path d="M753.78,232.11l16.77,0.00c15.86,0.00,29.19,12.07,29.19,28.91c0.00,16.91-13.26,28.98-29.19,28.98l-16.77,0.00l0.00-57.89z  M766.97,278.21l2.04,0.00c9.75,0.00,16.42-7.44,16.49-17.12c0.00-9.68-6.67-17.19-16.49-17.19l-2.04,0.00l0.00,34.32z"/>
	</g>
	<g aria-label="translated by">
		<path d="M594.73,463.42c0.00-0.85,1.62-0.81,3.49-2.76c1.70-1.79,1.79-2.34,2.47-2.34c0.21,0.00,0.43,0.13,0.43,0.51c0.00,0.55-0.77,2.55-0.77,3.19c0.00,0.26,0.09,0.30,1.49,0.30c1.66,0.00,2.00-0.04,2.47-0.04c0.89,0.00,1.11,0.30,1.11,0.81c0.00,0.98-0.26,1.23-1.02,1.23c-0.68,0.00-2.51-0.21-3.44-0.21c-1.23,0.00-1.11,0.77-1.36,2.51c-0.38,2.64-1.36,8.16-1.36,8.84c0.00,2.25,1.57,2.34,1.74,2.34c2.34,0.00,3.32-1.87,4.00-1.87c0.13,0.00,0.47,0.00,0.47,0.60c0.00,1.11-3.61,4.00-6.25,4.00c-1.15,0.00-2.72-0.68-2.72-4.00c0.00-3.91,1.79-10.80,1.79-11.94c0.00-0.89-2.51,0.04-2.51-1.15z"/>
		<path d="M606.84,467.42c0.00-4.85,3.61-5.87,4.00-5.87c0.89,0.00,1.32,0.81,1.57,1.49c1.06,2.76,1.11,2.81,1.19,2.81c0.30,0.00,2.42-4.38,5.57-4.38c1.11,0.00,1.57,0.72,1.57,1.32c0.00,0.55-0.34,1.11-0.47,1.57c-0.09,0.30-0.17,1.62-0.94,1.62c-0.94,0.00-0.77-1.79-2.30-1.79c-1.91,0.00-2.98,5.57-3.19,7.35l-0.21,1.40c-0.94,7.23-0.85,7.23-2.38,7.23l-0.21,0.00c-0.43,0.00-1.28-0.09-1.28-1.11c0.00-1.70,1.83-7.95,1.83-11.14c0.00-2.13-0.68-2.89-1.45-2.89c-1.74,0.00-2.08,2.55-2.34,2.85c-0.13,0.13-0.26,0.26-0.47,0.26c-0.17,0.00-0.51-0.13-0.51-0.72z"/>
		<path d="M620.45,475.15c0.00-2.38,1.06-4.80,2.38-6.93c1.53-2.42,3.49-4.46,5.74-5.53c1.15-0.55,2.00-0.77,3.10-0.77c1.32,0.00,2.21,0.47,3.61,0.47c0.85,0.00,1.36-2.08,2.21-2.08c0.26,0.00,0.47,0.17,0.47,0.64c0.00,0.68-0.55,1.70-0.85,2.93c-0.38,1.57-0.64,3.53-0.98,5.44c-0.34,1.87-0.77,3.83-0.77,5.44c0.00,1.11,0.64,2.51,1.45,2.51c1.40,0.00,2.30-2.76,3.10-2.76c0.34,0.00,0.38,0.30,0.38,0.47c0.00,0.43-0.21,1.06-0.77,1.83c-1.06,1.53-2.98,3.49-4.12,3.49c-2.72,0.00-2.34-4.76-2.64-4.76c-0.21,0.00-3.74,5.10-7.78,5.10s-4.55-2.72-4.55-5.48z  M623.42,474.90c0.00,2.13,1.53,3.40,3.32,3.40c3.06,0.00,5.06-3.06,5.44-3.83c1.02-2.04,2.17-9.86,2.17-9.99c0.00-1.19-1.91-1.49-2.81-1.49c-1.74,0.00-4.00,1.28-5.27,3.44c-1.23,2.04-2.25,3.95-2.64,6.16c-0.13,0.77-0.21,1.53-0.21,2.30z"/>
		<path d="M641.70,466.35c0.00-1.66,2.55-4.85,4.17-4.85c2.47,0.00,1.57,4.46,1.96,4.46c0.26,0.00,0.55-0.94,2.13-2.13c1.15-0.89,3.40-2.42,5.19-2.42c2.98,0.00,3.57,2.64,3.57,5.31c0.00,2.98-0.72,7.48-0.72,8.93c0.00,1.19,0.34,1.53,0.81,1.53c0.72,0.00,1.70-0.94,1.70-0.94c0.51-0.64,0.68-1.15,1.32-1.15c0.30,0.00,0.38,0.26,0.38,0.51c0.00,1.66-3.74,4.63-5.61,4.63c-0.85,0.00-1.57-1.19-1.57-2.68c0.00-3.23,0.89-8.93,0.89-10.50c0.00-0.68-0.21-3.49-2.98-3.49c-0.98,0.00-1.79,0.47-2.76,1.87c-1.83,2.59-1.32,2.21-2.34,7.69c-1.06,5.74-0.77,5.23-0.85,5.82c-0.13,0.94-0.47,1.11-1.57,1.11c-1.15,0.00-1.49-0.09-1.49-1.32c0.00-1.79,1.87-8.37,1.87-11.65c0.00-1.49-0.55-2.34-0.98-2.34c-1.32,0.00-1.79,2.38-2.72,2.38c-0.30,0.00-0.38-0.34-0.38-0.81z"/>
		<path d="M663.68,477.70c0.00-1.32,0.85-1.53,1.36-1.53c2.17,0.00,1.45,2.93,4.04,2.93c3.10,0.00,3.40-2.21,3.40-2.72c0.00-2.00-1.40-3.23-2.93-4.76c-1.70-1.74-3.32-2.85-3.32-5.40c0.00-2.85,2.47-4.80,5.78-4.80c2.30,0.00,3.95,0.55,3.95,2.21c0.00,1.32-1.40,1.45-1.62,1.45c-1.53,0.00-1.70-2.38-3.36-2.38c-1.62,0.00-2.25,0.98-2.25,2.25c0.00,1.62,2.34,3.36,3.36,4.46c1.32,1.49,2.93,2.68,2.93,5.53c0.00,1.53-1.19,5.57-6.63,5.57c-1.66,0.00-4.72-0.55-4.72-2.81z"/>
		<path d="M678.72,476.34c0.00-2.42,1.11-7.44,1.19-8.12c0.38-2.68,0.60-5.70,1.02-8.42c0.72-4.59,1.36-8.42,1.36-8.93s-0.43-0.85-1.06-0.85s-0.72,0.04-1.23,0.04c-0.85,0.00-1.23-0.13-1.23-0.60c0.00-0.21,0.09-0.55,0.64-0.60c3.10-0.21,4.04-0.64,5.14-0.64c0.68,0.00,0.89,0.26,0.89,0.68c0.00,0.60-0.30,1.15-0.43,1.96c-1.57,8.25-0.85,6.67-2.21,15.81c-0.72,5.02-1.23,7.69-1.23,9.14s0.13,1.66,0.68,1.66c2.34,0.00,2.76-3.02,3.87-3.02c0.30,0.00,0.51,0.26,0.51,0.68s-1.11,1.87-2.13,3.06c-1.11,1.28-2.89,2.13-3.70,2.13c-0.85,0.00-2.08,0.00-2.08-4.00z"/>
		<path d="M689.22,475.15c0.00-2.38,1.06-4.80,2.38-6.93c1.53-2.42,3.49-4.46,5.74-5.53c1.15-0.55,2.00-0.77,3.10-0.77c1.32,0.00,2.21,0.47,3.61,0.47c0.85,0.00,1.36-2.08,2.21-2.08c0.26,0.00,0.47,0.17,0.47,0.64c0.00,0.68-0.55,1.70-0.85,2.93c-0.38,1.57-0.64,3.53-0.98,5.44c-0.34,1.87-0.77,3.83-0.77,5.44c0.00,1.11,0.64,2.51,1.45,2.51c1.40,0.00,2.30-2.76,3.10-2.76c0.34,0.00,0.38,0.30,0.38,0.47c0.00,0.43-0.21,1.06-0.77,1.83c-1.06,1.53-2.98,3.49-4.12,3.49c-2.72,0.00-2.34-4.76-2.64-4.76c-0.21,0.00-3.74,5.10-7.78,5.10s-4.55-2.72-4.55-5.48z  M692.20,474.90c0.00,2.13,1.53,3.40,3.32,3.40c3.06,0.00,5.06-3.06,5.44-3.83c1.02-2.04,2.17-9.86,2.17-9.99c0.00-1.19-1.91-1.49-2.81-1.49c-1.74,0.00-4.00,1.28-5.27,3.44c-1.23,2.04-2.25,3.95-2.64,6.16c-0.13,0.77-0.21,1.53-0.21,2.30z"/>
		<path d="M711.12,463.42c0.00-0.85,1.62-0.81,3.49-2.76c1.70-1.79,1.79-2.34,2.47-2.34c0.21,0.00,0.43,0.13,0.43,0.51c0.00,0.55-0.77,2.55-0.77,3.19c0.00,0.26,0.09,0.30,1.49,0.30c1.66,0.00,2.00-0.04,2.47-0.04c0.89,0.00,1.11,0.30,1.11,0.81c0.00,0.98-0.26,1.23-1.02,1.23c-0.68,0.00-2.51-0.21-3.44-0.21c-1.23,0.00-1.11,0.77-1.36,2.51c-0.38,2.64-1.36,8.16-1.36,8.84c0.00,2.25,1.57,2.34,1.74,2.34c2.34,0.00,3.32-1.87,4.00-1.87c0.13,0.00,0.47,0.00,0.47,0.60c0.00,1.11-3.61,4.00-6.25,4.00c-1.15,0.00-2.72-0.68-2.72-4.00c0.00-3.91,1.79-10.80,1.79-11.94c0.00-0.89-2.51,0.04-2.51-1.15z"/>
		<path d="M723.36,473.75c0.00-3.66,1.87-7.31,4.80-10.03c1.57-1.49,3.53-2.25,5.91-2.25c2.00,0.00,3.70,1.28,3.70,3.15c0.00,3.06-3.32,4.80-4.12,5.14c-0.38,0.17-2.68,1.11-6.67,1.15c-0.60,0.00-0.72,0.64-0.72,1.74c0.00,3.19,1.91,5.31,6.12,5.31c2.42,0.00,4.12-1.83,4.59-1.83c0.34,0.00,0.51,0.17,0.51,0.43c0.00,0.98-3.70,3.95-7.40,3.95c-5.40,0.00-6.72-2.98-6.72-6.76z  M726.84,469.33c0.00,0.30,0.09,0.85,0.38,0.85c4.12,0.00,7.61-2.76,7.61-5.44c0.00-1.62-1.53-2.00-2.25-2.00c-1.06,0.00-2.38,0.85-3.49,2.00c-1.28,1.32-2.25,4.04-2.25,4.59z"/>
		<path d="M739.81,474.69c0.00-6.59,5.53-12.92,10.58-12.92c1.11,0.00,1.96,0.55,3.15,0.55c0.13,0.00,1.53-11.18,1.53-11.48c0.00-0.64-0.60-1.06-1.23-1.06c-0.47,0.00-1.45,0.04-1.49,0.04c-0.43,0.00-0.68-0.17-0.68-0.47c0.00-0.72,1.49-0.55,2.68-0.85c2.38-0.60,2.13-0.68,3.27-0.68c0.38,0.00,0.68,0.34,0.68,0.72c0.00,1.11-0.43,2.47-2.81,19.85c-0.47,3.23-0.89,5.91-0.89,7.18c0.00,0.94,0.13,1.83,1.11,1.83c1.87,0.00,2.85-2.64,3.53-2.64c0.34,0.00,0.47,0.21,0.47,0.38c0.00,0.89-2.68,5.19-5.44,5.19c-2.98,0.00-2.00-4.76-2.59-4.76c-0.38,0.00-2.55,4.76-6.76,4.76c-3.61,0.00-5.10-2.47-5.10-5.65z  M742.78,473.50c0.00,2.47,1.02,4.38,3.61,4.38c1.53,0.00,3.19-0.81,4.29-2.21c1.70-2.13,2.34-9.61,2.34-11.31c0.00-1.15-1.70-1.70-2.85-1.70c-3.91,0.00-7.40,6.38-7.40,10.84z"/>
		<path d="M771.05,476.98c0.00-2.72,0.98-7.14,1.57-10.58c0.77-4.42,1.28-8.54,1.91-11.69c0.38-1.83,0.64-3.32,0.64-4.34c0.00-0.21-0.21-0.51-1.06-0.51c-0.64,0.00-1.11,0.09-1.74,0.09c-0.47,0.00-0.81,0.00-0.81-0.60c0.00-0.85,1.19-0.81,3.15-1.06c1.66-0.21,2.42-0.47,2.68-0.47c0.47,0.00,0.81,0.30,0.81,0.77c0.00,0.77-2.72,13.43-2.72,16.49c0.00,0.30,0.13,0.64,0.21,0.64c0.60,0.00,2.59-3.95,7.48-3.95c3.19,0.00,4.68,2.64,4.68,5.40c0.00,5.78-5.02,13.39-11.60,13.39c-2.51,0.00-5.19-1.11-5.19-3.57z  M773.86,476.47c0.00,1.45,0.64,2.89,3.27,2.89c3.83,0.00,7.74-6.12,7.74-11.01c0.00-2.38-1.83-4.34-4.17-4.34c-1.02,0.00-3.78,0.43-5.14,4.12c-1.23,3.36-1.70,7.91-1.70,8.33z"/>
		<path d="M789.50,485.31c0.00-0.72,0.64-1.40,1.36-1.40c1.70,0.00,1.74,1.40,3.70,1.40c2.47,0.00,5.27-5.44,5.27-7.06c0.00-2.38-4.68-13.35-6.93-13.35c-2.47,0.00-1.57,3.19-2.85,3.19c-0.26,0.00-0.43-0.21-0.43-0.94c0.00-1.79,0.85-5.48,3.44-5.48c4.12,0.00,8.16,12.07,8.63,12.07c0.60,0.00,1.53-4.55,1.53-7.40c0.00-1.23-1.06-2.08-1.06-3.23c0.00-0.77,0.43-1.57,1.45-1.57c0.94,0.00,1.66,0.94,1.66,2.25c0.00,1.91-1.02,7.78-3.53,14.11c-2.00,5.06-4.72,9.90-8.71,9.90c-1.83,0.00-3.53-0.55-3.53-2.51z"/>
	</g>
	<g aria-label="JOHN DRYDEN, JOSEPH ADDISON, LAURENCE EUSDEN,">
		<path d="M100.62,510.48l0.00,21.18c0.00,5.80-3.29,8.87-9.20,8.87c-4.22,0.00-6.91-2.83-6.91-2.83l2.15-5.62s2.11,2.00,3.83,2.00c1.93,0.00,3.40-1.18,3.40-4.15l0.00-19.47l6.73,0.00z"/>
		<path d="M108.24,525.22c0.00-8.62,6.76-15.28,14.89-15.28c8.19,0.00,14.85,6.66,14.85,15.28s-6.37,15.32-14.85,15.32c-8.73,0.00-14.89-6.69-14.89-15.32z  M115.50,525.22c0.00,4.40,2.11,8.80,7.62,8.80c5.37,0.00,7.59-4.40,7.59-8.80s-2.36-8.80-7.59-8.80c-5.19,0.00-7.62,4.40-7.62,8.80z"/>
		<path d="M152.67,528.16l0.00,11.84l-6.73,0.00l0.00-29.52l6.73,0.00l0.00,11.77l9.52,0.00l0.00-11.77l6.73,0.00l0.00,29.52l-6.73,0.00l0.00-11.84l-9.52,0.00z"/>
		<path d="M184.94,521.68l0.00,18.32l-6.73,0.00l0.00-29.52l6.73,0.00l11.74,18.32l0.07,0.00l0.00-18.32l6.73,0.00l0.00,29.52l-6.73,0.00l-11.74-18.32l-0.07,0.00z"/>
		<path d="M227.53,510.48l8.55,0.00c8.09,0.00,14.89,6.15,14.89,14.74c0.00,8.62-6.76,14.78-14.89,14.78l-8.55,0.00l0.00-29.52z  M234.26,533.99l1.04,0.00c4.97,0.00,8.37-3.79,8.41-8.73c0.00-4.94-3.40-8.77-8.41-8.77l-1.04,0.00l0.00,17.50z"/>
		<path d="M258.94,510.48l10.56,0.00c5.47,0.00,9.63,2.97,9.63,8.77c0.00,4.44-2.43,7.41-6.05,8.55l10.16,12.20l-8.55,0.00l-9.02-11.67l0.00,11.67l-6.73,0.00l0.00-29.52z  M265.67,523.58l0.79,0.00c2.54,0.00,5.58-0.18,5.58-3.86s-3.04-3.86-5.58-3.86l-0.79,0.00l0.00,7.73z"/>
		<path d="M283.12,510.48l8.09,0.00l6.15,9.45l6.15-9.45l8.09,0.00l-10.88,16.28l0.00,13.24l-6.73,0.00l0.00-13.24z"/>
		<path d="M317.68,510.48l8.55,0.00c8.09,0.00,14.89,6.15,14.89,14.74c0.00,8.62-6.76,14.78-14.89,14.78l-8.55,0.00l0.00-29.52z  M324.41,533.99l1.04,0.00c4.97,0.00,8.37-3.79,8.41-8.73c0.00-4.94-3.40-8.77-8.41-8.77l-1.04,0.00l0.00,17.50z"/>
		<path d="M365.98,510.48l0.00,5.90l-10.16,0.00l0.00,5.87l9.73,0.00l0.00,5.90l-9.73,0.00l0.00,5.94l10.16,0.00l0.00,5.90l-16.89,0.00l0.00-29.52l16.89,0.00z"/>
		<path d="M381.57,521.68l0.00,18.32l-6.73,0.00l0.00-29.52l6.73,0.00l11.74,18.32l0.07,0.00l0.00-18.32l6.73,0.00l0.00,29.52l-6.73,0.00l-11.74-18.32l-0.07,0.00z"/>
		<path d="M413.48,532.34c2.29,0.00,4.12,1.82,4.12,4.12c0.00,4.33-3.08,7.84-6.01,10.27l-1.82-1.50s2.15-2.04,2.72-5.01c-1.75-0.43-3.08-1.86-3.08-3.76c0.00-2.29,1.82-4.12,4.08-4.12z"/>
		<path d="M454.50,510.48l0.00,21.18c0.00,5.80-3.29,8.87-9.20,8.87c-4.22,0.00-6.91-2.83-6.91-2.83l2.15-5.62s2.11,2.00,3.83,2.00c1.93,0.00,3.40-1.18,3.40-4.15l0.00-19.47l6.73,0.00z"/>
		<path d="M462.12,525.22c0.00-8.62,6.76-15.28,14.89-15.28c8.19,0.00,14.85,6.66,14.85,15.28s-6.37,15.32-14.85,15.32c-8.73,0.00-14.89-6.69-14.89-15.32z  M469.38,525.22c0.00,4.40,2.11,8.80,7.62,8.80c5.37,0.00,7.59-4.40,7.59-8.80s-2.36-8.80-7.59-8.80c-5.19,0.00-7.62,4.40-7.62,8.80z"/>
		<path d="M510.70,509.94c5.37,0.00,9.16,2.79,9.16,2.79l-2.72,5.37s-2.93-2.04-5.98-2.04c-2.29,0.00-3.51,1.04-3.51,2.65c0.00,1.65,2.79,2.83,6.15,4.26c3.29,1.40,6.91,4.19,6.91,8.05c0.00,7.05-5.37,9.52-11.13,9.52c-6.91,0.00-11.09-3.90-11.09-3.90l3.36-5.65s3.94,3.33,7.23,3.33c1.47,0.00,4.26-0.14,4.26-2.90c0.00-2.15-3.15-3.11-6.66-4.87c-3.54-1.75-5.62-4.51-5.62-7.59c0.00-5.51,4.87-9.02,9.63-9.02z"/>
		<path d="M545.76,510.48l0.00,5.90l-10.16,0.00l0.00,5.87l9.73,0.00l0.00,5.90l-9.73,0.00l0.00,5.94l10.16,0.00l0.00,5.90l-16.89,0.00l0.00-29.52l16.89,0.00z"/>
		<path d="M554.62,510.48l10.77,0.00c5.76,0.00,10.09,2.97,10.09,9.09c0.00,6.08-4.33,9.48-10.09,9.48l-4.04,0.00l0.00,10.95l-6.73,0.00l0.00-29.52z  M561.35,523.68l1.90,0.00c2.65,0.00,5.15-0.89,5.15-3.90c0.00-3.04-2.50-3.94-5.15-3.94l-1.90,0.00l0.00,7.84z"/>
		<path d="M590.18,528.16l0.00,11.84l-6.73,0.00l0.00-29.52l6.73,0.00l0.00,11.77l9.52,0.00l0.00-11.77l6.73,0.00l0.00,29.52l-6.73,0.00l0.00-11.84l-9.52,0.00z"/>
		<path d="M645.49,510.48l11.92,29.52l-7.23,0.00l-2.18-5.90l-11.24,0.00l-2.18,5.90l-7.23,0.00l11.92-29.52l6.23,0.00z  M645.70,528.19l-3.29-8.59l-0.07,0.00l-3.29,8.59l6.66,0.00z"/>
		<path d="M663.55,510.48l8.55,0.00c8.09,0.00,14.89,6.15,14.89,14.74c0.00,8.62-6.76,14.78-14.89,14.78l-8.55,0.00l0.00-29.52z  M670.27,533.99l1.04,0.00c4.97,0.00,8.37-3.79,8.41-8.73c0.00-4.94-3.40-8.77-8.41-8.77l-1.04,0.00l0.00,17.50z"/>
		<path d="M694.95,510.48l8.55,0.00c8.09,0.00,14.89,6.15,14.89,14.74c0.00,8.62-6.76,14.78-14.89,14.78l-8.55,0.00l0.00-29.52z  M701.68,533.99l1.04,0.00c4.97,0.00,8.37-3.79,8.41-8.73c0.00-4.94-3.40-8.77-8.41-8.77l-1.04,0.00l0.00,17.50z"/>
		<path d="M733.09,510.48l0.00,29.52l-6.73,0.00l0.00-29.52l6.73,0.00z"/>
		<path d="M752.55,509.94c5.37,0.00,9.16,2.79,9.16,2.79l-2.72,5.37s-2.93-2.04-5.98-2.04c-2.29,0.00-3.51,1.04-3.51,2.65c0.00,1.65,2.79,2.83,6.15,4.26c3.29,1.40,6.91,4.19,6.91,8.05c0.00,7.05-5.37,9.52-11.13,9.52c-6.91,0.00-11.09-3.90-11.09-3.90l3.36-5.65s3.94,3.33,7.23,3.33c1.47,0.00,4.26-0.14,4.26-2.90c0.00-2.15-3.15-3.11-6.66-4.87c-3.54-1.75-5.62-4.51-5.62-7.59c0.00-5.51,4.87-9.02,9.63-9.02z"/>
		<path d="M769.39,525.22c0.00-8.62,6.76-15.28,14.89-15.28c8.19,0.00,14.85,6.66,14.85,15.28s-6.37,15.32-14.85,15.32c-8.73,0.00-14.89-6.69-14.89-15.32z  M776.66,525.22c0.00,4.40,2.11,8.80,7.62,8.80c5.37,0.00,7.59-4.40,7.59-8.80s-2.36-8.80-7.59-8.80c-5.19,0.00-7.62,4.40-7.62,8.80z"/>
		<path d="M813.82,521.68l0.00,18.32l-6.73,0.00l0.00-29.52l6.73,0.00l11.74,18.32l0.07,0.00l0.00-18.32l6.73,0.00l0.00,29.52l-6.73,0.00l-11.74-18.32l-0.07,0.00z"/>
		<path d="M845.73,532.34c2.29,0.00,4.12,1.82,4.12,4.12c0.00,4.33-3.08,7.84-6.01,10.27l-1.82-1.50s2.15-2.04,2.72-5.01c-1.75-0.43-3.08-1.86-3.08-3.76c0.00-2.29,1.82-4.12,4.08-4.12z"/>
		<path d="M880.64,510.48l0.00,23.62l10.16,0.00l0.00,5.90l-16.89,0.00l0.00-29.52l6.73,0.00z"/>
		<path d="M914.66,510.48l11.92,29.52l-7.23,0.00l-2.18-5.90l-11.24,0.00l-2.18,5.90l-7.23,0.00l11.92-29.52l6.23,0.00z  M914.87,528.19l-3.29-8.59l-0.07,0.00l-3.29,8.59l6.66,0.00z"/>
		<path d="M955.41,510.48l0.00,19.04c0.00,7.30-4.01,11.02-11.52,11.02s-11.52-3.72-11.52-11.02l0.00-19.04l6.73,0.00l0.00,17.07c0.00,4.94,1.50,6.37,4.80,6.37s4.80-1.43,4.80-6.37l0.00-17.07l6.73,0.00z"/>
		<path d="M964.34,510.48l10.56,0.00c5.47,0.00,9.63,2.97,9.63,8.77c0.00,4.44-2.43,7.41-6.05,8.55l10.16,12.20l-8.55,0.00l-9.02-11.67l0.00,11.67l-6.73,0.00l0.00-29.52z  M971.07,523.58l0.79,0.00c2.54,0.00,5.58-0.18,5.58-3.86s-3.04-3.86-5.58-3.86l-0.79,0.00l0.00,7.73z"/>
		<path d="M1011.85,510.48l0.00,5.90l-10.16,0.00l0.00,5.87l9.73,0.00l0.00,5.90l-9.73,0.00l0.00,5.94l10.16,0.00l0.00,5.90l-16.89,0.00l0.00-29.52l16.89,0.00z"/>
		<path d="M1027.45,521.68l0.00,18.32l-6.73,0.00l0.00-29.52l6.73,0.00l11.74,18.32l0.07,0.00l0.00-18.32l6.73,0.00l0.00,29.52l-6.73,0.00l-11.74-18.32l-0.07,0.00z"/>
		<path d="M1069.84,533.92c3.44,0.00,5.80-1.82,5.80-1.82l2.86,5.73s-3.29,2.72-9.70,2.72c-8.34,0.00-16.00-6.80-16.00-15.24c0.00-8.48,7.62-15.35,16.00-15.35c6.41,0.00,9.70,2.72,9.70,2.72l-2.86,5.73s-2.36-1.82-5.80-1.82c-6.76,0.00-9.73,4.72-9.73,8.66c0.00,3.97,2.97,8.70,9.73,8.70z"/>
		<path d="M1102.97,510.48l0.00,5.90l-10.16,0.00l0.00,5.87l9.73,0.00l0.00,5.90l-9.73,0.00l0.00,5.94l10.16,0.00l0.00,5.90l-16.89,0.00l0.00-29.52l16.89,0.00z"/>
		<path d="M1143.49,510.48l0.00,5.90l-10.16,0.00l0.00,5.87l9.73,0.00l0.00,5.90l-9.73,0.00l0.00,5.94l10.16,0.00l0.00,5.90l-16.89,0.00l0.00-29.52l16.89,0.00z"/>
		<path d="M1175.04,510.48l0.00,19.04c0.00,7.30-4.01,11.02-11.52,11.02s-11.52-3.72-11.52-11.02l0.00-19.04l6.73,0.00l0.00,17.07c0.00,4.94,1.50,6.37,4.80,6.37s4.80-1.43,4.80-6.37l0.00-17.07l6.73,0.00z"/>
		<path d="M1194.14,509.94c5.37,0.00,9.16,2.79,9.16,2.79l-2.72,5.37s-2.93-2.04-5.98-2.04c-2.29,0.00-3.51,1.04-3.51,2.65c0.00,1.65,2.79,2.83,6.15,4.26c3.29,1.40,6.91,4.19,6.91,8.05c0.00,7.05-5.37,9.52-11.13,9.52c-6.91,0.00-11.09-3.90-11.09-3.90l3.36-5.65s3.94,3.33,7.23,3.33c1.47,0.00,4.26-0.14,4.26-2.90c0.00-2.15-3.15-3.11-6.66-4.87c-3.54-1.75-5.62-4.51-5.62-7.59c0.00-5.51,4.87-9.02,9.63-9.02z"/>
		<path d="M1212.31,510.48l8.55,0.00c8.09,0.00,14.89,6.15,14.89,14.74c0.00,8.62-6.76,14.78-14.89,14.78l-8.55,0.00l0.00-29.52z  M1219.04,533.99l1.04,0.00c4.97,0.00,8.37-3.79,8.41-8.73c0.00-4.94-3.40-8.77-8.41-8.77l-1.04,0.00l0.00,17.50z"/>
		<path d="M1260.61,510.48l0.00,5.90l-10.16,0.00l0.00,5.87l9.73,0.00l0.00,5.90l-9.73,0.00l0.00,5.94l10.16,0.00l0.00,5.90l-16.89,0.00l0.00-29.52l16.89,0.00z"/>
		<path d="M1276.20,521.68l0.00,18.32l-6.73,0.00l0.00-29.52l6.73,0.00l11.74,18.32l0.07,0.00l0.00-18.32l6.73,0.00l0.00,29.52l-6.73,0.00l-11.74-18.32l-0.07,0.00z"/>
		<path d="M1308.11,532.34c2.29,0.00,4.12,1.82,4.12,4.12c0.00,4.33-3.08,7.84-6.01,10.27l-1.82-1.50s2.15-2.04,2.72-5.01c-1.75-0.43-3.08-1.86-3.08-3.76c0.00-2.29,1.82-4.12,4.08-4.12z"/>
	</g>
	<g aria-label="ARTHUR MAYNWARING, SAMUEL CROXALL,">
		<path d="M228.46,550.48l11.92,29.52l-7.23,0.00l-2.18-5.90l-11.24,0.00l-2.18,5.90l-7.23,0.00l11.92-29.52l6.23,0.00z  M228.68,568.19l-3.29-8.59l-0.07,0.00l-3.29,8.59l6.66,0.00z"/>
		<path d="M246.52,550.48l10.56,0.00c5.47,0.00,9.63,2.97,9.63,8.77c0.00,4.44-2.43,7.41-6.05,8.55l10.16,12.20l-8.55,0.00l-9.02-11.67l0.00,11.67l-6.73,0.00l0.00-29.52z  M253.25,563.58l0.79,0.00c2.54,0.00,5.58-0.18,5.58-3.86s-3.04-3.86-5.58-3.86l-0.79,0.00l0.00,7.73z"/>
		<path d="M273.85,556.38l0.00-5.90l20.75,0.00l0.00,5.90l-7.01,0.00l0.00,23.62l-6.73,0.00l0.00-23.62l-7.01,0.00z"/>
		<path d="M308.77,568.16l0.00,11.84l-6.73,0.00l0.00-29.52l6.73,0.00l0.00,11.77l9.52,0.00l0.00-11.77l6.73,0.00l0.00,29.52l-6.73,0.00l0.00-11.84l-9.52,0.00z"/>
		<path d="M356.99,550.48l0.00,19.04c0.00,7.30-4.01,11.02-11.52,11.02s-11.52-3.72-11.52-11.02l0.00-19.04l6.73,0.00l0.00,17.07c0.00,4.94,1.50,6.37,4.80,6.37s4.80-1.43,4.80-6.37l0.00-17.07l6.73,0.00z"/>
		<path d="M365.93,550.48l10.56,0.00c5.47,0.00,9.63,2.97,9.63,8.77c0.00,4.44-2.43,7.41-6.05,8.55l10.16,12.20l-8.55,0.00l-9.02-11.67l0.00,11.67l-6.73,0.00l0.00-29.52z  M372.66,563.58l0.79,0.00c2.54,0.00,5.58-0.18,5.58-3.86s-3.04-3.86-5.58-3.86l-0.79,0.00l0.00,7.73z"/>
		<path d="M435.72,580.00l-1.40-17.50l-0.18,0.00l-6.05,17.32l-4.01,0.00l-6.05-17.32l-0.18,0.00l-1.40,17.50l-6.73,0.00l2.65-29.52l7.16,0.00l6.55,17.03l6.55-17.03l7.16,0.00l2.65,29.52l-6.73,0.00z"/>
		<path d="M465.16,550.48l11.92,29.52l-7.23,0.00l-2.18-5.90l-11.24,0.00l-2.18,5.90l-7.23,0.00l11.92-29.52l6.23,0.00z  M465.38,568.19l-3.29-8.59l-0.07,0.00l-3.29,8.59l6.66,0.00z"/>
		<path d="M476.78,550.48l8.09,0.00l6.15,9.45l6.15-9.45l8.09,0.00l-10.88,16.28l0.00,13.24l-6.73,0.00l0.00-13.24z"/>
		<path d="M518.07,561.68l0.00,18.32l-6.73,0.00l0.00-29.52l6.73,0.00l11.74,18.32l0.07,0.00l0.00-18.32l6.73,0.00l0.00,29.52l-6.73,0.00l-11.74-18.32l-0.07,0.00z"/>
		<path d="M565.51,580.00l-4.72-16.57l-4.72,16.57l-7.48,0.00l-8.41-29.52l7.48,0.00l5.05,20.25l0.18,0.00l5.37-20.25l5.08,0.00l5.37,20.25l0.18,0.00l5.05-20.25l7.44,0.00l-8.41,29.52l-7.44,0.00z"/>
		<path d="M599.71,550.48l11.92,29.52l-7.23,0.00l-2.18-5.90l-11.24,0.00l-2.18,5.90l-7.23,0.00l11.92-29.52l6.23,0.00z  M599.92,568.19l-3.29-8.59l-0.07,0.00l-3.29,8.59l6.66,0.00z"/>
		<path d="M617.77,550.48l10.56,0.00c5.47,0.00,9.63,2.97,9.63,8.77c0.00,4.44-2.43,7.41-6.05,8.55l10.16,12.20l-8.55,0.00l-9.02-11.67l0.00,11.67l-6.73,0.00l0.00-29.52z  M624.49,563.58l0.79,0.00c2.54,0.00,5.58-0.18,5.58-3.86s-3.04-3.86-5.58-3.86l-0.79,0.00l0.00,7.73z"/>
		<path d="M655.12,550.48l0.00,29.52l-6.73,0.00l0.00-29.52l6.73,0.00z"/>
		<path d="M671.14,561.68l0.00,18.32l-6.73,0.00l0.00-29.52l6.73,0.00l11.74,18.32l0.07,0.00l0.00-18.32l6.73,0.00l0.00,29.52l-6.73,0.00l-11.74-18.32l-0.07,0.00z"/>
		<path d="M725.66,563.47l0.00,6.41c-1.61,7.48-7.84,10.66-13.63,10.66c-7.94,0.00-14.39-6.83-14.39-15.28c0.00-8.48,6.08-15.32,14.39-15.32c5.19,0.00,8.80,1.93,11.38,5.05l-4.40,4.83c-1.72-2.76-3.97-3.79-6.58-3.79c-4.15,0.00-7.51,4.12-7.51,9.23c0.00,5.01,3.36,9.09,7.51,9.09c3.22,0.00,6.41-2.08,6.41-5.69l-6.80,0.00l0.00-5.19l13.63,0.00z"/>
		<path d="M737.71,572.34c2.29,0.00,4.12,1.82,4.12,4.12c0.00,4.33-3.08,7.84-6.01,10.27l-1.82-1.50s2.15-2.04,2.72-5.01c-1.75-0.43-3.08-1.86-3.08-3.76c0.00-2.29,1.82-4.12,4.08-4.12z"/>
		<path d="M776.05,549.94c5.37,0.00,9.16,2.79,9.16,2.79l-2.72,5.37s-2.93-2.04-5.98-2.04c-2.29,0.00-3.51,1.04-3.51,2.65c0.00,1.65,2.79,2.83,6.15,4.26c3.29,1.40,6.91,4.19,6.91,8.05c0.00,7.05-5.37,9.52-11.13,9.52c-6.91,0.00-11.09-3.90-11.09-3.90l3.36-5.65s3.94,3.33,7.23,3.33c1.47,0.00,4.26-0.14,4.26-2.90c0.00-2.15-3.15-3.11-6.66-4.87c-3.54-1.75-5.62-4.51-5.62-7.59c0.00-5.51,4.87-9.02,9.63-9.02z"/>
		<path d="M809.21,550.48l11.92,29.52l-7.23,0.00l-2.18-5.90l-11.24,0.00l-2.18,5.90l-7.23,0.00l11.92-29.52l6.23,0.00z  M809.43,568.19l-3.29-8.59l-0.07,0.00l-3.29,8.59l6.66,0.00z"/>
		<path d="M851.68,580.00l-1.40-17.50l-0.18,0.00l-6.05,17.32l-4.01,0.00l-6.05-17.32l-0.18,0.00l-1.40,17.50l-6.73,0.00l2.65-29.52l7.16,0.00l6.55,17.03l6.55-17.03l7.16,0.00l2.65,29.52l-6.73,0.00z"/>
		<path d="M888.81,550.48l0.00,19.04c0.00,7.30-4.01,11.02-11.52,11.02s-11.52-3.72-11.52-11.02l0.00-19.04l6.73,0.00l0.00,17.07c0.00,4.94,1.50,6.37,4.80,6.37s4.80-1.43,4.80-6.37l0.00-17.07l6.73,0.00z"/>
		<path d="M914.64,550.48l0.00,5.90l-10.16,0.00l0.00,5.87l9.73,0.00l0.00,5.90l-9.73,0.00l0.00,5.94l10.16,0.00l0.00,5.90l-16.89,0.00l0.00-29.52l16.89,0.00z"/>
		<path d="M930.23,550.48l0.00,23.62l10.16,0.00l0.00,5.90l-16.89,0.00l0.00-29.52l6.73,0.00z"/>
		<path d="M978.05,573.92c3.44,0.00,5.80-1.82,5.80-1.82l2.86,5.73s-3.29,2.72-9.70,2.72c-8.34,0.00-16.00-6.80-16.00-15.24c0.00-8.48,7.62-15.35,16.00-15.35c6.41,0.00,9.70,2.72,9.70,2.72l-2.86,5.73s-2.36-1.82-5.80-1.82c-6.76,0.00-9.73,4.72-9.73,8.66c0.00,3.97,2.97,8.70,9.73,8.70z"/>
		<path d="M994.29,550.48l10.56,0.00c5.47,0.00,9.63,2.97,9.63,8.77c0.00,4.44-2.43,7.41-6.05,8.55l10.16,12.20l-8.55,0.00l-9.02-11.67l0.00,11.67l-6.73,0.00l0.00-29.52z  M1001.02,563.58l0.79,0.00c2.54,0.00,5.58-0.18,5.58-3.86s-3.04-3.86-5.58-3.86l-0.79,0.00l0.00,7.73z"/>
		<path d="M1023.59,565.22c0.00-8.62,6.76-15.28,14.89-15.28c8.19,0.00,14.85,6.66,14.85,15.28s-6.37,15.32-14.85,15.32c-8.73,0.00-14.89-6.69-14.89-15.32z  M1030.85,565.22c0.00,4.40,2.11,8.80,7.62,8.80c5.37,0.00,7.59-4.40,7.59-8.80s-2.36-8.80-7.59-8.80c-5.19,0.00-7.62,4.40-7.62,8.80z"/>
		<path d="M1088.92,580.00l-8.70,0.00l-6.98-10.06l-6.98,10.06l-8.34,0.00l11.16-15.89l-9.30-13.63l8.02,0.00l5.44,8.05l5.44-8.05l8.37,0.00l-9.66,13.63z"/>
		<path d="M1109.84,550.48l11.92,29.52l-7.23,0.00l-2.18-5.90l-11.24,0.00l-2.18,5.90l-7.23,0.00l11.92-29.52l6.23,0.00z  M1110.06,568.19l-3.29-8.59l-0.07,0.00l-3.29,8.59l6.66,0.00z"/>
		<path d="M1134.63,550.48l0.00,23.62l10.16,0.00l0.00,5.90l-16.89,0.00l0.00-29.52l6.73,0.00z"/>
		<path d="M1159.85,550.48l0.00,23.62l10.16,0.00l0.00,5.90l-16.89,0.00l0.00-29.52l6.73,0.00z"/>
		<path d="M1182.42,572.34c2.29,0.00,4.12,1.82,4.12,4.12c0.00,4.33-3.08,7.84-6.01,10.27l-1.82-1.50s2.15-2.04,2.72-5.01c-1.75-0.43-3.08-1.86-3.08-3.76c0.00-2.29,1.82-4.12,4.08-4.12z"/>
	</g>
	<g aria-label="NAHUM TATE, WILLIAM STONESTREET, THOMAS VERNON,">
		<path d="M64.83,601.68l0.00,18.32l-6.73,0.00l0.00-29.52l6.73,0.00l11.74,18.32l0.07,0.00l0.00-18.32l6.73,0.00l0.00,29.52l-6.73,0.00l-11.74-18.32l-0.07,0.00z"/>
		<path d="M107.65,590.48l11.92,29.52l-7.23,0.00l-2.18-5.90l-11.24,0.00l-2.18,5.90l-7.23,0.00l11.92-29.52l6.23,0.00z  M107.87,608.19l-3.29-8.59l-0.07,0.00l-3.29,8.59l6.66,0.00z"/>
		<path d="M132.44,608.16l0.00,11.84l-6.73,0.00l0.00-29.52l6.73,0.00l0.00,11.77l9.52,0.00l0.00-11.77l6.73,0.00l0.00,29.52l-6.73,0.00l0.00-11.84l-9.52,0.00z"/>
		<path d="M180.67,590.48l0.00,19.04c0.00,7.30-4.01,11.02-11.52,11.02s-11.52-3.72-11.52-11.02l0.00-19.04l6.73,0.00l0.00,17.07c0.00,4.94,1.50,6.37,4.80,6.37s4.80-1.43,4.80-6.37l0.00-17.07l6.73,0.00z"/>
		<path d="M214.01,620.00l-1.40-17.50l-0.18,0.00l-6.05,17.32l-4.01,0.00l-6.05-17.32l-0.18,0.00l-1.40,17.50l-6.73,0.00l2.65-29.52l7.16,0.00l6.55,17.03l6.55-17.03l7.16,0.00l2.65,29.52l-6.73,0.00z"/>
		<path d="M239.65,596.38l0.00-5.90l20.75,0.00l0.00,5.90l-7.01,0.00l0.00,23.62l-6.73,0.00l0.00-23.62l-7.01,0.00z"/>
		<path d="M281.11,590.48l11.92,29.52l-7.23,0.00l-2.18-5.90l-11.24,0.00l-2.18,5.90l-7.23,0.00l11.92-29.52l6.23,0.00z  M281.33,608.19l-3.29-8.59l-0.07,0.00l-3.29,8.59l6.66,0.00z"/>
		<path d="M295.59,596.38l0.00-5.90l20.75,0.00l0.00,5.90l-7.01,0.00l0.00,23.62l-6.73,0.00l0.00-23.62l-7.01,0.00z"/>
		<path d="M340.67,590.48l0.00,5.90l-10.16,0.00l0.00,5.87l9.73,0.00l0.00,5.90l-9.73,0.00l0.00,5.94l10.16,0.00l0.00,5.90l-16.89,0.00l0.00-29.52l16.89,0.00z"/>
		<path d="M353.62,612.34c2.29,0.00,4.12,1.82,4.12,4.12c0.00,4.33-3.08,7.84-6.01,10.27l-1.82-1.50s2.15-2.04,2.72-5.01c-1.75-0.43-3.08-1.86-3.08-3.76c0.00-2.29,1.82-4.12,4.08-4.12z"/>
		<path d="M401.40,620.00l-4.72-16.57l-4.72,16.57l-7.48,0.00l-8.41-29.52l7.48,0.00l5.05,20.25l0.18,0.00l5.37-20.25l5.08,0.00l5.37,20.25l0.18,0.00l5.05-20.25l7.44,0.00l-8.41,29.52l-7.44,0.00z"/>
		<path d="M430.59,590.48l0.00,29.52l-6.73,0.00l0.00-29.52l6.73,0.00z"/>
		<path d="M446.61,590.48l0.00,23.62l10.16,0.00l0.00,5.90l-16.89,0.00l0.00-29.52l6.73,0.00z"/>
		<path d="M471.83,590.48l0.00,23.62l10.16,0.00l0.00,5.90l-16.89,0.00l0.00-29.52l6.73,0.00z"/>
		<path d="M497.05,590.48l0.00,29.52l-6.73,0.00l0.00-29.52l6.73,0.00z"/>
		<path d="M521.34,590.48l11.92,29.52l-7.23,0.00l-2.18-5.90l-11.24,0.00l-2.18,5.90l-7.23,0.00l11.92-29.52l6.23,0.00z  M521.55,608.19l-3.29-8.59l-0.07,0.00l-3.29,8.59l6.66,0.00z"/>
		<path d="M563.80,620.00l-1.40-17.50l-0.18,0.00l-6.05,17.32l-4.01,0.00l-6.05-17.32l-0.18,0.00l-1.40,17.50l-6.73,0.00l2.65-29.52l7.16,0.00l6.55,17.03l6.55-17.03l7.16,0.00l2.65,29.52l-6.73,0.00z"/>
		<path d="M603.18,589.94c5.37,0.00,9.16,2.79,9.16,2.79l-2.72,5.37s-2.93-2.04-5.98-2.04c-2.29,0.00-3.51,1.04-3.51,2.65c0.00,1.65,2.79,2.83,6.15,4.26c3.29,1.40,6.91,4.19,6.91,8.05c0.00,7.05-5.37,9.52-11.13,9.52c-6.91,0.00-11.09-3.90-11.09-3.90l3.36-5.65s3.94,3.33,7.23,3.33c1.47,0.00,4.26-0.14,4.26-2.90c0.00-2.15-3.15-3.11-6.66-4.87c-3.54-1.75-5.62-4.51-5.62-7.59c0.00-5.51,4.87-9.02,9.63-9.02z"/>
		<path d="M617.77,596.38l0.00-5.90l20.75,0.00l0.00,5.90l-7.01,0.00l0.00,23.62l-6.73,0.00l0.00-23.62l-7.01,0.00z"/>
		<path d="M643.49,605.22c0.00-8.62,6.76-15.28,14.89-15.28c8.19,0.00,14.85,6.66,14.85,15.28s-6.37,15.32-14.85,15.32c-8.73,0.00-14.89-6.69-14.89-15.32z  M650.75,605.22c0.00,4.40,2.11,8.80,7.62,8.80c5.37,0.00,7.59-4.40,7.59-8.80s-2.36-8.80-7.59-8.80c-5.19,0.00-7.62,4.40-7.62,8.80z"/>
		<path d="M687.92,601.68l0.00,18.32l-6.73,0.00l0.00-29.52l6.73,0.00l11.74,18.32l0.07,0.00l0.00-18.32l6.73,0.00l0.00,29.52l-6.73,0.00l-11.74-18.32l-0.07,0.00z"/>
		<path d="M732.64,590.48l0.00,5.90l-10.16,0.00l0.00,5.87l9.73,0.00l0.00,5.90l-9.73,0.00l0.00,5.94l10.16,0.00l0.00,5.90l-16.89,0.00l0.00-29.52l16.89,0.00z"/>
		<path d="M752.39,589.94c5.37,0.00,9.16,2.79,9.16,2.79l-2.72,5.37s-2.93-2.04-5.98-2.04c-2.29,0.00-3.51,1.04-3.51,2.65c0.00,1.65,2.79,2.83,6.15,4.26c3.29,1.40,6.91,4.19,6.91,8.05c0.00,7.05-5.37,9.52-11.13,9.52c-6.91,0.00-11.09-3.90-11.09-3.90l3.36-5.65s3.94,3.33,7.23,3.33c1.47,0.00,4.26-0.14,4.26-2.90c0.00-2.15-3.15-3.11-6.66-4.87c-3.54-1.75-5.62-4.51-5.62-7.59c0.00-5.51,4.87-9.02,9.63-9.02z"/>
		<path d="M766.98,596.38l0.00-5.90l20.75,0.00l0.00,5.90l-7.01,0.00l0.00,23.62l-6.73,0.00l0.00-23.62l-7.01,0.00z"/>
		<path d="M795.16,590.48l10.56,0.00c5.47,0.00,9.63,2.97,9.63,8.77c0.00,4.44-2.43,7.41-6.05,8.55l10.16,12.20l-8.55,0.00l-9.02-11.67l0.00,11.67l-6.73,0.00l0.00-29.52z  M801.89,603.58l0.79,0.00c2.54,0.00,5.58-0.18,5.58-3.86s-3.04-3.86-5.58-3.86l-0.79,0.00l0.00,7.73z"/>
		<path d="M842.67,590.48l0.00,5.90l-10.16,0.00l0.00,5.87l9.73,0.00l0.00,5.90l-9.73,0.00l0.00,5.94l10.16,0.00l0.00,5.90l-16.89,0.00l0.00-29.52l16.89,0.00z"/>
		<path d="M868.43,590.48l0.00,5.90l-10.16,0.00l0.00,5.87l9.73,0.00l0.00,5.90l-9.73,0.00l0.00,5.94l10.16,0.00l0.00,5.90l-16.89,0.00l0.00-29.52l16.89,0.00z"/>
		<path d="M875.43,596.38l0.00-5.90l20.75,0.00l0.00,5.90l-7.01,0.00l0.00,23.62l-6.73,0.00l0.00-23.62l-7.01,0.00z"/>
		<path d="M905.37,612.34c2.29,0.00,4.12,1.82,4.12,4.12c0.00,4.33-3.08,7.84-6.01,10.27l-1.82-1.50s2.15-2.04,2.72-5.01c-1.75-0.43-3.08-1.86-3.08-3.76c0.00-2.29,1.82-4.12,4.08-4.12z"/>
		<path d="M929.97,596.38l0.00-5.90l20.75,0.00l0.00,5.90l-7.01,0.00l0.00,23.62l-6.73,0.00l0.00-23.62l-7.01,0.00z"/>
		<path d="M964.89,608.16l0.00,11.84l-6.73,0.00l0.00-29.52l6.73,0.00l0.00,11.77l9.52,0.00l0.00-11.77l6.73,0.00l0.00,29.52l-6.73,0.00l0.00-11.84l-9.52,0.00z"/>
		<path d="M989.10,605.22c0.00-8.62,6.76-15.28,14.89-15.28c8.19,0.00,14.85,6.66,14.85,15.28s-6.37,15.32-14.85,15.32c-8.73,0.00-14.89-6.69-14.89-15.32z  M996.37,605.22c0.00,4.40,2.11,8.80,7.62,8.80c5.37,0.00,7.59-4.40,7.59-8.80s-2.36-8.80-7.59-8.80c-5.19,0.00-7.62,4.40-7.62,8.80z"/>
		<path d="M1051.22,620.00l-1.40-17.50l-0.18,0.00l-6.05,17.32l-4.01,0.00l-6.05-17.32l-0.18,0.00l-1.40,17.50l-6.73,0.00l2.65-29.52l7.16,0.00l6.55,17.03l6.55-17.03l7.16,0.00l2.65,29.52l-6.73,0.00z"/>
		<path d="M1080.66,590.48l11.92,29.52l-7.23,0.00l-2.18-5.90l-11.24,0.00l-2.18,5.90l-7.23,0.00l11.92-29.52l6.23,0.00z  M1080.87,608.19l-3.29-8.59l-0.07,0.00l-3.29,8.59l6.66,0.00z"/>
		<path d="M1108.88,589.94c5.37,0.00,9.16,2.79,9.16,2.79l-2.72,5.37s-2.93-2.04-5.98-2.04c-2.29,0.00-3.51,1.04-3.51,2.65c0.00,1.65,2.79,2.83,6.15,4.26c3.29,1.40,6.91,4.19,6.91,8.05c0.00,7.05-5.37,9.52-11.13,9.52c-6.91,0.00-11.09-3.90-11.09-3.90l3.36-5.65s3.94,3.33,7.23,3.33c1.47,0.00,4.26-0.14,4.26-2.90c0.00-2.15-3.15-3.11-6.66-4.87c-3.54-1.75-5.62-4.51-5.62-7.59c0.00-5.51,4.87-9.02,9.63-9.02z"/>
		<path d="M1148.01,620.00l-12.38-29.52l7.59,0.00l7.44,19.39l7.44-19.39l7.59,0.00l-12.38,29.52l-5.30,0.00z"/>
		<path d="M1188.72,590.48l0.00,5.90l-10.16,0.00l0.00,5.87l9.73,0.00l0.00,5.90l-9.73,0.00l0.00,5.94l10.16,0.00l0.00,5.90l-16.89,0.00l0.00-29.52l16.89,0.00z"/>
		<path d="M1197.58,590.48l10.56,0.00c5.47,0.00,9.63,2.97,9.63,8.77c0.00,4.44-2.43,7.41-6.05,8.55l10.16,12.20l-8.55,0.00l-9.02-11.67l0.00,11.67l-6.73,0.00l0.00-29.52z  M1204.31,603.58l0.79,0.00c2.54,0.00,5.58-0.18,5.58-3.86s-3.04-3.86-5.58-3.86l-0.79,0.00l0.00,7.73z"/>
		<path d="M1234.93,601.68l0.00,18.32l-6.73,0.00l0.00-29.52l6.73,0.00l11.74,18.32l0.07,0.00l0.00-18.32l6.73,0.00l0.00,29.52l-6.73,0.00l-11.74-18.32l-0.07,0.00z"/>
		<path d="M1261.44,605.22c0.00-8.62,6.76-15.28,14.89-15.28c8.19,0.00,14.85,6.66,14.85,15.28s-6.37,15.32-14.85,15.32c-8.73,0.00-14.89-6.69-14.89-15.32z  M1268.70,605.22c0.00,4.40,2.11,8.80,7.62,8.80c5.37,0.00,7.59-4.40,7.59-8.80s-2.36-8.80-7.59-8.80c-5.19,0.00-7.62,4.40-7.62,8.80z"/>
		<path d="M1305.87,601.68l0.00,18.32l-6.73,0.00l0.00-29.52l6.73,0.00l11.74,18.32l0.07,0.00l0.00-18.32l6.73,0.00l0.00,29.52l-6.73,0.00l-11.74-18.32l-0.07,0.00z"/>
		<path d="M1337.78,612.34c2.29,0.00,4.12,1.82,4.12,4.12c0.00,4.33-3.08,7.84-6.01,10.27l-1.82-1.50s2.15-2.04,2.72-5.01c-1.75-0.43-3.08-1.86-3.08-3.76c0.00-2.29,1.82-4.12,4.08-4.12z"/>
	</g>
	<g aria-label="JOHN GAY,ALEXANDER POPE, STEPHEN HARVEY,">
		<path d="M164.51,630.48l0.00,21.18c0.00,5.80-3.29,8.87-9.20,8.87c-4.22,0.00-6.91-2.83-6.91-2.83l2.15-5.62s2.11,2.00,3.83,2.00c1.93,0.00,3.40-1.18,3.40-4.15l0.00-19.47l6.73,0.00z"/>
		<path d="M172.12,645.22c0.00-8.62,6.76-15.28,14.89-15.28c8.19,0.00,14.85,6.66,14.85,15.28s-6.37,15.32-14.85,15.32c-8.73,0.00-14.89-6.69-14.89-15.32z  M179.38,645.22c0.00,4.40,2.11,8.80,7.62,8.80c5.37,0.00,7.59-4.40,7.59-8.80s-2.36-8.80-7.59-8.80c-5.19,0.00-7.62,4.40-7.62,8.80z"/>
		<path d="M216.55,648.16l0.00,11.84l-6.73,0.00l0.00-29.52l6.73,0.00l0.00,11.77l9.52,0.00l0.00-11.77l6.73,0.00l0.00,29.52l-6.73,0.00l0.00-11.84l-9.52,0.00z"/>
		<path d="M248.82,641.68l0.00,18.32l-6.73,0.00l0.00-29.52l6.73,0.00l11.74,18.32l0.07,0.00l0.00-18.32l6.73,0.00l0.00,29.52l-6.73,0.00l-11.74-18.32l-0.07,0.00z"/>
		<path d="M318.11,643.47l0.00,6.41c-1.61,7.48-7.84,10.66-13.63,10.66c-7.94,0.00-14.39-6.83-14.39-15.28c0.00-8.48,6.08-15.32,14.39-15.32c5.19,0.00,8.80,1.93,11.38,5.05l-4.40,4.83c-1.72-2.76-3.97-3.79-6.58-3.79c-4.15,0.00-7.51,4.12-7.51,9.23c0.00,5.01,3.36,9.09,7.51,9.09c3.22,0.00,6.41-2.08,6.41-5.69l-6.80,0.00l0.00-5.19l13.63,0.00z"/>
		<path d="M341.08,630.48l11.92,29.52l-7.23,0.00l-2.18-5.90l-11.24,0.00l-2.18,5.90l-7.23,0.00l11.92-29.52l6.23,0.00z  M341.29,648.19l-3.29-8.59l-0.07,0.00l-3.29,8.59l6.66,0.00z"/>
		<path d="M352.70,630.48l8.09,0.00l6.15,9.45l6.15-9.45l8.09,0.00l-10.88,16.28l0.00,13.24l-6.73,0.00l0.00-13.24z"/>
		<path d="M388.65,652.34c2.29,0.00,4.12,1.82,4.12,4.12c0.00,4.33-3.08,7.84-6.01,10.27l-1.82-1.50s2.15-2.04,2.72-5.01c-1.75-0.43-3.08-1.86-3.08-3.76c0.00-2.29,1.82-4.12,4.08-4.12z"/>
		<path d="M417.05,630.48l11.92,29.52l-7.23,0.00l-2.18-5.90l-11.24,0.00l-2.18,5.90l-7.23,0.00l11.92-29.52l6.23,0.00z  M417.27,648.19l-3.29-8.59l-0.07,0.00l-3.29,8.59l6.66,0.00z"/>
		<path d="M441.84,630.48l0.00,23.62l10.16,0.00l0.00,5.90l-16.89,0.00l0.00-29.52l6.73,0.00z"/>
		<path d="M477.22,630.48l0.00,5.90l-10.16,0.00l0.00,5.87l9.73,0.00l0.00,5.90l-9.73,0.00l0.00,5.94l10.16,0.00l0.00,5.90l-16.89,0.00l0.00-29.52l16.89,0.00z"/>
		<path d="M513.71,660.00l-8.70,0.00l-6.98-10.06l-6.98,10.06l-8.34,0.00l11.16-15.89l-9.30-13.63l8.02,0.00l5.44,8.05l5.44-8.05l8.37,0.00l-9.66,13.63z"/>
		<path d="M534.64,630.48l11.92,29.52l-7.23,0.00l-2.18-5.90l-11.24,0.00l-2.18,5.90l-7.23,0.00l11.92-29.52l6.23,0.00z  M534.85,648.19l-3.29-8.59l-0.07,0.00l-3.29,8.59l6.66,0.00z"/>
		<path d="M559.42,641.68l0.00,18.32l-6.73,0.00l0.00-29.52l6.73,0.00l11.74,18.32l0.07,0.00l0.00-18.32l6.73,0.00l0.00,29.52l-6.73,0.00l-11.74-18.32l-0.07,0.00z"/>
		<path d="M587.25,630.48l8.55,0.00c8.09,0.00,14.89,6.15,14.89,14.74c0.00,8.62-6.76,14.78-14.89,14.78l-8.55,0.00l0.00-29.52z  M593.98,653.99l1.04,0.00c4.97,0.00,8.37-3.79,8.41-8.73c0.00-4.94-3.40-8.77-8.41-8.77l-1.04,0.00l0.00,17.50z"/>
		<path d="M635.55,630.48l0.00,5.90l-10.16,0.00l0.00,5.87l9.73,0.00l0.00,5.90l-9.73,0.00l0.00,5.94l10.16,0.00l0.00,5.90l-16.89,0.00l0.00-29.52l16.89,0.00z"/>
		<path d="M644.42,630.48l10.56,0.00c5.47,0.00,9.63,2.97,9.63,8.77c0.00,4.44-2.43,7.41-6.05,8.55l10.16,12.20l-8.55,0.00l-9.02-11.67l0.00,11.67l-6.73,0.00l0.00-29.52z  M651.14,643.58l0.79,0.00c2.54,0.00,5.58-0.18,5.58-3.86s-3.04-3.86-5.58-3.86l-0.79,0.00l0.00,7.73z"/>
		<path d="M689.81,630.48l10.77,0.00c5.76,0.00,10.09,2.97,10.09,9.09c0.00,6.08-4.33,9.48-10.09,9.48l-4.04,0.00l0.00,10.95l-6.73,0.00l0.00-29.52z  M696.53,643.68l1.90,0.00c2.65,0.00,5.15-0.89,5.15-3.90c0.00-3.04-2.50-3.94-5.15-3.94l-1.90,0.00l0.00,7.84z"/>
		<path d="M717.31,645.22c0.00-8.62,6.76-15.28,14.89-15.28c8.19,0.00,14.85,6.66,14.85,15.28s-6.37,15.32-14.85,15.32c-8.73,0.00-14.89-6.69-14.89-15.32z  M724.58,645.22c0.00,4.40,2.11,8.80,7.62,8.80c5.37,0.00,7.59-4.40,7.59-8.80s-2.36-8.80-7.59-8.80c-5.19,0.00-7.62,4.40-7.62,8.80z"/>
		<path d="M755.02,630.48l10.77,0.00c5.76,0.00,10.09,2.97,10.09,9.09c0.00,6.08-4.33,9.48-10.09,9.48l-4.04,0.00l0.00,10.95l-6.73,0.00l0.00-29.52z  M761.75,643.68l1.90,0.00c2.65,0.00,5.15-0.89,5.15-3.90c0.00-3.04-2.50-3.94-5.15-3.94l-1.90,0.00l0.00,7.84z"/>
		<path d="M800.74,630.48l0.00,5.90l-10.16,0.00l0.00,5.87l9.73,0.00l0.00,5.90l-9.73,0.00l0.00,5.94l10.16,0.00l0.00,5.90l-16.89,0.00l0.00-29.52l16.89,0.00z"/>
		<path d="M813.69,652.34c2.29,0.00,4.12,1.82,4.12,4.12c0.00,4.33-3.08,7.84-6.01,10.27l-1.82-1.50s2.15-2.04,2.72-5.01c-1.75-0.43-3.08-1.86-3.08-3.76c0.00-2.29,1.82-4.12,4.08-4.12z"/>
		<path d="M852.03,629.94c5.37,0.00,9.16,2.79,9.16,2.79l-2.72,5.37s-2.93-2.04-5.98-2.04c-2.29,0.00-3.51,1.04-3.51,2.65c0.00,1.65,2.79,2.83,6.15,4.26c3.29,1.40,6.91,4.19,6.91,8.05c0.00,7.05-5.37,9.52-11.13,9.52c-6.91,0.00-11.09-3.90-11.09-3.90l3.36-5.65s3.94,3.33,7.23,3.33c1.47,0.00,4.26-0.14,4.26-2.90c0.00-2.15-3.15-3.11-6.66-4.87c-3.54-1.75-5.62-4.51-5.62-7.59c0.00-5.51,4.87-9.02,9.63-9.02z"/>
		<path d="M866.62,636.38l0.00-5.90l20.75,0.00l0.00,5.90l-7.01,0.00l0.00,23.62l-6.73,0.00l0.00-23.62l-7.01,0.00z"/>
		<path d="M911.69,630.48l0.00,5.90l-10.16,0.00l0.00,5.87l9.73,0.00l0.00,5.90l-9.73,0.00l0.00,5.94l10.16,0.00l0.00,5.90l-16.89,0.00l0.00-29.52l16.89,0.00z"/>
		<path d="M920.56,630.48l10.77,0.00c5.76,0.00,10.09,2.97,10.09,9.09c0.00,6.08-4.33,9.48-10.09,9.48l-4.04,0.00l0.00,10.95l-6.73,0.00l0.00-29.52z  M927.29,643.68l1.90,0.00c2.65,0.00,5.15-0.89,5.15-3.90c0.00-3.04-2.50-3.94-5.15-3.94l-1.90,0.00l0.00,7.84z"/>
		<path d="M956.12,648.16l0.00,11.84l-6.73,0.00l0.00-29.52l6.73,0.00l0.00,11.77l9.52,0.00l0.00-11.77l6.73,0.00l0.00,29.52l-6.73,0.00l0.00-11.84l-9.52,0.00z"/>
		<path d="M998.55,630.48l0.00,5.90l-10.16,0.00l0.00,5.87l9.73,0.00l0.00,5.90l-9.73,0.00l0.00,5.94l10.16,0.00l0.00,5.90l-16.89,0.00l0.00-29.52l16.89,0.00z"/>
		<path d="M1014.14,641.68l0.00,18.32l-6.73,0.00l0.00-29.52l6.73,0.00l11.74,18.32l0.07,0.00l0.00-18.32l6.73,0.00l0.00,29.52l-6.73,0.00l-11.74-18.32l-0.07,0.00z"/>
		<path d="M1063.47,648.16l0.00,11.84l-6.73,0.00l0.00-29.52l6.73,0.00l0.00,11.77l9.52,0.00l0.00-11.77l6.73,0.00l0.00,29.52l-6.73,0.00l0.00-11.84l-9.52,0.00z"/>
		<path d="M1104.00,630.48l11.92,29.52l-7.23,0.00l-2.18-5.90l-11.24,0.00l-2.18,5.90l-7.23,0.00l11.92-29.52l6.23,0.00z  M1104.21,648.19l-3.29-8.59l-0.07,0.00l-3.29,8.59l6.66,0.00z"/>
		<path d="M1122.06,630.48l10.56,0.00c5.47,0.00,9.63,2.97,9.63,8.77c0.00,4.44-2.43,7.41-6.05,8.55l10.16,12.20l-8.55,0.00l-9.02-11.67l0.00,11.67l-6.73,0.00l0.00-29.52z  M1128.79,643.58l0.79,0.00c2.54,0.00,5.58-0.18,5.58-3.86s-3.04-3.86-5.58-3.86l-0.79,0.00l0.00,7.73z"/>
		<path d="M1161.91,660.00l-12.38-29.52l7.59,0.00l7.44,19.39l7.44-19.39l7.59,0.00l-12.38,29.52l-5.30,0.00z"/>
		<path d="M1202.63,630.48l0.00,5.90l-10.16,0.00l0.00,5.87l9.73,0.00l0.00,5.90l-9.73,0.00l0.00,5.94l10.16,0.00l0.00,5.90l-16.89,0.00l0.00-29.52l16.89,0.00z"/>
		<path d="M1208.27,630.48l8.09,0.00l6.15,9.45l6.15-9.45l8.09,0.00l-10.88,16.28l0.00,13.24l-6.73,0.00l0.00-13.24z"/>
		<path d="M1244.22,652.34c2.29,0.00,4.12,1.82,4.12,4.12c0.00,4.33-3.08,7.84-6.01,10.27l-1.82-1.50s2.15-2.04,2.72-5.01c-1.75-0.43-3.08-1.86-3.08-3.76c0.00-2.29,1.82-4.12,4.08-4.12z"/>
	</g>
	<g aria-label="WILLIAM CONGREVE, JOHN OZELL, TEMPLE STANYAN,">
		<path d="M113.38,700.00l-4.72-16.57l-4.72,16.57l-7.48,0.00l-8.41-29.52l7.48,0.00l5.05,20.25l0.18,0.00l5.37-20.25l5.08,0.00l5.37,20.25l0.18,0.00l5.05-20.25l7.44,0.00l-8.41,29.52l-7.44,0.00z"/>
		<path d="M142.57,670.48l0.00,29.52l-6.73,0.00l0.00-29.52l6.73,0.00z"/>
		<path d="M158.59,670.48l0.00,23.62l10.16,0.00l0.00,5.90l-16.89,0.00l0.00-29.52l6.73,0.00z"/>
		<path d="M183.81,670.48l0.00,23.62l10.16,0.00l0.00,5.90l-16.89,0.00l0.00-29.52l6.73,0.00z"/>
		<path d="M209.03,670.48l0.00,29.52l-6.73,0.00l0.00-29.52l6.73,0.00z"/>
		<path d="M233.31,670.48l11.92,29.52l-7.23,0.00l-2.18-5.90l-11.24,0.00l-2.18,5.90l-7.23,0.00l11.92-29.52l6.23,0.00z  M233.53,688.19l-3.29-8.59l-0.07,0.00l-3.29,8.59l6.66,0.00z"/>
		<path d="M275.78,700.00l-1.40-17.50l-0.18,0.00l-6.05,17.32l-4.01,0.00l-6.05-17.32l-0.18,0.00l-1.40,17.50l-6.73,0.00l2.65-29.52l7.16,0.00l6.55,17.03l6.55-17.03l7.16,0.00l2.65,29.52l-6.73,0.00z"/>
		<path d="M319.56,693.92c3.44,0.00,5.80-1.82,5.80-1.82l2.86,5.73s-3.29,2.72-9.70,2.72c-8.34,0.00-16.00-6.80-16.00-15.24c0.00-8.48,7.62-15.35,16.00-15.35c6.41,0.00,9.70,2.72,9.70,2.72l-2.86,5.73s-2.36-1.82-5.80-1.82c-6.76,0.00-9.73,4.72-9.73,8.66c0.00,3.97,2.97,8.70,9.73,8.70z"/>
		<path d="M334.47,685.22c0.00-8.62,6.76-15.28,14.89-15.28c8.19,0.00,14.85,6.66,14.85,15.28s-6.37,15.32-14.85,15.32c-8.73,0.00-14.89-6.69-14.89-15.32z  M341.74,685.22c0.00,4.40,2.11,8.80,7.62,8.80c5.37,0.00,7.59-4.40,7.59-8.80s-2.36-8.80-7.59-8.80c-5.19,0.00-7.62,4.40-7.62,8.80z"/>
		<path d="M378.90,681.68l0.00,18.32l-6.73,0.00l0.00-29.52l6.73,0.00l11.74,18.32l0.07,0.00l0.00-18.32l6.73,0.00l0.00,29.52l-6.73,0.00l-11.74-18.32l-0.07,0.00z"/>
		<path d="M433.43,683.47l0.00,6.41c-1.61,7.48-7.84,10.66-13.63,10.66c-7.94,0.00-14.39-6.83-14.39-15.28c0.00-8.48,6.08-15.32,14.39-15.32c5.19,0.00,8.80,1.93,11.38,5.05l-4.40,4.83c-1.72-2.76-3.97-3.79-6.58-3.79c-4.15,0.00-7.51,4.12-7.51,9.23c0.00,5.01,3.36,9.09,7.51,9.09c3.22,0.00,6.41-2.08,6.41-5.69l-6.80,0.00l0.00-5.19l13.63,0.00z"/>
		<path d="M441.40,670.48l10.56,0.00c5.47,0.00,9.63,2.97,9.63,8.77c0.00,4.44-2.43,7.41-6.05,8.55l10.16,12.20l-8.55,0.00l-9.02-11.67l0.00,11.67l-6.73,0.00l0.00-29.52z  M448.13,683.58l0.79,0.00c2.54,0.00,5.58-0.18,5.58-3.86s-3.04-3.86-5.58-3.86l-0.79,0.00l0.00,7.73z"/>
		<path d="M488.91,670.48l0.00,5.90l-10.16,0.00l0.00,5.87l9.73,0.00l0.00,5.90l-9.73,0.00l0.00,5.94l10.16,0.00l0.00,5.90l-16.89,0.00l0.00-29.52l16.89,0.00z"/>
		<path d="M507.01,700.00l-12.38-29.52l7.59,0.00l7.44,19.39l7.44-19.39l7.59,0.00l-12.38,29.52l-5.30,0.00z"/>
		<path d="M547.72,670.48l0.00,5.90l-10.16,0.00l0.00,5.87l9.73,0.00l0.00,5.90l-9.73,0.00l0.00,5.94l10.16,0.00l0.00,5.90l-16.89,0.00l0.00-29.52l16.89,0.00z"/>
		<path d="M560.66,692.34c2.29,0.00,4.12,1.82,4.12,4.12c0.00,4.33-3.08,7.84-6.01,10.27l-1.82-1.50s2.15-2.04,2.72-5.01c-1.75-0.43-3.08-1.86-3.08-3.76c0.00-2.29,1.82-4.12,4.08-4.12z"/>
		<path d="M601.69,670.48l0.00,21.18c0.00,5.80-3.29,8.87-9.20,8.87c-4.22,0.00-6.91-2.83-6.91-2.83l2.15-5.62s2.11,2.00,3.83,2.00c1.93,0.00,3.40-1.18,3.40-4.15l0.00-19.47l6.73,0.00z"/>
		<path d="M609.30,685.22c0.00-8.62,6.76-15.28,14.89-15.28c8.19,0.00,14.85,6.66,14.85,15.28s-6.37,15.32-14.85,15.32c-8.73,0.00-14.89-6.69-14.89-15.32z  M616.56,685.22c0.00,4.40,2.11,8.80,7.62,8.80c5.37,0.00,7.59-4.40,7.59-8.80s-2.36-8.80-7.59-8.80c-5.19,0.00-7.62,4.40-7.62,8.80z"/>
		<path d="M653.73,688.16l0.00,11.84l-6.73,0.00l0.00-29.52l6.73,0.00l0.00,11.77l9.52,0.00l0.00-11.77l6.73,0.00l0.00,29.52l-6.73,0.00l0.00-11.84l-9.52,0.00z"/>
		<path d="M686.00,681.68l0.00,18.32l-6.73,0.00l0.00-29.52l6.73,0.00l11.74,18.32l0.07,0.00l0.00-18.32l6.73,0.00l0.00,29.52l-6.73,0.00l-11.74-18.32l-0.07,0.00z"/>
		<path d="M727.28,685.22c0.00-8.62,6.76-15.28,14.89-15.28c8.19,0.00,14.85,6.66,14.85,15.28s-6.37,15.32-14.85,15.32c-8.73,0.00-14.89-6.69-14.89-15.32z  M734.54,685.22c0.00,4.40,2.11,8.80,7.62,8.80c5.37,0.00,7.59-4.40,7.59-8.80s-2.36-8.80-7.59-8.80c-5.19,0.00-7.62,4.40-7.62,8.80z"/>
		<path d="M789.78,670.48l-14.64,23.62l13.67,0.00l0.00,5.90l-25.41,0.00l14.60-23.62l-12.52,0.00l0.00-5.90l24.30,0.00z"/>
		<path d="M814.39,670.48l0.00,5.90l-10.16,0.00l0.00,5.87l9.73,0.00l0.00,5.90l-9.73,0.00l0.00,5.94l10.16,0.00l0.00,5.90l-16.89,0.00l0.00-29.52l16.89,0.00z"/>
		<path d="M829.98,670.48l0.00,23.62l10.16,0.00l0.00,5.90l-16.89,0.00l0.00-29.52l6.73,0.00z"/>
		<path d="M855.20,670.48l0.00,23.62l10.16,0.00l0.00,5.90l-16.89,0.00l0.00-29.52l6.73,0.00z"/>
		<path d="M877.77,692.34c2.29,0.00,4.12,1.82,4.12,4.12c0.00,4.33-3.08,7.84-6.01,10.27l-1.82-1.50s2.15-2.04,2.72-5.01c-1.75-0.43-3.08-1.86-3.08-3.76c0.00-2.29,1.82-4.12,4.08-4.12z"/>
		<path d="M902.37,676.38l0.00-5.90l20.75,0.00l0.00,5.90l-7.01,0.00l0.00,23.62l-6.73,0.00l0.00-23.62l-7.01,0.00z"/>
		<path d="M947.45,670.48l0.00,5.90l-10.16,0.00l0.00,5.87l9.73,0.00l0.00,5.90l-9.73,0.00l0.00,5.94l10.16,0.00l0.00,5.90l-16.89,0.00l0.00-29.52l16.89,0.00z"/>
		<path d="M980.71,700.00l-1.40-17.50l-0.18,0.00l-6.05,17.32l-4.01,0.00l-6.05-17.32l-0.18,0.00l-1.40,17.50l-6.73,0.00l2.65-29.52l7.16,0.00l6.55,17.03l6.55-17.03l7.16,0.00l2.65,29.52l-6.73,0.00z"/>
		<path d="M995.16,670.48l10.77,0.00c5.76,0.00,10.09,2.97,10.09,9.09c0.00,6.08-4.33,9.48-10.09,9.48l-4.04,0.00l0.00,10.95l-6.73,0.00l0.00-29.52z  M1001.89,683.68l1.90,0.00c2.65,0.00,5.15-0.89,5.15-3.90c0.00-3.04-2.50-3.94-5.15-3.94l-1.90,0.00l0.00,7.84z"/>
		<path d="M1030.72,670.48l0.00,23.62l10.16,0.00l0.00,5.90l-16.89,0.00l0.00-29.52l6.73,0.00z"/>
		<path d="M1066.10,670.48l0.00,5.90l-10.16,0.00l0.00,5.87l9.73,0.00l0.00,5.90l-9.73,0.00l0.00,5.94l10.16,0.00l0.00,5.90l-16.89,0.00l0.00-29.52l16.89,0.00z"/>
		<path d="M1099.90,669.94c5.37,0.00,9.16,2.79,9.16,2.79l-2.72,5.37s-2.93-2.04-5.98-2.04c-2.29,0.00-3.51,1.04-3.51,2.65c0.00,1.65,2.79,2.83,6.15,4.26c3.29,1.40,6.91,4.19,6.91,8.05c0.00,7.05-5.37,9.52-11.13,9.52c-6.91,0.00-11.09-3.90-11.09-3.90l3.36-5.65s3.94,3.33,7.23,3.33c1.47,0.00,4.26-0.14,4.26-2.90c0.00-2.15-3.15-3.11-6.66-4.87c-3.54-1.75-5.62-4.51-5.62-7.59c0.00-5.51,4.87-9.02,9.63-9.02z"/>
		<path d="M1114.49,676.38l0.00-5.90l20.75,0.00l0.00,5.90l-7.01,0.00l0.00,23.62l-6.73,0.00l0.00-23.62l-7.01,0.00z"/>
		<path d="M1155.95,670.48l11.92,29.52l-7.23,0.00l-2.18-5.90l-11.24,0.00l-2.18,5.90l-7.23,0.00l11.92-29.52l6.23,0.00z  M1156.17,688.19l-3.29-8.59l-0.07,0.00l-3.29,8.59l6.66,0.00z"/>
		<path d="M1180.74,681.68l0.00,18.32l-6.73,0.00l0.00-29.52l6.73,0.00l11.74,18.32l0.07,0.00l0.00-18.32l6.73,0.00l0.00,29.52l-6.73,0.00l-11.74-18.32l-0.07,0.00z"/>
		<path d="M1202.13,670.48l8.09,0.00l6.15,9.45l6.15-9.45l8.09,0.00l-10.88,16.28l0.00,13.24l-6.73,0.00l0.00-13.24z"/>
		<path d="M1248.46,670.48l11.92,29.52l-7.23,0.00l-2.18-5.90l-11.24,0.00l-2.18,5.90l-7.23,0.00l11.92-29.52l6.23,0.00z  M1248.67,688.19l-3.29-8.59l-0.07,0.00l-3.29,8.59l6.66,0.00z"/>
		<path d="M1273.25,681.68l0.00,18.32l-6.73,0.00l0.00-29.52l6.73,0.00l11.74,18.32l0.07,0.00l0.00-18.32l6.73,0.00l0.00,29.52l-6.73,0.00l-11.74-18.32l-0.07,0.00z"/>
		<path d="M1305.16,692.34c2.29,0.00,4.12,1.82,4.12,4.12c0.00,4.33-3.08,7.84-6.01,10.27l-1.82-1.50s2.15-2.04,2.72-5.01c-1.75-0.43-3.08-1.86-3.08-3.76c0.00-2.29,1.82-4.12,4.08-4.12z"/>
	</g>
	<g aria-label="ALEXANDER STOPFORD CATCOTT, NICHOLAS ROWE">
		<path d="M134.90,710.48l11.92,29.52l-7.23,0.00l-2.18-5.90l-11.24,0.00l-2.18,5.90l-7.23,0.00l11.92-29.52l6.23,0.00z  M135.12,728.19l-3.29-8.59l-0.07,0.00l-3.29,8.59l6.66,0.00z"/>
		<path d="M159.69,710.48l0.00,23.62l10.16,0.00l0.00,5.90l-16.89,0.00l0.00-29.52l6.73,0.00z"/>
		<path d="M195.07,710.48l0.00,5.90l-10.16,0.00l0.00,5.87l9.73,0.00l0.00,5.90l-9.73,0.00l0.00,5.94l10.16,0.00l0.00,5.90l-16.89,0.00l0.00-29.52l16.89,0.00z"/>
		<path d="M231.56,740.00l-8.70,0.00l-6.98-10.06l-6.98,10.06l-8.34,0.00l11.16-15.89l-9.30-13.63l8.02,0.00l5.44,8.05l5.44-8.05l8.37,0.00l-9.66,13.63z"/>
		<path d="M252.48,710.48l11.92,29.52l-7.23,0.00l-2.18-5.90l-11.24,0.00l-2.18,5.90l-7.23,0.00l11.92-29.52l6.23,0.00z  M252.70,728.19l-3.29-8.59l-0.07,0.00l-3.29,8.59l6.66,0.00z"/>
		<path d="M277.27,721.68l0.00,18.32l-6.73,0.00l0.00-29.52l6.73,0.00l11.74,18.32l0.07,0.00l0.00-18.32l6.73,0.00l0.00,29.52l-6.73,0.00l-11.74-18.32l-0.07,0.00z"/>
		<path d="M305.10,710.48l8.55,0.00c8.09,0.00,14.89,6.15,14.89,14.74c0.00,8.62-6.76,14.78-14.89,14.78l-8.55,0.00l0.00-29.52z  M311.83,733.99l1.04,0.00c4.97,0.00,8.37-3.79,8.41-8.73c0.00-4.94-3.40-8.77-8.41-8.77l-1.04,0.00l0.00,17.50z"/>
		<path d="M353.40,710.48l0.00,5.90l-10.16,0.00l0.00,5.87l9.73,0.00l0.00,5.90l-9.73,0.00l0.00,5.94l10.16,0.00l0.00,5.90l-16.89,0.00l0.00-29.52l16.89,0.00z"/>
		<path d="M362.27,710.48l10.56,0.00c5.47,0.00,9.63,2.97,9.63,8.77c0.00,4.44-2.43,7.41-6.05,8.55l10.16,12.20l-8.55,0.00l-9.02-11.67l0.00,11.67l-6.73,0.00l0.00-29.52z  M368.99,723.58l0.79,0.00c2.54,0.00,5.58-0.18,5.58-3.86s-3.04-3.86-5.58-3.86l-0.79,0.00l0.00,7.73z"/>
		<path d="M417.82,709.94c5.37,0.00,9.16,2.79,9.16,2.79l-2.72,5.37s-2.93-2.04-5.98-2.04c-2.29,0.00-3.51,1.04-3.51,2.65c0.00,1.65,2.79,2.83,6.15,4.26c3.29,1.40,6.91,4.19,6.91,8.05c0.00,7.05-5.37,9.52-11.13,9.52c-6.91,0.00-11.09-3.90-11.09-3.90l3.36-5.65s3.94,3.33,7.23,3.33c1.47,0.00,4.26-0.14,4.26-2.90c0.00-2.15-3.15-3.11-6.66-4.87c-3.54-1.75-5.62-4.51-5.62-7.59c0.00-5.51,4.87-9.02,9.63-9.02z"/>
		<path d="M432.41,716.38l0.00-5.90l20.75,0.00l0.00,5.90l-7.01,0.00l0.00,23.62l-6.73,0.00l0.00-23.62l-7.01,0.00z"/>
		<path d="M458.13,725.22c0.00-8.62,6.76-15.28,14.89-15.28c8.19,0.00,14.85,6.66,14.85,15.28s-6.37,15.32-14.85,15.32c-8.73,0.00-14.89-6.69-14.89-15.32z  M465.39,725.22c0.00,4.40,2.11,8.80,7.62,8.80c5.37,0.00,7.59-4.40,7.59-8.80s-2.36-8.80-7.59-8.80c-5.19,0.00-7.62,4.40-7.62,8.80z"/>
		<path d="M495.83,710.48l10.77,0.00c5.76,0.00,10.09,2.97,10.09,9.09c0.00,6.08-4.33,9.48-10.09,9.48l-4.04,0.00l0.00,10.95l-6.73,0.00l0.00-29.52z  M502.56,723.68l1.90,0.00c2.65,0.00,5.15-0.89,5.15-3.90c0.00-3.04-2.50-3.94-5.15-3.94l-1.90,0.00l0.00,7.84z"/>
		<path d="M541.73,710.48l0.00,5.90l-10.34,0.00l0.00,5.87l9.55,0.00l0.00,5.90l-9.55,0.00l0.00,11.84l-6.73,0.00l0.00-29.52l17.07,0.00z"/>
		<path d="M548.63,725.22c0.00-8.62,6.76-15.28,14.89-15.28c8.19,0.00,14.85,6.66,14.85,15.28s-6.37,15.32-14.85,15.32c-8.73,0.00-14.89-6.69-14.89-15.32z  M555.89,725.22c0.00,4.40,2.11,8.80,7.62,8.80c5.37,0.00,7.59-4.40,7.59-8.80s-2.36-8.80-7.59-8.80c-5.19,0.00-7.62,4.40-7.62,8.80z"/>
		<path d="M586.34,710.48l10.56,0.00c5.47,0.00,9.63,2.97,9.63,8.77c0.00,4.44-2.43,7.41-6.05,8.55l10.16,12.20l-8.55,0.00l-9.02-11.67l0.00,11.67l-6.73,0.00l0.00-29.52z  M593.06,723.58l0.79,0.00c2.54,0.00,5.58-0.18,5.58-3.86s-3.04-3.86-5.58-3.86l-0.79,0.00l0.00,7.73z"/>
		<path d="M616.96,710.48l8.55,0.00c8.09,0.00,14.89,6.15,14.89,14.74c0.00,8.62-6.76,14.78-14.89,14.78l-8.55,0.00l0.00-29.52z  M623.68,733.99l1.04,0.00c4.97,0.00,8.37-3.79,8.41-8.73c0.00-4.94-3.40-8.77-8.41-8.77l-1.04,0.00l0.00,17.50z"/>
		<path d="M677.70,733.92c3.44,0.00,5.80-1.82,5.80-1.82l2.86,5.73s-3.29,2.72-9.70,2.72c-8.34,0.00-16.00-6.80-16.00-15.24c0.00-8.48,7.62-15.35,16.00-15.35c6.41,0.00,9.70,2.72,9.70,2.72l-2.86,5.73s-2.36-1.82-5.80-1.82c-6.76,0.00-9.73,4.72-9.73,8.66c0.00,3.97,2.97,8.70,9.73,8.70z"/>
		<path d="M708.93,710.48l11.92,29.52l-7.23,0.00l-2.18-5.90l-11.24,0.00l-2.18,5.90l-7.23,0.00l11.92-29.52l6.23,0.00z  M709.14,728.19l-3.29-8.59l-0.07,0.00l-3.29,8.59l6.66,0.00z"/>
		<path d="M723.41,716.38l0.00-5.90l20.75,0.00l0.00,5.90l-7.01,0.00l0.00,23.62l-6.73,0.00l0.00-23.62l-7.01,0.00z"/>
		<path d="M766.16,733.92c3.44,0.00,5.80-1.82,5.80-1.82l2.86,5.73s-3.29,2.72-9.70,2.72c-8.34,0.00-16.00-6.80-16.00-15.24c0.00-8.48,7.62-15.35,16.00-15.35c6.41,0.00,9.70,2.72,9.70,2.72l-2.86,5.73s-2.36-1.82-5.80-1.82c-6.76,0.00-9.73,4.72-9.73,8.66c0.00,3.97,2.97,8.70,9.73,8.70z"/>
		<path d="M781.07,725.22c0.00-8.62,6.76-15.28,14.89-15.28c8.19,0.00,14.85,6.66,14.85,15.28s-6.37,15.32-14.85,15.32c-8.73,0.00-14.89-6.69-14.89-15.32z  M788.34,725.22c0.00,4.40,2.11,8.80,7.62,8.80c5.37,0.00,7.59-4.40,7.59-8.80s-2.36-8.80-7.59-8.80c-5.19,0.00-7.62,4.40-7.62,8.80z"/>
		<path d="M815.77,716.38l0.00-5.90l20.75,0.00l0.00,5.90l-7.01,0.00l0.00,23.62l-6.73,0.00l0.00-23.62l-7.01,0.00z"/>
		<path d="M842.60,716.38l0.00-5.90l20.75,0.00l0.00,5.90l-7.01,0.00l0.00,23.62l-6.73,0.00l0.00-23.62l-7.01,0.00z"/>
		<path d="M872.54,732.34c2.29,0.00,4.12,1.82,4.12,4.12c0.00,4.33-3.08,7.84-6.01,10.27l-1.82-1.50s2.15-2.04,2.72-5.01c-1.75-0.43-3.08-1.86-3.08-3.76c0.00-2.29,1.82-4.12,4.08-4.12z"/>
		<path d="M907.45,721.68l0.00,18.32l-6.73,0.00l0.00-29.52l6.73,0.00l11.74,18.32l0.07,0.00l0.00-18.32l6.73,0.00l0.00,29.52l-6.73,0.00l-11.74-18.32l-0.07,0.00z"/>
		<path d="M942.01,710.48l0.00,29.52l-6.73,0.00l0.00-29.52l6.73,0.00z"/>
		<path d="M965.86,733.92c3.44,0.00,5.80-1.82,5.80-1.82l2.86,5.73s-3.29,2.72-9.70,2.72c-8.34,0.00-16.00-6.80-16.00-15.24c0.00-8.48,7.62-15.35,16.00-15.35c6.41,0.00,9.70,2.72,9.70,2.72l-2.86,5.73s-2.36-1.82-5.80-1.82c-6.76,0.00-9.73,4.72-9.73,8.66c0.00,3.97,2.97,8.70,9.73,8.70z"/>
		<path d="M988.83,728.16l0.00,11.84l-6.73,0.00l0.00-29.52l6.73,0.00l0.00,11.77l9.52,0.00l0.00-11.77l6.73,0.00l0.00,29.52l-6.73,0.00l0.00-11.84l-9.52,0.00z"/>
		<path d="M1013.04,725.22c0.00-8.62,6.76-15.28,14.89-15.28c8.19,0.00,14.85,6.66,14.85,15.28s-6.37,15.32-14.85,15.32c-8.73,0.00-14.89-6.69-14.89-15.32z  M1020.31,725.22c0.00,4.40,2.11,8.80,7.62,8.80c5.37,0.00,7.59-4.40,7.59-8.80s-2.36-8.80-7.59-8.80c-5.19,0.00-7.62,4.40-7.62,8.80z"/>
		<path d="M1057.48,710.48l0.00,23.62l10.16,0.00l0.00,5.90l-16.89,0.00l0.00-29.52l6.73,0.00z"/>
		<path d="M1091.50,710.48l11.92,29.52l-7.23,0.00l-2.18-5.90l-11.24,0.00l-2.18,5.90l-7.23,0.00l11.92-29.52l6.23,0.00z  M1091.71,728.19l-3.29-8.59l-0.07,0.00l-3.29,8.59l6.66,0.00z"/>
		<path d="M1119.72,709.94c5.37,0.00,9.16,2.79,9.16,2.79l-2.72,5.37s-2.93-2.04-5.98-2.04c-2.29,0.00-3.51,1.04-3.51,2.65c0.00,1.65,2.79,2.83,6.15,4.26c3.29,1.40,6.91,4.19,6.91,8.05c0.00,7.05-5.37,9.52-11.13,9.52c-6.91,0.00-11.09-3.90-11.09-3.90l3.36-5.65s3.94,3.33,7.23,3.33c1.47,0.00,4.26-0.14,4.26-2.90c0.00-2.15-3.15-3.11-6.66-4.87c-3.54-1.75-5.62-4.51-5.62-7.59c0.00-5.51,4.87-9.02,9.63-9.02z"/>
		<path d="M1152.66,710.48l10.56,0.00c5.47,0.00,9.63,2.97,9.63,8.77c0.00,4.44-2.43,7.41-6.05,8.55l10.16,12.20l-8.55,0.00l-9.02-11.67l0.00,11.67l-6.73,0.00l0.00-29.52z  M1159.39,723.58l0.79,0.00c2.54,0.00,5.58-0.18,5.58-3.86s-3.04-3.86-5.58-3.86l-0.79,0.00l0.00,7.73z"/>
		<path d="M1181.96,725.22c0.00-8.62,6.76-15.28,14.89-15.28c8.19,0.00,14.85,6.66,14.85,15.28s-6.37,15.32-14.85,15.32c-8.73,0.00-14.89-6.69-14.89-15.32z  M1189.22,725.22c0.00,4.40,2.11,8.80,7.62,8.80c5.37,0.00,7.59-4.40,7.59-8.80s-2.36-8.80-7.59-8.80c-5.19,0.00-7.62,4.40-7.62,8.80z"/>
		<path d="M1241.17,740.00l-4.72-16.57l-4.72,16.57l-7.48,0.00l-8.41-29.52l7.48,0.00l5.05,20.25l0.18,0.00l5.37-20.25l5.08,0.00l5.37,20.25l0.18,0.00l5.05-20.25l7.44,0.00l-8.41,29.52l-7.44,0.00z"/>
		<path d="M1280.52,710.48l0.00,5.90l-10.16,0.00l0.00,5.87l9.73,0.00l0.00,5.90l-9.73,0.00l0.00,5.94l10.16,0.00l0.00,5.90l-16.89,0.00l0.00-29.52l16.89,0.00z"/>
	</g>
	<g aria-label="SAMUEL GARTH, AND LEONARD WELSTED">
		<path d="M247.78,749.94c5.37,0.00,9.16,2.79,9.16,2.79l-2.72,5.37s-2.93-2.04-5.98-2.04c-2.29,0.00-3.51,1.04-3.51,2.65c0.00,1.65,2.79,2.83,6.15,4.26c3.29,1.40,6.91,4.19,6.91,8.05c0.00,7.05-5.37,9.52-11.13,9.52c-6.91,0.00-11.09-3.90-11.09-3.90l3.36-5.65s3.94,3.33,7.23,3.33c1.47,0.00,4.26-0.14,4.26-2.90c0.00-2.15-3.15-3.11-6.66-4.87c-3.54-1.75-5.62-4.51-5.62-7.59c0.00-5.51,4.87-9.02,9.63-9.02z"/>
		<path d="M280.94,750.48l11.92,29.52l-7.23,0.00l-2.18-5.90l-11.24,0.00l-2.18,5.90l-7.23,0.00l11.92-29.52l6.23,0.00z  M281.16,768.19l-3.29-8.59l-0.07,0.00l-3.29,8.59l6.66,0.00z"/>
		<path d="M323.41,780.00l-1.40-17.50l-0.18,0.00l-6.05,17.32l-4.01,0.00l-6.05-17.32l-0.18,0.00l-1.40,17.50l-6.73,0.00l2.65-29.52l7.16,0.00l6.55,17.03l6.55-17.03l7.16,0.00l2.65,29.52l-6.73,0.00z"/>
		<path d="M360.54,750.48l0.00,19.04c0.00,7.30-4.01,11.02-11.52,11.02s-11.52-3.72-11.52-11.02l0.00-19.04l6.73,0.00l0.00,17.07c0.00,4.94,1.50,6.37,4.80,6.37s4.80-1.43,4.80-6.37l0.00-17.07l6.73,0.00z"/>
		<path d="M386.37,750.48l0.00,5.90l-10.16,0.00l0.00,5.87l9.73,0.00l0.00,5.90l-9.73,0.00l0.00,5.94l10.16,0.00l0.00,5.90l-16.89,0.00l0.00-29.52l16.89,0.00z"/>
		<path d="M401.96,750.48l0.00,23.62l10.16,0.00l0.00,5.90l-16.89,0.00l0.00-29.52l6.73,0.00z"/>
		<path d="M461.91,763.47l0.00,6.41c-1.61,7.48-7.84,10.66-13.63,10.66c-7.94,0.00-14.39-6.83-14.39-15.28c0.00-8.48,6.08-15.32,14.39-15.32c5.19,0.00,8.80,1.93,11.38,5.05l-4.40,4.83c-1.72-2.76-3.97-3.79-6.58-3.79c-4.15,0.00-7.51,4.12-7.51,9.23c0.00,5.01,3.36,9.09,7.51,9.09c3.22,0.00,6.41-2.08,6.41-5.69l-6.80,0.00l0.00-5.19l13.63,0.00z"/>
		<path d="M484.87,750.48l11.92,29.52l-7.23,0.00l-2.18-5.90l-11.24,0.00l-2.18,5.90l-7.23,0.00l11.92-29.52l6.23,0.00z  M485.09,768.19l-3.29-8.59l-0.07,0.00l-3.29,8.59l6.66,0.00z"/>
		<path d="M502.94,750.48l10.56,0.00c5.47,0.00,9.63,2.97,9.63,8.77c0.00,4.44-2.43,7.41-6.05,8.55l10.16,12.20l-8.55,0.00l-9.02-11.67l0.00,11.67l-6.73,0.00l0.00-29.52z  M509.66,763.58l0.79,0.00c2.54,0.00,5.58-0.18,5.58-3.86s-3.04-3.86-5.58-3.86l-0.79,0.00l0.00,7.73z"/>
		<path d="M530.26,756.38l0.00-5.90l20.75,0.00l0.00,5.90l-7.01,0.00l0.00,23.62l-6.73,0.00l0.00-23.62l-7.01,0.00z"/>
		<path d="M565.18,768.16l0.00,11.84l-6.73,0.00l0.00-29.52l6.73,0.00l0.00,11.77l9.52,0.00l0.00-11.77l6.73,0.00l0.00,29.52l-6.73,0.00l0.00-11.84l-9.52,0.00z"/>
		<path d="M594.80,772.34c2.29,0.00,4.12,1.82,4.12,4.12c0.00,4.33-3.08,7.84-6.01,10.27l-1.82-1.50s2.15-2.04,2.72-5.01c-1.75-0.43-3.08-1.86-3.08-3.76c0.00-2.29,1.82-4.12,4.08-4.12z"/>
		<path d="M637.97,750.48l11.92,29.52l-7.23,0.00l-2.18-5.90l-11.24,0.00l-2.18,5.90l-7.23,0.00l11.92-29.52l6.23,0.00z  M638.19,768.19l-3.29-8.59l-0.07,0.00l-3.29,8.59l6.66,0.00z"/>
		<path d="M662.76,761.68l0.00,18.32l-6.73,0.00l0.00-29.52l6.73,0.00l11.74,18.32l0.07,0.00l0.00-18.32l6.73,0.00l0.00,29.52l-6.73,0.00l-11.74-18.32l-0.07,0.00z"/>
		<path d="M690.59,750.48l8.55,0.00c8.09,0.00,14.89,6.15,14.89,14.74c0.00,8.62-6.76,14.78-14.89,14.78l-8.55,0.00l0.00-29.52z  M697.32,773.99l1.04,0.00c4.97,0.00,8.37-3.79,8.41-8.73c0.00-4.94-3.40-8.77-8.41-8.77l-1.04,0.00l0.00,17.50z"/>
		<path d="M743.49,750.48l0.00,23.62l10.16,0.00l0.00,5.90l-16.89,0.00l0.00-29.52l6.73,0.00z"/>
		<path d="M778.87,750.48l0.00,5.90l-10.16,0.00l0.00,5.87l9.73,0.00l0.00,5.90l-9.73,0.00l0.00,5.94l10.16,0.00l0.00,5.90l-16.89,0.00l0.00-29.52l16.89,0.00z"/>
		<path d="M786.41,765.22c0.00-8.62,6.76-15.28,14.89-15.28c8.19,0.00,14.85,6.66,14.85,15.28s-6.37,15.32-14.85,15.32c-8.73,0.00-14.89-6.69-14.89-15.32z  M793.68,765.22c0.00,4.40,2.11,8.80,7.62,8.80c5.37,0.00,7.59-4.40,7.59-8.80s-2.36-8.80-7.59-8.80c-5.19,0.00-7.62,4.40-7.62,8.80z"/>
		<path d="M830.85,761.68l0.00,18.32l-6.73,0.00l0.00-29.52l6.73,0.00l11.74,18.32l0.07,0.00l0.00-18.32l6.73,0.00l0.00,29.52l-6.73,0.00l-11.74-18.32l-0.07,0.00z"/>
		<path d="M873.67,750.48l11.92,29.52l-7.23,0.00l-2.18-5.90l-11.24,0.00l-2.18,5.90l-7.23,0.00l11.92-29.52l6.23,0.00z  M873.89,768.19l-3.29-8.59l-0.07,0.00l-3.29,8.59l6.66,0.00z"/>
		<path d="M891.73,750.48l10.56,0.00c5.47,0.00,9.63,2.97,9.63,8.77c0.00,4.44-2.43,7.41-6.05,8.55l10.16,12.20l-8.55,0.00l-9.02-11.67l0.00,11.67l-6.73,0.00l0.00-29.52z  M898.46,763.58l0.79,0.00c2.54,0.00,5.58-0.18,5.58-3.86s-3.04-3.86-5.58-3.86l-0.79,0.00l0.00,7.73z"/>
		<path d="M922.35,750.48l8.55,0.00c8.09,0.00,14.89,6.15,14.89,14.74c0.00,8.62-6.76,14.78-14.89,14.78l-8.55,0.00l0.00-29.52z  M929.08,773.99l1.04,0.00c4.97,0.00,8.37-3.79,8.41-8.73c0.00-4.94-3.40-8.77-8.41-8.77l-1.04,0.00l0.00,17.50z"/>
		<path d="M988.14,780.00l-4.72-16.57l-4.72,16.57l-7.48,0.00l-8.41-29.52l7.48,0.00l5.05,20.25l0.18,0.00l5.37-20.25l5.08,0.00l5.37,20.25l0.18,0.00l5.05-20.25l7.44,0.00l-8.41,29.52l-7.44,0.00z"/>
		<path d="M1027.49,750.48l0.00,5.90l-10.16,0.00l0.00,5.87l9.73,0.00l0.00,5.90l-9.73,0.00l0.00,5.94l10.16,0.00l0.00,5.90l-16.89,0.00l0.00-29.52l16.89,0.00z"/>
		<path d="M1043.08,750.48l0.00,23.62l10.16,0.00l0.00,5.90l-16.89,0.00l0.00-29.52l6.73,0.00z"/>
		<path d="M1072.45,749.94c5.37,0.00,9.16,2.79,9.16,2.79l-2.72,5.37s-2.93-2.04-5.98-2.04c-2.29,0.00-3.51,1.04-3.51,2.65c0.00,1.65,2.79,2.83,6.15,4.26c3.29,1.40,6.91,4.19,6.91,8.05c0.00,7.05-5.37,9.52-11.13,9.52c-6.91,0.00-11.09-3.90-11.09-3.90l3.36-5.65s3.94,3.33,7.23,3.33c1.47,0.00,4.26-0.14,4.26-2.90c0.00-2.15-3.15-3.11-6.66-4.87c-3.54-1.75-5.62-4.51-5.62-7.59c0.00-5.51,4.87-9.02,9.63-9.02z"/>
		<path d="M1087.04,756.38l0.00-5.90l20.75,0.00l0.00,5.90l-7.01,0.00l0.00,23.62l-6.73,0.00l0.00-23.62l-7.01,0.00z"/>
		<path d="M1132.12,750.48l0.00,5.90l-10.16,0.00l0.00,5.87l9.73,0.00l0.00,5.90l-9.73,0.00l0.00,5.94l10.16,0.00l0.00,5.90l-16.89,0.00l0.00-29.52l16.89,0.00z"/>
		<path d="M1140.99,750.48l8.55,0.00c8.09,0.00,14.89,6.15,14.89,14.74c0.00,8.62-6.76,14.78-14.89,14.78l-8.55,0.00l0.00-29.52z  M1147.71,773.99l1.04,0.00c4.97,0.00,8.37-3.79,8.41-8.73c0.00-4.94-3.40-8.77-8.41-8.77l-1.04,0.00l0.00,17.50z"/>
	</g>
</svg>
