<?xml version="1.0" encoding="utf-8"?>
<svg xmlns="http://www.w3.org/2000/svg" version="1.1" viewBox="0 0 1400 950">
	<title>The titlepage for the Standard Ebooks edition of Metamorphoses, by Ovid. Translated by John Dryden, Joseph Addison, Laurence Eusden, Arthur Maynwaring, Samuel Croxall, Nahum Tate, William Stonestreet, Thomas Vernon, John Gay, Alexander Pope, Stephen Harvey, William Congreve, John Ozell, Temple Stanyan, Alexander Stopford Catcott, Nicholas Rowe, Samuel Garth, and Leonard Welsted.</title>
	<g aria-label="METAMORPHOSES">
		<path d="M289.09,130.00l-3.65-45.75l-0.47,0.00l-15.81,45.29l-10.48,0.00l-15.81-45.29l-0.47,0.00l-3.65,45.75l-17.59,0.00l6.92-77.19l18.71,0.00l17.12,44.54l17.12-44.54l18.71,0.00l6.92,77.19l-17.59,0.00z"/>
		<path d="M362.95,52.81l0.00,15.44l-26.57,0.00l0.00,15.35l25.45,0.00l0.00,15.44l-25.45,0.00l0.00,15.53l26.57,0.00l0.00,15.44l-44.16,0.00l0.00-77.19l44.16,0.00z"/>
		<path d="M373.19,68.25l0.00-15.44l54.27,0.00l0.00,15.44l-18.34,0.00l0.00,61.75l-17.59,0.00l0.00-61.75l-18.34,0.00z"/>
		<path d="M473.54,52.81l31.16,77.19l-18.90,0.00l-5.71-15.44l-29.38,0.00l-5.71,15.44l-18.90,0.00l31.16-77.19l16.28,0.00z  M474.10,99.12l-8.61-22.46l-0.19,0.00l-8.61,22.46l17.40,0.00z"/>
		<path d="M576.50,130.00l-3.65-45.75l-0.47,0.00l-15.81,45.29l-10.48,0.00l-15.81-45.29l-0.47,0.00l-3.65,45.75l-17.59,0.00l6.92-77.19l18.71,0.00l17.12,44.54l17.12-44.54l18.71,0.00l6.92,77.19l-17.59,0.00z"/>
		<path d="M602.74,91.36c0.00-22.55,17.68-39.95,38.92-39.95c21.43,0.00,38.83,17.40,38.83,39.95s-16.65,40.05-38.83,40.05c-22.83,0.00-38.92-17.50-38.92-40.05z  M621.74,91.36c0.00,11.51,5.52,23.02,19.93,23.02c14.04,0.00,19.84-11.51,19.84-23.02s-6.18-23.02-19.84-23.02c-13.57,0.00-19.93,11.51-19.93,23.02z"/>
		<path d="M693.26,52.81l27.60,0.00c14.32,0.00,25.17,7.77,25.17,22.92c0.00,11.60-6.36,19.37-15.81,22.36l26.57,31.91l-22.36,0.00l-23.58-30.50l0.00,30.50l-17.59,0.00l0.00-77.19z  M710.85,87.05l2.06,0.00c6.64,0.00,14.60-0.47,14.60-10.11s-7.95-10.11-14.60-10.11l-2.06,0.00l0.00,20.21z"/>
		<path d="M765.26,52.81l28.16,0.00c15.06,0.00,26.39,7.77,26.39,23.77c0.00,15.91-11.32,24.80-26.39,24.80l-10.57,0.00l0.00,28.63l-17.59,0.00l0.00-77.19z  M782.85,87.33l4.96,0.00c6.92,0.00,13.47-2.34,13.47-10.20c0.00-7.95-6.55-10.29-13.47-10.29l-4.96,0.00l0.00,20.49z"/>
		<path d="M850.16,99.03l0.00,30.97l-17.59,0.00l0.00-77.19l17.59,0.00l0.00,30.78l24.89,0.00l0.00-30.78l17.59,0.00l0.00,77.19l-17.59,0.00l0.00-30.97l-24.89,0.00z"/>
		<path d="M905.41,91.36c0.00-22.55,17.68-39.95,38.92-39.95c21.43,0.00,38.83,17.40,38.83,39.95s-16.65,40.05-38.83,40.05c-22.83,0.00-38.92-17.50-38.92-40.05z  M924.40,91.36c0.00,11.51,5.52,23.02,19.93,23.02c14.04,0.00,19.84-11.51,19.84-23.02s-6.18-23.02-19.84-23.02c-13.57,0.00-19.93,11.51-19.93,23.02z"/>
		<path d="M1024.37,51.40c14.04,0.00,23.95,7.30,23.95,7.30l-7.11,14.04s-7.67-5.33-15.63-5.33c-5.99,0.00-9.17,2.71-9.17,6.92c0.00,4.30,7.30,7.39,16.09,11.13c8.61,3.65,18.06,10.95,18.06,21.05c0.00,18.43-14.04,24.89-29.10,24.89c-18.06,0.00-29.01-10.20-29.01-10.20l8.80-14.78s10.29,8.70,18.90,8.70c3.84,0.00,11.13-0.37,11.13-7.58c0.00-5.61-8.23-8.14-17.40-12.73c-9.26-4.58-14.69-11.79-14.69-19.84c0.00-14.41,12.73-23.58,25.17-23.58z"/>
		<path d="M1107.97,52.81l0.00,15.44l-26.57,0.00l0.00,15.35l25.45,0.00l0.00,15.44l-25.45,0.00l0.00,15.53l26.57,0.00l0.00,15.44l-44.16,0.00l0.00-77.19l44.16,0.00z"/>
		<path d="M1151.52,51.40c14.04,0.00,23.95,7.30,23.95,7.30l-7.11,14.04s-7.67-5.33-15.63-5.33c-5.99,0.00-9.17,2.71-9.17,6.92c0.00,4.30,7.30,7.39,16.09,11.13c8.61,3.65,18.06,10.95,18.06,21.05c0.00,18.43-14.04,24.89-29.10,24.89c-18.06,0.00-29.01-10.20-29.01-10.20l8.80-14.78s10.29,8.70,18.90,8.70c3.84,0.00,11.13-0.37,11.13-7.58c0.00-5.61-8.23-8.14-17.40-12.73c-9.26-4.58-14.69-11.79-14.69-19.84c0.00-14.41,12.73-23.58,25.17-23.58z"/>
	</g>
	<g aria-label="OVID">
		<path d="M600.25,261.02c0.00-16.91,13.26-29.96,29.19-29.96c16.07,0.00,29.12,13.05,29.12,29.96s-12.49,30.04-29.12,30.04c-17.12,0.00-29.19-13.12-29.19-30.04z  M614.50,261.02c0.00,8.63,4.14,17.26,14.95,17.26c10.53,0.00,14.88-8.63,14.88-17.26s-4.63-17.26-14.88-17.26c-10.18,0.00-14.95,8.63-14.95,17.26z"/>
		<path d="M685.25,290.00l-24.28-57.89l14.88,0.00l14.60,38.04l14.60-38.04l14.88,0.00l-24.28,57.89l-10.39,0.00z"/>
		<path d="M740.36,232.11l0.00,57.89l-13.19,0.00l0.00-57.89l13.19,0.00z"/>
		<path d="M753.78,232.11l16.77,0.00c15.86,0.00,29.19,12.07,29.19,28.91c0.00,16.91-13.26,28.98-29.19,28.98l-16.77,0.00l0.00-57.89z  M766.97,278.21l2.04,0.00c9.75,0.00,16.42-7.44,16.49-17.12c0.00-9.68-6.67-17.19-16.49-17.19l-2.04,0.00l0.00,34.32z"/>
	</g>
	<g aria-label="translated by">
		<path d="M594.73,463.42c0.00-0.85,1.62-0.81,3.49-2.76c1.70-1.79,1.79-2.34,2.47-2.34c0.21,0.00,0.43,0.13,0.43,0.51c0.00,0.55-0.77,2.55-0.77,3.19c0.00,0.26,0.09,0.30,1.49,0.30c1.66,0.00,2.00-0.04,2.47-0.04c0.89,0.00,1.11,0.30,1.11,0.81c0.00,0.98-0.26,1.23-1.02,1.23c-0.68,0.00-2.51-0.21-3.44-0.21c-1.23,0.00-1.11,0.77-1.36,2.51c-0.38,2.64-1.36,8.16-1.36,8.84c0.00,2.25,1.57,2.34,1.74,2.34c2.34,0.00,3.32-1.87,4.00-1.87c0.13,0.00,0.47,0.00,0.47,0.60c0.00,1.11-3.61,4.00-6.25,4.00c-1.15,0.00-2.72-0.68-2.72-4.00c0.00-3.91,1.79-10.80,1.79-11.94c0.00-0.89-2.51,0.04-2.51-1.15z"/>
		<path d="M606.84,467.42c0.00-4.85,3.61-5.87,4.00-5.87c0.89,0.00,1.32,0.81,1.57,1.49c1.06,2.76,1.11,2.81,1.19,2.81c0.30,0.00,2.42-4.38,5.57-4.38c1.11,0.00,1.57,0.72,1.57,1.32c0.00,0.55-0.34,1.11-0.47,1.57c-0.09,0.30-0.17,1.62-0.94,1.62c-0.94,0.00-0.77-1.79-2.30-1.79c-1.91,0.00-2.98,5.57-3.19,7.35l-0.21,1.40c-0.94,7.23-0.85,7.23-2.38,7.23l-0.21,0.00c-0.43,0.00-1.28-0.09-1.28-1.11c0.00-1.70,1.83-7.95,1.83-11.14c0.00-2.13-0.68-2.89-1.45-2.89c-1.74,0.00-2.08,2.55-2.34,2.85c-0.13,0.13-0.26,0.26-0.47,0.26c-0.17,0.00-0.51-0.13-0.51-0.72z"/>
		<path d="M620.45,475.15c0.00-2.38,1.06-4.80,2.38-6.93c1.53-2.42,3.49-4.46,5.74-5.53c1.15-0.55,2.00-0.77,3.10-0.77c1.32,0.00,2.21,0.47,3.61,0.47c0.85,0.00,1.36-2.08,2.21-2.08c0.26,0.00,0.47,0.17,0.47,0.64c0.00,0.68-0.55,1.70-0.85,2.93c-0.38,1.57-0.64,3.53-0.98,5.44c-0.34,1.87-0.77,3.83-0.77,5.44c0.00,1.11,0.64,2.51,1.45,2.51c1.40,0.00,2.30-2.76,3.10-2.76c0.34,0.00,0.38,0.30,0.38,0.47c0.00,0.43-0.21,1.06-0.77,1.83c-1.06,1.53-2.98,3.49-4.12,3.49c-2.72,0.00-2.34-4.76-2.64-4.76c-0.21,0.00-3.74,5.10-7.78,5.10s-4.55-2.72-4.55-5.48z  M623.42,474.90c0.00,2.13,1.53,3.40,3.32,3.40c3.06,0.00,5.06-3.06,5.44-3.83c1.02-2.04,2.17-9.86,2.17-9.99c0.00-1.19-1.91-1.49-2.81-1.49c-1.74,0.00-4.00,1.28-5.27,3.44c-1.23,2.04-2.25,3.95-2.64,6.16c-0.13,0.77-0.21,1.53-0.21,2.30z"/>
		<path d="M641.70,466.35c0.00-1.66,2.55-4.85,4.17-4.85c2.47,0.00,1.57,4.46,1.96,4.46c0.26,0.00,0.55-0.94,2.13-2.13c1.15-0.89,3.40-2.42,5.19-2.42c2.98,0.00,3.57,2.64,3.57,5.31c0.00,2.98-0.72,7.48-0.72,8.93c0.00,1.19,0.34,1.53,0.81,1.53c0.72,0.00,1.70-0.94,1.70-0.94c0.51-0.64,0.68-1.15,1.32-1.15c0.30,0.00,0.38,0.26,0.38,0.51c0.00,1.66-3.74,4.63-5.61,4.63c-0.85,0.00-1.57-1.19-1.57-2.68c0.00-3.23,0.89-8.93,0.89-10.50c0.00-0.68-0.21-3.49-2.98-3.49c-0.98,0.00-1.79,0.47-2.76,1.87c-1.83,2.59-1.32,2.21-2.34,7.69c-1.06,5.74-0.77,5.23-0.85,5.82c-0.13,0.94-0.47,1.11-1.57,1.11c-1.15,0.00-1.49-0.09-1.49-1.32c0.00-1.79,1.87-8.37,1.87-11.65c0.00-1.49-0.55-2.34-0.98-2.34c-1.32,0.00-1.79,2.38-2.72,2.38c-0.30,0.00-0.38-0.34-0.38-0.81z"/>
		<path d="M663.68,477.70c0.00-1.32,0.85-1.53,1.36-1.53c2.17,0.00,1.45,2.93,4.04,2.93c3.10,0.00,3.40-2.21,3.40-2.72c0.00-2.00-1.40-3.23-2.93-4.76c-1.70-1.74-3.32-2.85-3.32-5.40c0.00-2.85,2.47-4.80,5.78-4.80c2.30,0.00,3.95,0.55,3.95,2.21c0.00,1.32-1.40,1.45-1.62,1.45c-1.53,0.00-1.70-2.38-3.36-2.38c-1.62,0.00-2.25,0.98-2.25,2.25c0.00,1.62,2.34,3.36,3.36,4.46c1.32,1.49,2.93,2.68,2.93,5.53c0.00,1.53-1.19,5.57-6.63,5.57c-1.66,0.00-4.72-0.55-4.72-2.81z"/>
		<path d="M678.72,476.34c0.00-2.42,1.11-7.44,1.19-8.12c0.38-2.68,0.60-5.70,1.02-8.42c0.72-4.59,1.36-8.42,1.36-8.93s-0.43-0.85-1.06-0.85s-0.72,0.04-1.23,0.04c-0.85,0.00-1.23-0.13-1.23-0.60c0.00-0.21,0.09-0.55,0.64-0.60c3.10-0.21,4.04-0.64,5.14-0.64c0.68,0.00,0.89,0.26,0.89,0.68c0.00,0.60-0.30,1.15-0.43,1.96c-1.57,8.25-0.85,6.67-2.21,15.81c-0.72,5.02-1.23,7.69-1.23,9.14s0.13,1.66,0.68,1.66c2.34,0.00,2.76-3.02,3.87-3.02c0.30,0.00,0.51,0.26,0.51,0.68s-1.11,1.87-2.13,3.06c-1.11,1.28-2.89,2.13-3.70,2.13c-0.85,0.00-2.08,0.00-2.08-4.00z"/>
		<path d="M689.22,475.15c0.00-2.38,1.06-4.80,2.38-6.93c1.53-2.42,3.49-4.46,5.74-5.53c1.15-0.55,2.00-0.77,3.10-0.77c1.32,0.00,2.21,0.47,3.61,0.47c0.85,0.00,1.36-2.08,2.21-2.08c0.26,0.00,0.47,0.17,0.47,0.64c0.00,0.68-0.55,1.70-0.85,2.93c-0.38,1.57-0.64,3.53-0.98,5.44c-0.34,1.87-0.77,3.83-0.77,5.44c0.00,1.11,0.64,2.51,1.45,2.51c1.40,0.00,2.30-2.76,3.10-2.76c0.34,0.00,0.38,0.30,0.38,0.47c0.00,0.43-0.21,1.06-0.77,1.83c-1.06,1.53-2.98,3.49-4.12,3.49c-2.72,0.00-2.34-4.76-2.64-4.76c-0.21,0.00-3.74,5.10-7.78,5.10s-4.55-2.72-4.55-5.48z  M692.20,474.90c0.00,2.13,1.53,3.40,3.32,3.40c3.06,0.00,5.06-3.06,5.44-3.83c1.02-2.04,2.17-9.86,2.17-9.99c0.00-1.19-1.91-1.49-2.81-1.49c-1.74,0.00-4.00,1.28-5.27,3.44c-1.23,2.04-2.25,3.95-2.64,6.16c-0.13,0.77-0.21,1.53-0.21,2.30z"/>
		<path d="M711.12,463.42c0.00-0.85,1.62-0.81,3.49-2.76c1.70-1.79,1.79-2.34,2.47-2.34c0.21,0.00,0.43,0.13,0.43,0.51c0.00,0.55-0.77,2.55-0.77,3.19c0.00,0.26,0.09,0.30,1.49,0.30c1.66,0.00,2.00-0.04,2.47-0.04c0.89,0.00,1.11,0.30,1.11,0.81c0.00,0.98-0.26,1.23-1.02,1.23c-0.68,0.00-2.51-0.21-3.44-0.21c-1.23,0.00-1.11,0.77-1.36,2.51c-0.38,2.64-1.36,8.16-1.36,8.84c0.00,2.25,1.57,2.34,1.74,2.34c2.34,0.00,3.32-1.87,4.00-1.87c0.13,0.00,0.47,0.00,0.47,0.60c0.00,1.11-3.61,4.00-6.25,4.00c-1.15,0.00-2.72-0.68-2.72-4.00c0.00-3.91,1.79-10.80,1.79-11.94c0.00-0.89-2.51,0.04-2.51-1.15z"/>
		<path d="M723.36,473.75c0.00-3.66,1.87-7.31,4.80-10.03c1.57-1.49,3.53-2.25,5.91-2.25c2.00,0.00,3.70,1.28,3.70,3.15c0.00,3.06-3.32,4.80-4.12,5.14c-0.38,0.17-2.68,1.11-6.67,1.15c-0.60,0.00-0.72,0.64-0.72,1.74c0.00,3.19,1.91,5.31,6.12,5.31c2.42,0.00,4.12-1.83,4.59-1.83c0.34,0.00,0.51,0.17,0.51,0.43c0.00,0.98-3.70,3.95-7.40,3.95c-5.40,0.00-6.72-2.98-6.72-6.76z  M726.84,469.33c0.00,0.30,0.09,0.85,0.38,0.85c4.12,0.00,7.61-2.76,7.61-5.44c0.00-1.62-1.53-2.00-2.25-2.00c-1.06,0.00-2.38,0.85-3.49,2.00c-1.28,1.32-2.25,4.04-2.25,4.59z"/>
		<path d="M739.81,474.69c0.00-6.59,5.53-12.92,10.58-12.92c1.11,0.00,1.96,0.55,3.15,0.55c0.13,0.00,1.53-11.18,1.53-11.48c0.00-0.64-0.60-1.06-1.23-1.06c-0.47,0.00-1.45,0.04-1.49,0.04c-0.43,0.00-0.68-0.17-0.68-0.47c0.00-0.72,1.49-0.55,2.68-0.85c2.38-0.60,2.13-0.68,3.27-0.68c0.38,0.00,0.68,0.34,0.68,0.72c0.00,1.11-0.43,2.47-2.81,19.85c-0.47,3.23-0.89,5.91-0.89,7.18c0.00,0.94,0.13,1.83,1.11,1.83c1.87,0.00,2.85-2.64,3.53-2.64c0.34,0.00,0.47,0.21,0.47,0.38c0.00,0.89-2.68,5.19-5.44,5.19c-2.98,0.00-2.00-4.76-2.59-4.76c-0.38,0.00-2.55,4.76-6.76,4.76c-3.61,0.00-5.10-2.47-5.10-5.65z  M742.78,473.50c0.00,2.47,1.02,4.38,3.61,4.38c1.53,0.00,3.19-0.81,4.29-2.21c1.70-2.13,2.34-9.61,2.34-11.31c0.00-1.15-1.70-1.70-2.85-1.70c-3.91,0.00-7.40,6.38-7.40,10.84z"/>
		<path d="M771.05,476.98c0.00-2.72,0.98-7.14,1.57-10.58c0.77-4.42,1.28-8.54,1.91-11.69c0.38-1.83,0.64-3.32,0.64-4.34c0.00-0.21-0.21-0.51-1.06-0.51c-0.64,0.00-1.11,0.09-1.74,0.09c-0.47,0.00-0.81,0.00-0.81-0.60c0.00-0.85,1.19-0.81,3.15-1.06c1.66-0.21,2.42-0.47,2.68-0.47c0.47,0.00,0.81,0.30,0.81,0.77c0.00,0.77-2.72,13.43-2.72,16.49c0.00,0.30,0.13,0.64,0.21,0.64c0.60,0.00,2.59-3.95,7.48-3.95c3.19,0.00,4.68,2.64,4.68,5.40c0.00,5.78-5.02,13.39-11.60,13.39c-2.51,0.00-5.19-1.11-5.19-3.57z  M773.86,476.47c0.00,1.45,0.64,2.89,3.27,2.89c3.83,0.00,7.74-6.12,7.74-11.01c0.00-2.38-1.83-4.34-4.17-4.34c-1.02,0.00-3.78,0.43-5.14,4.12c-1.23,3.36-1.70,7.91-1.70,8.33z"/>
		<path d="M789.50,485.31c0.00-0.72,0.64-1.40,1.36-1.40c1.70,0.00,1.74,1.40,3.70,1.40c2.47,0.00,5.27-5.44,5.27-7.06c0.00-2.38-4.68-13.35-6.93-13.35c-2.47,0.00-1.57,3.19-2.85,3.19c-0.26,0.00-0.43-0.21-0.43-0.94c0.00-1.79,0.85-5.48,3.44-5.48c4.12,0.00,8.16,12.07,8.63,12.07c0.60,0.00,1.53-4.55,1.53-7.40c0.00-1.23-1.06-2.08-1.06-3.23c0.00-0.77,0.43-1.57,1.45-1.57c0.94,0.00,1.66,0.94,1.66,2.25c0.00,1.91-1.02,7.78-3.53,14.11c-2.00,5.06-4.72,9.90-8.71,9.90c-1.83,0.00-3.53-0.55-3.53-2.51z"/>
	</g>
	<g aria-label="JOHN DRYDEN, JOSEPH ADDISON,">
		<path d="M239.38,501.40l0.00,27.70c0.00,7.58-4.30,11.60-12.02,11.60c-5.52,0.00-9.03-3.70-9.03-3.70l2.81-7.35s2.76,2.62,5.01,2.62c2.53,0.00,4.44-1.54,4.44-5.43l0.00-25.45l8.80,0.00z"/>
		<path d="M247.79,520.68c0.00-11.27,8.84-19.98,19.46-19.98c10.71,0.00,19.42,8.70,19.42,19.98s-8.33,20.02-19.42,20.02c-11.42,0.00-19.46-8.75-19.46-20.02z  M257.29,520.68c0.00,5.75,2.76,11.51,9.96,11.51c7.02,0.00,9.92-5.75,9.92-11.51s-3.09-11.51-9.92-11.51c-6.78,0.00-9.96,5.75-9.96,11.51z"/>
		<path d="M304.35,524.51l0.00,15.49l-8.80,0.00l0.00-38.60l8.80,0.00l0.00,15.39l12.44,0.00l0.00-15.39l8.80,0.00l0.00,38.60l-8.80,0.00l0.00-15.49l-12.44,0.00z"/>
		<path d="M345.00,516.05l0.00,23.95l-8.80,0.00l0.00-38.60l8.80,0.00l15.35,23.95l0.09,0.00l0.00-23.95l8.80,0.00l0.00,38.60l-8.80,0.00l-15.35-23.95l-0.09,0.00z"/>
		<path d="M397.62,501.40l11.18,0.00c10.57,0.00,19.46,8.05,19.46,19.27c0.00,11.27-8.84,19.32-19.46,19.32l-11.18,0.00l0.00-38.60z  M406.41,532.14l1.36,0.00c6.50,0.00,10.95-4.96,10.99-11.42c0.00-6.46-4.44-11.46-10.99-11.46l-1.36,0.00l0.00,22.88z"/>
		<path d="M437.14,501.40l13.80,0.00c7.16,0.00,12.58,3.88,12.58,11.46c0.00,5.80-3.18,9.68-7.91,11.18l13.29,15.95l-11.18,0.00l-11.79-15.25l0.00,15.25l-8.80,0.00l0.00-38.60z  M445.94,518.53l1.03,0.00c3.32,0.00,7.30-0.23,7.30-5.05s-3.98-5.05-7.30-5.05l-1.03,0.00l0.00,10.11z"/>
		<path d="M467.22,501.40l10.57,0.00l8.05,12.35l8.05-12.35l10.57,0.00l-14.22,21.29l0.00,17.31l-8.80,0.00l0.00-17.31z"/>
		<path d="M510.86,501.40l11.18,0.00c10.57,0.00,19.46,8.05,19.46,19.27c0.00,11.27-8.84,19.32-19.46,19.32l-11.18,0.00l0.00-38.60z  M519.66,532.14l1.36,0.00c6.50,0.00,10.95-4.96,10.99-11.42c0.00-6.46-4.44-11.46-10.99-11.46l-1.36,0.00l0.00,22.88z"/>
		<path d="M572.47,501.40l0.00,7.72l-13.29,0.00l0.00,7.67l12.73,0.00l0.00,7.72l-12.73,0.00l0.00,7.77l13.29,0.00l0.00,7.72l-22.08,0.00l0.00-38.60l22.08,0.00z"/>
		<path d="M591.32,516.05l0.00,23.95l-8.80,0.00l0.00-38.60l8.80,0.00l15.35,23.95l0.09,0.00l0.00-23.95l8.80,0.00l0.00,38.60l-8.80,0.00l-15.35-23.95l-0.09,0.00z"/>
		<path d="M631.50,529.99c2.99,0.00,5.38,2.39,5.38,5.38c0.00,5.66-4.02,10.25-7.86,13.43l-2.39-1.96s2.81-2.67,3.56-6.55c-2.29-0.56-4.02-2.43-4.02-4.91c0.00-2.99,2.39-5.38,5.33-5.38z"/>
		<path d="M682.06,501.40l0.00,27.70c0.00,7.58-4.30,11.60-12.02,11.60c-5.52,0.00-9.03-3.70-9.03-3.70l2.81-7.35s2.76,2.62,5.01,2.62c2.53,0.00,4.44-1.54,4.44-5.43l0.00-25.45l8.80,0.00z"/>
		<path d="M690.48,520.68c0.00-11.27,8.84-19.98,19.46-19.98c10.71,0.00,19.42,8.70,19.42,19.98s-8.33,20.02-19.42,20.02c-11.42,0.00-19.46-8.75-19.46-20.02z  M699.97,520.68c0.00,5.75,2.76,11.51,9.96,11.51c7.02,0.00,9.92-5.75,9.92-11.51s-3.09-11.51-9.92-11.51c-6.78,0.00-9.96,5.75-9.96,11.51z"/>
		<path d="M752.46,500.70c7.02,0.00,11.98,3.65,11.98,3.65l-3.56,7.02s-3.84-2.67-7.81-2.67c-2.99,0.00-4.58,1.36-4.58,3.46c0.00,2.15,3.65,3.70,8.05,5.57c4.30,1.82,9.03,5.47,9.03,10.53c0.00,9.22-7.02,12.44-14.55,12.44c-9.03,0.00-14.50-5.10-14.50-5.10l4.40-7.39s5.15,4.35,9.45,4.35c1.92,0.00,5.57-0.19,5.57-3.79c0.00-2.81-4.12-4.07-8.70-6.36c-4.63-2.29-7.35-5.89-7.35-9.92c0.00-7.20,6.36-11.79,12.58-11.79z"/>
		<path d="M796.76,501.40l0.00,7.72l-13.29,0.00l0.00,7.67l12.73,0.00l0.00,7.72l-12.73,0.00l0.00,7.77l13.29,0.00l0.00,7.72l-22.08,0.00l0.00-38.60l22.08,0.00z"/>
		<path d="M806.81,501.40l14.08,0.00c7.53,0.00,13.19,3.88,13.19,11.88c0.00,7.95-5.66,12.40-13.19,12.40l-5.29,0.00l0.00,14.32l-8.80,0.00l0.00-38.60z  M815.61,518.67l2.48,0.00c3.46,0.00,6.74-1.17,6.74-5.10c0.00-3.98-3.27-5.15-6.74-5.15l-2.48,0.00l0.00,10.25z"/>
		<path d="M851.76,524.51l0.00,15.49l-8.80,0.00l0.00-38.60l8.80,0.00l0.00,15.39l12.44,0.00l0.00-15.39l8.80,0.00l0.00,38.60l-8.80,0.00l0.00-15.49l-12.44,0.00z"/>
		<path d="M920.99,501.40l15.58,38.60l-9.45,0.00l-2.85-7.72l-14.69,0.00l-2.85,7.72l-9.45,0.00l15.58-38.60l8.14,0.00z  M921.27,524.56l-4.30-11.23l-0.09,0.00l-4.30,11.23l8.70,0.00z"/>
		<path d="M943.07,501.40l11.18,0.00c10.57,0.00,19.46,8.05,19.46,19.27c0.00,11.27-8.84,19.32-19.46,19.32l-11.18,0.00l0.00-38.60z  M951.86,532.14l1.36,0.00c6.50,0.00,10.95-4.96,10.99-11.42c0.00-6.46-4.44-11.46-10.99-11.46l-1.36,0.00l0.00,22.88z"/>
		<path d="M982.59,501.40l11.18,0.00c10.57,0.00,19.46,8.05,19.46,19.27c0.00,11.27-8.84,19.32-19.46,19.32l-11.18,0.00l0.00-38.60z  M991.39,532.14l1.36,0.00c6.50,0.00,10.95-4.96,10.99-11.42c0.00-6.46-4.44-11.46-10.99-11.46l-1.36,0.00l0.00,22.88z"/>
		<path d="M1030.92,501.40l0.00,38.60l-8.80,0.00l0.00-38.60l8.80,0.00z"/>
		<path d="M1054.82,500.70c7.02,0.00,11.98,3.65,11.98,3.65l-3.56,7.02s-3.84-2.67-7.81-2.67c-2.99,0.00-4.58,1.36-4.58,3.46c0.00,2.15,3.65,3.70,8.05,5.57c4.30,1.82,9.03,5.47,9.03,10.53c0.00,9.22-7.02,12.44-14.55,12.44c-9.03,0.00-14.50-5.10-14.50-5.10l4.40-7.39s5.15,4.35,9.45,4.35c1.92,0.00,5.57-0.19,5.57-3.79c0.00-2.81-4.12-4.07-8.70-6.36c-4.63-2.29-7.35-5.89-7.35-9.92c0.00-7.20,6.36-11.79,12.58-11.79z"/>
		<path d="M1075.30,520.68c0.00-11.27,8.84-19.98,19.46-19.98c10.71,0.00,19.42,8.70,19.42,19.98s-8.33,20.02-19.42,20.02c-11.42,0.00-19.46-8.75-19.46-20.02z  M1084.80,520.68c0.00,5.75,2.76,11.51,9.96,11.51c7.02,0.00,9.92-5.75,9.92-11.51s-3.09-11.51-9.92-11.51c-6.78,0.00-9.96,5.75-9.96,11.51z"/>
		<path d="M1131.86,516.05l0.00,23.95l-8.80,0.00l0.00-38.60l8.80,0.00l15.35,23.95l0.09,0.00l0.00-23.95l8.80,0.00l0.00,38.60l-8.80,0.00l-15.35-23.95l-0.09,0.00z"/>
		<path d="M1172.04,529.99c2.99,0.00,5.38,2.39,5.38,5.38c0.00,5.66-4.02,10.25-7.86,13.43l-2.39-1.96s2.81-2.67,3.56-6.55c-2.29-0.56-4.02-2.43-4.02-4.91c0.00-2.99,2.39-5.38,5.33-5.38z"/>
	</g>
	<g aria-label="LAURENCE EUSDEN, ARTHUR">
		<path d="M309.84,561.40l0.00,30.88l13.29,0.00l0.00,7.72l-22.08,0.00l0.00-38.60l8.80,0.00z"/>
		<path d="M352.78,561.40l15.58,38.60l-9.45,0.00l-2.85-7.72l-14.69,0.00l-2.85,7.72l-9.45,0.00l15.58-38.60l8.14,0.00z  M353.06,584.56l-4.30-11.23l-0.09,0.00l-4.30,11.23l8.70,0.00z"/>
		<path d="M404.52,561.40l0.00,24.89c0.00,9.54-5.24,14.41-15.06,14.41s-15.06-4.87-15.06-14.41l0.00-24.89l8.80,0.00l0.00,22.32c0.00,6.46,1.96,8.33,6.27,8.33s6.27-1.87,6.27-8.33l0.00-22.32l8.80,0.00z"/>
		<path d="M414.67,561.40l13.80,0.00c7.16,0.00,12.58,3.88,12.58,11.46c0.00,5.80-3.18,9.68-7.91,11.18l13.29,15.95l-11.18,0.00l-11.79-15.25l0.00,15.25l-8.80,0.00l0.00-38.60z  M423.46,578.53l1.03,0.00c3.32,0.00,7.30-0.23,7.30-5.05s-3.98-5.05-7.30-5.05l-1.03,0.00l0.00,10.11z"/>
		<path d="M475.25,561.40l0.00,7.72l-13.29,0.00l0.00,7.67l12.73,0.00l0.00,7.72l-12.73,0.00l0.00,7.77l13.29,0.00l0.00,7.72l-22.08,0.00l0.00-38.60l22.08,0.00z"/>
		<path d="M494.09,576.05l0.00,23.95l-8.80,0.00l0.00-38.60l8.80,0.00l15.35,23.95l0.09,0.00l0.00-23.95l8.80,0.00l0.00,38.60l-8.80,0.00l-15.35-23.95l-0.09,0.00z"/>
		<path d="M547.98,592.05c4.49,0.00,7.58-2.39,7.58-2.39l3.74,7.49s-4.30,3.56-12.68,3.56c-10.90,0.00-20.91-8.89-20.91-19.93c0.00-11.09,9.96-20.07,20.91-20.07c8.37,0.00,12.68,3.56,12.68,3.56l-3.74,7.49s-3.09-2.39-7.58-2.39c-8.84,0.00-12.73,6.18-12.73,11.32c0.00,5.19,3.88,11.37,12.73,11.37z"/>
		<path d="M589.75,561.40l0.00,7.72l-13.29,0.00l0.00,7.67l12.73,0.00l0.00,7.72l-12.73,0.00l0.00,7.77l13.29,0.00l0.00,7.72l-22.08,0.00l0.00-38.60l22.08,0.00z"/>
		<path d="M639.66,561.40l0.00,7.72l-13.29,0.00l0.00,7.67l12.73,0.00l0.00,7.72l-12.73,0.00l0.00,7.77l13.29,0.00l0.00,7.72l-22.08,0.00l0.00-38.60l22.08,0.00z"/>
		<path d="M679.37,561.40l0.00,24.89c0.00,9.54-5.24,14.41-15.06,14.41s-15.06-4.87-15.06-14.41l0.00-24.89l8.80,0.00l0.00,22.32c0.00,6.46,1.96,8.33,6.27,8.33s6.27-1.87,6.27-8.33l0.00-22.32l8.80,0.00z"/>
		<path d="M702.81,560.70c7.02,0.00,11.98,3.65,11.98,3.65l-3.56,7.02s-3.84-2.67-7.81-2.67c-2.99,0.00-4.58,1.36-4.58,3.46c0.00,2.15,3.65,3.70,8.05,5.57c4.30,1.82,9.03,5.47,9.03,10.53c0.00,9.22-7.02,12.44-14.55,12.44c-9.03,0.00-14.50-5.10-14.50-5.10l4.40-7.39s5.15,4.35,9.45,4.35c1.92,0.00,5.57-0.19,5.57-3.79c0.00-2.81-4.12-4.07-8.70-6.36c-4.63-2.29-7.35-5.89-7.35-9.92c0.00-7.20,6.36-11.79,12.58-11.79z"/>
		<path d="M725.02,561.40l11.18,0.00c10.57,0.00,19.46,8.05,19.46,19.27c0.00,11.27-8.84,19.32-19.46,19.32l-11.18,0.00l0.00-38.60z  M733.82,592.14l1.36,0.00c6.50,0.00,10.95-4.96,10.99-11.42c0.00-6.46-4.44-11.46-10.99-11.46l-1.36,0.00l0.00,22.88z"/>
		<path d="M786.63,561.40l0.00,7.72l-13.29,0.00l0.00,7.67l12.73,0.00l0.00,7.72l-12.73,0.00l0.00,7.77l13.29,0.00l0.00,7.72l-22.08,0.00l0.00-38.60l22.08,0.00z"/>
		<path d="M805.48,576.05l0.00,23.95l-8.80,0.00l0.00-38.60l8.80,0.00l15.35,23.95l0.09,0.00l0.00-23.95l8.80,0.00l0.00,38.60l-8.80,0.00l-15.35-23.95l-0.09,0.00z"/>
		<path d="M845.66,589.99c2.99,0.00,5.38,2.39,5.38,5.38c0.00,5.66-4.02,10.25-7.86,13.43l-2.39-1.96s2.81-2.67,3.56-6.55c-2.29-0.56-4.02-2.43-4.02-4.91c0.00-2.99,2.39-5.38,5.33-5.38z"/>
		<path d="M899.03,561.40l15.58,38.60l-9.45,0.00l-2.85-7.72l-14.69,0.00l-2.85,7.72l-9.45,0.00l15.58-38.60l8.14,0.00z  M899.31,584.56l-4.30-11.23l-0.09,0.00l-4.30,11.23l8.70,0.00z"/>
		<path d="M921.11,561.40l13.80,0.00c7.16,0.00,12.58,3.88,12.58,11.46c0.00,5.80-3.18,9.68-7.91,11.18l13.29,15.95l-11.18,0.00l-11.79-15.25l0.00,15.25l-8.80,0.00l0.00-38.60z  M929.90,578.53l1.03,0.00c3.32,0.00,7.30-0.23,7.30-5.05s-3.98-5.05-7.30-5.05l-1.03,0.00l0.00,10.11z"/>
		<path d="M955.30,569.12l0.00-7.72l27.13,0.00l0.00,7.72l-9.17,0.00l0.00,30.88l-8.80,0.00l0.00-30.88l-9.17,0.00z"/>
		<path d="M999.41,584.51l0.00,15.49l-8.80,0.00l0.00-38.60l8.80,0.00l0.00,15.39l12.44,0.00l0.00-15.39l8.80,0.00l0.00,38.60l-8.80,0.00l0.00-15.49l-12.44,0.00z"/>
		<path d="M1060.92,561.40l0.00,24.89c0.00,9.54-5.24,14.41-15.06,14.41s-15.06-4.87-15.06-14.41l0.00-24.89l8.80,0.00l0.00,22.32c0.00,6.46,1.96,8.33,6.27,8.33s6.27-1.87,6.27-8.33l0.00-22.32l8.80,0.00z"/>
		<path d="M1071.07,561.40l13.80,0.00c7.16,0.00,12.58,3.88,12.58,11.46c0.00,5.80-3.18,9.68-7.91,11.18l13.29,15.95l-11.18,0.00l-11.79-15.25l0.00,15.25l-8.80,0.00l0.00-38.60z  M1079.87,578.53l1.03,0.00c3.32,0.00,7.30-0.23,7.30-5.05s-3.98-5.05-7.30-5.05l-1.03,0.00l0.00,10.11z"/>
	</g>
	<g aria-label="MAYNWARING, SAMUEL CROXALL,">
		<path d="M245.13,660.00l-1.82-22.88l-0.23,0.00l-7.91,22.64l-5.24,0.00l-7.91-22.64l-0.23,0.00l-1.82,22.88l-8.80,0.00l3.46-38.60l9.36,0.00l8.56,22.27l8.56-22.27l9.36,0.00l3.46,38.60l-8.80,0.00z"/>
		<path d="M282.08,621.40l15.58,38.60l-9.45,0.00l-2.85-7.72l-14.69,0.00l-2.85,7.72l-9.45,0.00l15.58-38.60l8.14,0.00z  M282.36,644.56l-4.30-11.23l-0.09,0.00l-4.30,11.23l8.70,0.00z"/>
		<path d="M295.74,621.40l10.57,0.00l8.05,12.35l8.05-12.35l10.57,0.00l-14.22,21.29l0.00,17.31l-8.80,0.00l0.00-17.31z"/>
		<path d="M348.18,636.05l0.00,23.95l-8.80,0.00l0.00-38.60l8.80,0.00l15.35,23.95l0.09,0.00l0.00-23.95l8.80,0.00l0.00,38.60l-8.80,0.00l-15.35-23.95l-0.09,0.00z"/>
		<path d="M408.66,660.00l-6.18-21.66l-6.18,21.66l-9.78,0.00l-10.99-38.60l9.78,0.00l6.60,26.48l0.23,0.00l7.02-26.48l6.64,0.00l7.02,26.48l0.23,0.00l6.60-26.48l9.73,0.00l-10.99,38.60l-9.73,0.00z"/>
		<path d="M451.84,621.40l15.58,38.60l-9.45,0.00l-2.85-7.72l-14.69,0.00l-2.85,7.72l-9.45,0.00l15.58-38.60l8.14,0.00z  M452.12,644.56l-4.30-11.23l-0.09,0.00l-4.30,11.23l8.70,0.00z"/>
		<path d="M473.91,621.40l13.80,0.00c7.16,0.00,12.58,3.88,12.58,11.46c0.00,5.80-3.18,9.68-7.91,11.18l13.29,15.95l-11.18,0.00l-11.79-15.25l0.00,15.25l-8.80,0.00l0.00-38.60z  M482.71,638.53l1.03,0.00c3.32,0.00,7.30-0.23,7.30-5.05s-3.98-5.05-7.30-5.05l-1.03,0.00l0.00,10.11z"/>
		<path d="M521.20,621.40l0.00,38.60l-8.80,0.00l0.00-38.60l8.80,0.00z"/>
		<path d="M540.61,636.05l0.00,23.95l-8.80,0.00l0.00-38.60l8.80,0.00l15.35,23.95l0.09,0.00l0.00-23.95l8.80,0.00l0.00,38.60l-8.80,0.00l-15.35-23.95l-0.09,0.00z"/>
		<path d="M610.36,638.39l0.00,8.37c-2.11,9.78-10.25,13.94-17.82,13.94c-10.39,0.00-18.81-8.94-18.81-19.98c0.00-11.09,7.95-20.02,18.81-20.02c6.78,0.00,11.51,2.53,14.88,6.60l-5.75,6.32c-2.25-3.60-5.19-4.96-8.61-4.96c-5.43,0.00-9.82,5.38-9.82,12.07c0.00,6.55,4.40,11.88,9.82,11.88c4.21,0.00,8.37-2.71,8.37-7.44l-8.89,0.00l0.00-6.78l17.82,0.00z"/>
		<path d="M624.58,649.99c2.99,0.00,5.38,2.39,5.38,5.38c0.00,5.66-4.02,10.25-7.86,13.43l-2.39-1.96s2.81-2.67,3.56-6.55c-2.29-0.56-4.02-2.43-4.02-4.91c0.00-2.99,2.39-5.38,5.33-5.38z"/>
		<path d="M671.63,620.70c7.02,0.00,11.98,3.65,11.98,3.65l-3.56,7.02s-3.84-2.67-7.81-2.67c-2.99,0.00-4.58,1.36-4.58,3.46c0.00,2.15,3.65,3.70,8.05,5.57c4.30,1.82,9.03,5.47,9.03,10.53c0.00,9.22-7.02,12.44-14.55,12.44c-9.03,0.00-14.50-5.10-14.50-5.10l4.40-7.39s5.15,4.35,9.45,4.35c1.92,0.00,5.57-0.19,5.57-3.79c0.00-2.81-4.12-4.07-8.70-6.36c-4.63-2.29-7.35-5.89-7.35-9.92c0.00-7.20,6.36-11.79,12.58-11.79z"/>
		<path d="M713.45,621.40l15.58,38.60l-9.45,0.00l-2.85-7.72l-14.69,0.00l-2.85,7.72l-9.45,0.00l15.58-38.60l8.14,0.00z  M713.73,644.56l-4.30-11.23l-0.09,0.00l-4.30,11.23l8.70,0.00z"/>
		<path d="M767.43,660.00l-1.82-22.88l-0.23,0.00l-7.91,22.64l-5.24,0.00l-7.91-22.64l-0.23,0.00l-1.82,22.88l-8.80,0.00l3.46-38.60l9.36,0.00l8.56,22.27l8.56-22.27l9.36,0.00l3.46,38.60l-8.80,0.00z"/>
		<path d="M814.44,621.40l0.00,24.89c0.00,9.54-5.24,14.41-15.06,14.41s-15.06-4.87-15.06-14.41l0.00-24.89l8.80,0.00l0.00,22.32c0.00,6.46,1.96,8.33,6.27,8.33s6.27-1.87,6.27-8.33l0.00-22.32l8.80,0.00z"/>
		<path d="M846.67,621.40l0.00,7.72l-13.29,0.00l0.00,7.67l12.73,0.00l0.00,7.72l-12.73,0.00l0.00,7.77l13.29,0.00l0.00,7.72l-22.08,0.00l0.00-38.60l22.08,0.00z"/>
		<path d="M865.52,621.40l0.00,30.88l13.29,0.00l0.00,7.72l-22.08,0.00l0.00-38.60l8.80,0.00z"/>
		<path d="M924.97,652.05c4.49,0.00,7.58-2.39,7.58-2.39l3.74,7.49s-4.30,3.56-12.68,3.56c-10.90,0.00-20.91-8.89-20.91-19.93c0.00-11.09,9.96-20.07,20.91-20.07c8.37,0.00,12.68,3.56,12.68,3.56l-3.74,7.49s-3.09-2.39-7.58-2.39c-8.84,0.00-12.73,6.18-12.73,11.32c0.00,5.19,3.88,11.37,12.73,11.37z"/>
		<path d="M944.66,621.40l13.80,0.00c7.16,0.00,12.58,3.88,12.58,11.46c0.00,5.80-3.18,9.68-7.91,11.18l13.29,15.95l-11.18,0.00l-11.79-15.25l0.00,15.25l-8.80,0.00l0.00-38.60z  M953.46,638.53l1.03,0.00c3.32,0.00,7.30-0.23,7.30-5.05s-3.98-5.05-7.30-5.05l-1.03,0.00l0.00,10.11z"/>
		<path d="M981.43,640.68c0.00-11.27,8.84-19.98,19.46-19.98c10.71,0.00,19.42,8.70,19.42,19.98s-8.33,20.02-19.42,20.02c-11.42,0.00-19.46-8.75-19.46-20.02z  M990.92,640.68c0.00,5.75,2.76,11.51,9.96,11.51c7.02,0.00,9.92-5.75,9.92-11.51s-3.09-11.51-9.92-11.51c-6.78,0.00-9.96,5.75-9.96,11.51z"/>
		<path d="M1065.30,660.00l-11.37,0.00l-9.12-13.15l-9.12,13.15l-10.90,0.00l14.60-20.77l-12.16-17.82l10.48,0.00l7.11,10.53l7.11-10.53l10.95,0.00l-12.63,17.82z"/>
		<path d="M1091.12,621.40l15.58,38.60l-9.45,0.00l-2.85-7.72l-14.69,0.00l-2.85,7.72l-9.45,0.00l15.58-38.60l8.14,0.00z  M1091.40,644.56l-4.30-11.23l-0.09,0.00l-4.30,11.23l8.70,0.00z"/>
		<path d="M1121.99,621.40l0.00,30.88l13.29,0.00l0.00,7.72l-22.08,0.00l0.00-38.60l8.80,0.00z"/>
		<path d="M1153.43,621.40l0.00,30.88l13.29,0.00l0.00,7.72l-22.08,0.00l0.00-38.60l8.80,0.00z"/>
		<path d="M1181.40,649.99c2.99,0.00,5.38,2.39,5.38,5.38c0.00,5.66-4.02,10.25-7.86,13.43l-2.39-1.96s2.81-2.67,3.56-6.55c-2.29-0.56-4.02-2.43-4.02-4.91c0.00-2.99,2.39-5.38,5.33-5.38z"/>
	</g>
	<g aria-label="NAHUM TATE, WILLIAM STONESTREET,">
		<path d="M176.07,696.05l0.00,23.95l-8.80,0.00l0.00-38.60l8.80,0.00l15.35,23.95l0.09,0.00l0.00-23.95l8.80,0.00l0.00,38.60l-8.80,0.00l-15.35-23.95l-0.09,0.00z"/>
		<path d="M230.52,681.40l15.58,38.60l-9.45,0.00l-2.85-7.72l-14.69,0.00l-2.85,7.72l-9.45,0.00l15.58-38.60l8.14,0.00z  M230.80,704.56l-4.30-11.23l-0.09,0.00l-4.30,11.23l8.70,0.00z"/>
		<path d="M261.39,704.51l0.00,15.49l-8.80,0.00l0.00-38.60l8.80,0.00l0.00,15.39l12.44,0.00l0.00-15.39l8.80,0.00l0.00,38.60l-8.80,0.00l0.00-15.49l-12.44,0.00z"/>
		<path d="M322.90,681.40l0.00,24.89c0.00,9.54-5.24,14.41-15.06,14.41s-15.06-4.87-15.06-14.41l0.00-24.89l8.80,0.00l0.00,22.32c0.00,6.46,1.96,8.33,6.27,8.33s6.27-1.87,6.27-8.33l0.00-22.32l8.80,0.00z"/>
		<path d="M364.96,720.00l-1.82-22.88l-0.23,0.00l-7.91,22.64l-5.24,0.00l-7.91-22.64l-0.23,0.00l-1.82,22.88l-8.80,0.00l3.46-38.60l9.36,0.00l8.56,22.27l8.56-22.27l9.36,0.00l3.46,38.60l-8.80,0.00z"/>
		<path d="M395.40,689.12l0.00-7.72l27.13,0.00l0.00,7.72l-9.17,0.00l0.00,30.88l-8.80,0.00l0.00-30.88l-9.17,0.00z"/>
		<path d="M448.07,681.40l15.58,38.60l-9.45,0.00l-2.85-7.72l-14.69,0.00l-2.85,7.72l-9.45,0.00l15.58-38.60l8.14,0.00z  M448.35,704.56l-4.30-11.23l-0.09,0.00l-4.30,11.23l8.70,0.00z"/>
		<path d="M465.47,689.12l0.00-7.72l27.13,0.00l0.00,7.72l-9.17,0.00l0.00,30.88l-8.80,0.00l0.00-30.88l-9.17,0.00z"/>
		<path d="M522.87,681.40l0.00,7.72l-13.29,0.00l0.00,7.67l12.73,0.00l0.00,7.72l-12.73,0.00l0.00,7.77l13.29,0.00l0.00,7.72l-22.08,0.00l0.00-38.60l22.08,0.00z"/>
		<path d="M538.25,709.99c2.99,0.00,5.38,2.39,5.38,5.38c0.00,5.66-4.02,10.25-7.86,13.43l-2.39-1.96s2.81-2.67,3.56-6.55c-2.29-0.56-4.02-2.43-4.02-4.91c0.00-2.99,2.39-5.38,5.33-5.38z"/>
		<path d="M597.66,720.00l-6.18-21.66l-6.18,21.66l-9.78,0.00l-10.99-38.60l9.78,0.00l6.60,26.48l0.23,0.00l7.02-26.48l6.64,0.00l7.02,26.48l0.23,0.00l6.60-26.48l9.73,0.00l-10.99,38.60l-9.73,0.00z"/>
		<path d="M634.28,681.40l0.00,38.60l-8.80,0.00l0.00-38.60l8.80,0.00z"/>
		<path d="M653.69,681.40l0.00,30.88l13.29,0.00l0.00,7.72l-22.08,0.00l0.00-38.60l8.80,0.00z"/>
		<path d="M685.13,681.40l0.00,30.88l13.29,0.00l0.00,7.72l-22.08,0.00l0.00-38.60l8.80,0.00z"/>
		<path d="M716.56,681.40l0.00,38.60l-8.80,0.00l0.00-38.60l8.80,0.00z"/>
		<path d="M746.77,681.40l15.58,38.60l-9.45,0.00l-2.85-7.72l-14.69,0.00l-2.85,7.72l-9.45,0.00l15.58-38.60l8.14,0.00z  M747.06,704.56l-4.30-11.23l-0.09,0.00l-4.30,11.23l8.70,0.00z"/>
		<path d="M800.76,720.00l-1.82-22.88l-0.23,0.00l-7.91,22.64l-5.24,0.00l-7.91-22.64l-0.23,0.00l-1.82,22.88l-8.80,0.00l3.46-38.60l9.36,0.00l8.56,22.27l8.56-22.27l9.36,0.00l3.46,38.60l-8.80,0.00z"/>
		<path d="M849.17,680.70c7.02,0.00,11.98,3.65,11.98,3.65l-3.56,7.02s-3.84-2.67-7.81-2.67c-2.99,0.00-4.58,1.36-4.58,3.46c0.00,2.15,3.65,3.70,8.05,5.57c4.30,1.82,9.03,5.47,9.03,10.53c0.00,9.22-7.02,12.44-14.55,12.44c-9.03,0.00-14.50-5.10-14.50-5.10l4.40-7.39s5.15,4.35,9.45,4.35c1.92,0.00,5.57-0.19,5.57-3.79c0.00-2.81-4.12-4.07-8.70-6.36c-4.63-2.29-7.35-5.89-7.35-9.92c0.00-7.20,6.36-11.79,12.58-11.79z"/>
		<path d="M866.70,689.12l0.00-7.72l27.13,0.00l0.00,7.72l-9.17,0.00l0.00,30.88l-8.80,0.00l0.00-30.88l-9.17,0.00z"/>
		<path d="M898.79,700.68c0.00-11.27,8.84-19.98,19.46-19.98c10.71,0.00,19.42,8.70,19.42,19.98s-8.33,20.02-19.42,20.02c-11.42,0.00-19.46-8.75-19.46-20.02z  M908.29,700.68c0.00,5.75,2.76,11.51,9.96,11.51c7.02,0.00,9.92-5.75,9.92-11.51s-3.09-11.51-9.92-11.51c-6.78,0.00-9.96,5.75-9.96,11.51z"/>
		<path d="M955.35,696.05l0.00,23.95l-8.80,0.00l0.00-38.60l8.80,0.00l15.35,23.95l0.09,0.00l0.00-23.95l8.80,0.00l0.00,38.60l-8.80,0.00l-15.35-23.95l-0.09,0.00z"/>
		<path d="M1012.28,681.40l0.00,7.72l-13.29,0.00l0.00,7.67l12.73,0.00l0.00,7.72l-12.73,0.00l0.00,7.77l13.29,0.00l0.00,7.72l-22.08,0.00l0.00-38.60l22.08,0.00z"/>
		<path d="M1036.55,680.70c7.02,0.00,11.98,3.65,11.98,3.65l-3.56,7.02s-3.84-2.67-7.81-2.67c-2.99,0.00-4.58,1.36-4.58,3.46c0.00,2.15,3.65,3.70,8.05,5.57c4.30,1.82,9.03,5.47,9.03,10.53c0.00,9.22-7.02,12.44-14.55,12.44c-9.03,0.00-14.50-5.10-14.50-5.10l4.40-7.39s5.15,4.35,9.45,4.35c1.92,0.00,5.57-0.19,5.57-3.79c0.00-2.81-4.12-4.07-8.70-6.36c-4.63-2.29-7.35-5.89-7.35-9.92c0.00-7.20,6.36-11.79,12.58-11.79z"/>
		<path d="M1054.09,689.12l0.00-7.72l27.13,0.00l0.00,7.72l-9.17,0.00l0.00,30.88l-8.80,0.00l0.00-30.88l-9.17,0.00z"/>
		<path d="M1089.41,681.40l13.80,0.00c7.16,0.00,12.58,3.88,12.58,11.46c0.00,5.80-3.18,9.68-7.91,11.18l13.29,15.95l-11.18,0.00l-11.79-15.25l0.00,15.25l-8.80,0.00l0.00-38.60z  M1098.20,698.53l1.03,0.00c3.32,0.00,7.30-0.23,7.30-5.05s-3.98-5.05-7.30-5.05l-1.03,0.00l0.00,10.11z"/>
		<path d="M1149.99,681.40l0.00,7.72l-13.29,0.00l0.00,7.67l12.73,0.00l0.00,7.72l-12.73,0.00l0.00,7.77l13.29,0.00l0.00,7.72l-22.08,0.00l0.00-38.60l22.08,0.00z"/>
		<path d="M1182.12,681.40l0.00,7.72l-13.29,0.00l0.00,7.67l12.73,0.00l0.00,7.72l-12.73,0.00l0.00,7.77l13.29,0.00l0.00,7.72l-22.08,0.00l0.00-38.60l22.08,0.00z"/>
		<path d="M1189.74,689.12l0.00-7.72l27.13,0.00l0.00,7.72l-9.17,0.00l0.00,30.88l-8.80,0.00l0.00-30.88l-9.17,0.00z"/>
		<path d="M1227.35,709.99c2.99,0.00,5.38,2.39,5.38,5.38c0.00,5.66-4.02,10.25-7.86,13.43l-2.39-1.96s2.81-2.67,3.56-6.55c-2.29-0.56-4.02-2.43-4.02-4.91c0.00-2.99,2.39-5.38,5.33-5.38z"/>
	</g>
	<g aria-label="THOMAS VERNON, JOHN GAY,">
		<path d="M273.85,749.12l0.00-7.72l27.13,0.00l0.00,7.72l-9.17,0.00l0.00,30.88l-8.80,0.00l0.00-30.88l-9.17,0.00z"/>
		<path d="M317.96,764.51l0.00,15.49l-8.80,0.00l0.00-38.60l8.80,0.00l0.00,15.39l12.44,0.00l0.00-15.39l8.80,0.00l0.00,38.60l-8.80,0.00l0.00-15.49l-12.44,0.00z"/>
		<path d="M348.08,760.68c0.00-11.27,8.84-19.98,19.46-19.98c10.71,0.00,19.42,8.70,19.42,19.98s-8.33,20.02-19.42,20.02c-11.42,0.00-19.46-8.75-19.46-20.02z  M357.58,760.68c0.00,5.75,2.76,11.51,9.96,11.51c7.02,0.00,9.92-5.75,9.92-11.51s-3.09-11.51-9.92-11.51c-6.78,0.00-9.96,5.75-9.96,11.51z"/>
		<path d="M427.75,780.00l-1.82-22.88l-0.23,0.00l-7.91,22.64l-5.24,0.00l-7.91-22.64l-0.23,0.00l-1.82,22.88l-8.80,0.00l3.46-38.60l9.36,0.00l8.56,22.27l8.56-22.27l9.36,0.00l3.46,38.60l-8.80,0.00z"/>
		<path d="M464.70,741.40l15.58,38.60l-9.45,0.00l-2.85-7.72l-14.69,0.00l-2.85,7.72l-9.45,0.00l15.58-38.60l8.14,0.00z  M464.98,764.56l-4.30-11.23l-0.09,0.00l-4.30,11.23l8.70,0.00z"/>
		<path d="M500.06,740.70c7.02,0.00,11.98,3.65,11.98,3.65l-3.56,7.02s-3.84-2.67-7.81-2.67c-2.99,0.00-4.58,1.36-4.58,3.46c0.00,2.15,3.65,3.70,8.05,5.57c4.30,1.82,9.03,5.47,9.03,10.53c0.00,9.22-7.02,12.44-14.55,12.44c-9.03,0.00-14.50-5.10-14.50-5.10l4.40-7.39s5.15,4.35,9.45,4.35c1.92,0.00,5.57-0.19,5.57-3.79c0.00-2.81-4.12-4.07-8.70-6.36c-4.63-2.29-7.35-5.89-7.35-9.92c0.00-7.20,6.36-11.79,12.58-11.79z"/>
		<path d="M548.14,780.00l-16.19-38.60l9.92,0.00l9.73,25.36l9.73-25.36l9.92,0.00l-16.19,38.60l-6.92,0.00z"/>
		<path d="M599.83,741.40l0.00,7.72l-13.29,0.00l0.00,7.67l12.73,0.00l0.00,7.72l-12.73,0.00l0.00,7.77l13.29,0.00l0.00,7.72l-22.08,0.00l0.00-38.60l22.08,0.00z"/>
		<path d="M609.89,741.40l13.80,0.00c7.16,0.00,12.58,3.88,12.58,11.46c0.00,5.80-3.18,9.68-7.91,11.18l13.29,15.95l-11.18,0.00l-11.79-15.25l0.00,15.25l-8.80,0.00l0.00-38.60z  M618.68,758.53l1.03,0.00c3.32,0.00,7.30-0.23,7.30-5.05s-3.98-5.05-7.30-5.05l-1.03,0.00l0.00,10.11z"/>
		<path d="M657.18,756.05l0.00,23.95l-8.80,0.00l0.00-38.60l8.80,0.00l15.35,23.95l0.09,0.00l0.00-23.95l8.80,0.00l0.00,38.60l-8.80,0.00l-15.35-23.95l-0.09,0.00z"/>
		<path d="M690.30,760.68c0.00-11.27,8.84-19.98,19.46-19.98c10.71,0.00,19.42,8.70,19.42,19.98s-8.33,20.02-19.42,20.02c-11.42,0.00-19.46-8.75-19.46-20.02z  M699.79,760.68c0.00,5.75,2.76,11.51,9.96,11.51c7.02,0.00,9.92-5.75,9.92-11.51s-3.09-11.51-9.92-11.51c-6.78,0.00-9.96,5.75-9.96,11.51z"/>
		<path d="M746.85,756.05l0.00,23.95l-8.80,0.00l0.00-38.60l8.80,0.00l15.35,23.95l0.09,0.00l0.00-23.95l8.80,0.00l0.00,38.60l-8.80,0.00l-15.35-23.95l-0.09,0.00z"/>
		<path d="M787.03,769.99c2.99,0.00,5.38,2.39,5.38,5.38c0.00,5.66-4.02,10.25-7.86,13.43l-2.39-1.96s2.81-2.67,3.56-6.55c-2.29-0.56-4.02-2.43-4.02-4.91c0.00-2.99,2.39-5.38,5.33-5.38z"/>
		<path d="M837.59,741.40l0.00,27.70c0.00,7.58-4.30,11.60-12.02,11.60c-5.52,0.00-9.03-3.70-9.03-3.70l2.81-7.35s2.76,2.62,5.01,2.62c2.53,0.00,4.44-1.54,4.44-5.43l0.00-25.45l8.80,0.00z"/>
		<path d="M846.01,760.68c0.00-11.27,8.84-19.98,19.46-19.98c10.71,0.00,19.42,8.70,19.42,19.98s-8.33,20.02-19.42,20.02c-11.42,0.00-19.46-8.75-19.46-20.02z  M855.51,760.68c0.00,5.75,2.76,11.51,9.96,11.51c7.02,0.00,9.92-5.75,9.92-11.51s-3.09-11.51-9.92-11.51c-6.78,0.00-9.96,5.75-9.96,11.51z"/>
		<path d="M902.56,764.51l0.00,15.49l-8.80,0.00l0.00-38.60l8.80,0.00l0.00,15.39l12.44,0.00l0.00-15.39l8.80,0.00l0.00,38.60l-8.80,0.00l0.00-15.49l-12.44,0.00z"/>
		<path d="M943.21,756.05l0.00,23.95l-8.80,0.00l0.00-38.60l8.80,0.00l15.35,23.95l0.09,0.00l0.00-23.95l8.80,0.00l0.00,38.60l-8.80,0.00l-15.35-23.95l-0.09,0.00z"/>
		<path d="M1030.73,758.39l0.00,8.37c-2.11,9.78-10.25,13.94-17.82,13.94c-10.39,0.00-18.81-8.94-18.81-19.98c0.00-11.09,7.95-20.02,18.81-20.02c6.78,0.00,11.51,2.53,14.88,6.60l-5.75,6.32c-2.25-3.60-5.19-4.96-8.61-4.96c-5.43,0.00-9.82,5.38-9.82,12.07c0.00,6.55,4.40,11.88,9.82,11.88c4.21,0.00,8.37-2.71,8.37-7.44l-8.89,0.00l0.00-6.78l17.82,0.00z"/>
		<path d="M1059.22,741.40l15.58,38.60l-9.45,0.00l-2.85-7.72l-14.69,0.00l-2.85,7.72l-9.45,0.00l15.58-38.60l8.14,0.00z  M1059.50,764.56l-4.30-11.23l-0.09,0.00l-4.30,11.23l8.70,0.00z"/>
		<path d="M1072.87,741.40l10.57,0.00l8.05,12.35l8.05-12.35l10.57,0.00l-14.22,21.29l0.00,17.31l-8.80,0.00l0.00-17.31z"/>
		<path d="M1118.34,769.99c2.99,0.00,5.38,2.39,5.38,5.38c0.00,5.66-4.02,10.25-7.86,13.43l-2.39-1.96s2.81-2.67,3.56-6.55c-2.29-0.56-4.02-2.43-4.02-4.91c0.00-2.99,2.39-5.38,5.33-5.38z"/>
	</g>
	<g aria-label="ALEXANDER POPE, STEPHEN HARVEY,">
		<path d="M189.44,801.40l15.58,38.60l-9.45,0.00l-2.85-7.72l-14.69,0.00l-2.85,7.72l-9.45,0.00l15.58-38.60l8.14,0.00z  M189.73,824.56l-4.30-11.23l-0.09,0.00l-4.30,11.23l8.70,0.00z"/>
		<path d="M220.32,801.40l0.00,30.88l13.29,0.00l0.00,7.72l-22.08,0.00l0.00-38.60l8.80,0.00z"/>
		<path d="M265.04,801.40l0.00,7.72l-13.29,0.00l0.00,7.67l12.73,0.00l0.00,7.72l-12.73,0.00l0.00,7.77l13.29,0.00l0.00,7.72l-22.08,0.00l0.00-38.60l22.08,0.00z"/>
		<path d="M311.20,840.00l-11.37,0.00l-9.12-13.15l-9.12,13.15l-10.90,0.00l14.60-20.77l-12.16-17.82l10.48,0.00l7.11,10.53l7.11-10.53l10.95,0.00l-12.63,17.82z"/>
		<path d="M337.02,801.40l15.58,38.60l-9.45,0.00l-2.85-7.72l-14.69,0.00l-2.85,7.72l-9.45,0.00l15.58-38.60l8.14,0.00z  M337.30,824.56l-4.30-11.23l-0.09,0.00l-4.30,11.23l8.70,0.00z"/>
		<path d="M367.89,816.05l0.00,23.95l-8.80,0.00l0.00-38.60l8.80,0.00l15.35,23.95l0.09,0.00l0.00-23.95l8.80,0.00l0.00,38.60l-8.80,0.00l-15.35-23.95l-0.09,0.00z"/>
		<path d="M402.74,801.40l11.18,0.00c10.57,0.00,19.46,8.05,19.46,19.27c0.00,11.27-8.84,19.32-19.46,19.32l-11.18,0.00l0.00-38.60z  M411.54,832.14l1.36,0.00c6.50,0.00,10.95-4.96,10.99-11.42c0.00-6.46-4.44-11.46-10.99-11.46l-1.36,0.00l0.00,22.88z"/>
		<path d="M464.35,801.40l0.00,7.72l-13.29,0.00l0.00,7.67l12.73,0.00l0.00,7.72l-12.73,0.00l0.00,7.77l13.29,0.00l0.00,7.72l-22.08,0.00l0.00-38.60l22.08,0.00z"/>
		<path d="M474.40,801.40l13.80,0.00c7.16,0.00,12.58,3.88,12.58,11.46c0.00,5.80-3.18,9.68-7.91,11.18l13.29,15.95l-11.18,0.00l-11.79-15.25l0.00,15.25l-8.80,0.00l0.00-38.60z  M483.20,818.53l1.03,0.00c3.32,0.00,7.30-0.23,7.30-5.05s-3.98-5.05-7.30-5.05l-1.03,0.00l0.00,10.11z"/>
		<path d="M530.67,801.40l14.08,0.00c7.53,0.00,13.19,3.88,13.19,11.88c0.00,7.95-5.66,12.40-13.19,12.40l-5.29,0.00l0.00,14.32l-8.80,0.00l0.00-38.60z  M539.47,818.67l2.48,0.00c3.46,0.00,6.74-1.17,6.74-5.10c0.00-3.98-3.27-5.15-6.74-5.15l-2.48,0.00l0.00,10.25z"/>
		<path d="M565.10,820.68c0.00-11.27,8.84-19.98,19.46-19.98c10.71,0.00,19.42,8.70,19.42,19.98s-8.33,20.02-19.42,20.02c-11.42,0.00-19.46-8.75-19.46-20.02z  M574.60,820.68c0.00,5.75,2.76,11.51,9.96,11.51c7.02,0.00,9.92-5.75,9.92-11.51s-3.09-11.51-9.92-11.51c-6.78,0.00-9.96,5.75-9.96,11.51z"/>
		<path d="M612.86,801.40l14.08,0.00c7.53,0.00,13.19,3.88,13.19,11.88c0.00,7.95-5.66,12.40-13.19,12.40l-5.29,0.00l0.00,14.32l-8.80,0.00l0.00-38.60z  M621.65,818.67l2.48,0.00c3.46,0.00,6.74-1.17,6.74-5.10c0.00-3.98-3.27-5.15-6.74-5.15l-2.48,0.00l0.00,10.25z"/>
		<path d="M671.10,801.40l0.00,7.72l-13.29,0.00l0.00,7.67l12.73,0.00l0.00,7.72l-12.73,0.00l0.00,7.77l13.29,0.00l0.00,7.72l-22.08,0.00l0.00-38.60l22.08,0.00z"/>
		<path d="M686.49,829.99c2.99,0.00,5.38,2.39,5.38,5.38c0.00,5.66-4.02,10.25-7.86,13.43l-2.39-1.96s2.81-2.67,3.56-6.55c-2.29-0.56-4.02-2.43-4.02-4.91c0.00-2.99,2.39-5.38,5.33-5.38z"/>
		<path d="M733.54,800.70c7.02,0.00,11.98,3.65,11.98,3.65l-3.56,7.02s-3.84-2.67-7.81-2.67c-2.99,0.00-4.58,1.36-4.58,3.46c0.00,2.15,3.65,3.70,8.05,5.57c4.30,1.82,9.03,5.47,9.03,10.53c0.00,9.22-7.02,12.44-14.55,12.44c-9.03,0.00-14.50-5.10-14.50-5.10l4.40-7.39s5.15,4.35,9.45,4.35c1.92,0.00,5.57-0.19,5.57-3.79c0.00-2.81-4.12-4.07-8.70-6.36c-4.63-2.29-7.35-5.89-7.35-9.92c0.00-7.20,6.36-11.79,12.58-11.79z"/>
		<path d="M751.08,809.12l0.00-7.72l27.13,0.00l0.00,7.72l-9.17,0.00l0.00,30.88l-8.80,0.00l0.00-30.88l-9.17,0.00z"/>
		<path d="M808.47,801.40l0.00,7.72l-13.29,0.00l0.00,7.67l12.73,0.00l0.00,7.72l-12.73,0.00l0.00,7.77l13.29,0.00l0.00,7.72l-22.08,0.00l0.00-38.60l22.08,0.00z"/>
		<path d="M818.53,801.40l14.08,0.00c7.53,0.00,13.19,3.88,13.19,11.88c0.00,7.95-5.66,12.40-13.19,12.40l-5.29,0.00l0.00,14.32l-8.80,0.00l0.00-38.60z  M827.32,818.67l2.48,0.00c3.46,0.00,6.74-1.17,6.74-5.10c0.00-3.98-3.27-5.15-6.74-5.15l-2.48,0.00l0.00,10.25z"/>
		<path d="M863.48,824.51l0.00,15.49l-8.80,0.00l0.00-38.60l8.80,0.00l0.00,15.39l12.44,0.00l0.00-15.39l8.80,0.00l0.00,38.60l-8.80,0.00l0.00-15.49l-12.44,0.00z"/>
		<path d="M917.42,801.40l0.00,7.72l-13.29,0.00l0.00,7.67l12.73,0.00l0.00,7.72l-12.73,0.00l0.00,7.77l13.29,0.00l0.00,7.72l-22.08,0.00l0.00-38.60l22.08,0.00z"/>
		<path d="M936.26,816.05l0.00,23.95l-8.80,0.00l0.00-38.60l8.80,0.00l15.35,23.95l0.09,0.00l0.00-23.95l8.80,0.00l0.00,38.60l-8.80,0.00l-15.35-23.95l-0.09,0.00z"/>
		<path d="M997.68,824.51l0.00,15.49l-8.80,0.00l0.00-38.60l8.80,0.00l0.00,15.39l12.44,0.00l0.00-15.39l8.80,0.00l0.00,38.60l-8.80,0.00l0.00-15.49l-12.44,0.00z"/>
		<path d="M1049.13,801.40l15.58,38.60l-9.45,0.00l-2.85-7.72l-14.69,0.00l-2.85,7.72l-9.45,0.00l15.58-38.60l8.14,0.00z  M1049.42,824.56l-4.30-11.23l-0.09,0.00l-4.30,11.23l8.70,0.00z"/>
		<path d="M1071.21,801.40l13.80,0.00c7.16,0.00,12.58,3.88,12.58,11.46c0.00,5.80-3.18,9.68-7.91,11.18l13.29,15.95l-11.18,0.00l-11.79-15.25l0.00,15.25l-8.80,0.00l0.00-38.60z  M1080.01,818.53l1.03,0.00c3.32,0.00,7.30-0.23,7.30-5.05s-3.98-5.05-7.30-5.05l-1.03,0.00l0.00,10.11z"/>
		<path d="M1121.78,840.00l-16.19-38.60l9.92,0.00l9.73,25.36l9.73-25.36l9.92,0.00l-16.19,38.60l-6.92,0.00z"/>
		<path d="M1173.47,801.40l0.00,7.72l-13.29,0.00l0.00,7.67l12.73,0.00l0.00,7.72l-12.73,0.00l0.00,7.77l13.29,0.00l0.00,7.72l-22.08,0.00l0.00-38.60l22.08,0.00z"/>
		<path d="M1179.31,801.40l10.57,0.00l8.05,12.35l8.05-12.35l10.57,0.00l-14.22,21.29l0.00,17.31l-8.80,0.00l0.00-17.31z"/>
		<path d="M1224.78,829.99c2.99,0.00,5.38,2.39,5.38,5.38c0.00,5.66-4.02,10.25-7.86,13.43l-2.39-1.96s2.81-2.67,3.56-6.55c-2.29-0.56-4.02-2.43-4.02-4.91c0.00-2.99,2.39-5.38,5.33-5.38z"/>
	</g>
	<g aria-label="WILLIAM CONGREVE, JOHN OZELL,">
		<path d="M233.95,900.00l-6.18-21.66l-6.18,21.66l-9.78,0.00l-10.99-38.60l9.78,0.00l6.60,26.48l0.23,0.00l7.02-26.48l6.64,0.00l7.02,26.48l0.23,0.00l6.60-26.48l9.73,0.00l-10.99,38.60l-9.73,0.00z"/>
		<path d="M270.58,861.40l0.00,38.60l-8.80,0.00l0.00-38.60l8.80,0.00z"/>
		<path d="M289.99,861.40l0.00,30.88l13.29,0.00l0.00,7.72l-22.08,0.00l0.00-38.60l8.80,0.00z"/>
		<path d="M321.42,861.40l0.00,30.88l13.29,0.00l0.00,7.72l-22.08,0.00l0.00-38.60l8.80,0.00z"/>
		<path d="M352.85,861.40l0.00,38.60l-8.80,0.00l0.00-38.60l8.80,0.00z"/>
		<path d="M383.07,861.40l15.58,38.60l-9.45,0.00l-2.85-7.72l-14.69,0.00l-2.85,7.72l-9.45,0.00l15.58-38.60l8.14,0.00z  M383.35,884.56l-4.30-11.23l-0.09,0.00l-4.30,11.23l8.70,0.00z"/>
		<path d="M437.05,900.00l-1.82-22.88l-0.23,0.00l-7.91,22.64l-5.24,0.00l-7.91-22.64l-0.23,0.00l-1.82,22.88l-8.80,0.00l3.46-38.60l9.36,0.00l8.56,22.27l8.56-22.27l9.36,0.00l3.46,38.60l-8.80,0.00z"/>
		<path d="M491.22,892.05c4.49,0.00,7.58-2.39,7.58-2.39l3.74,7.49s-4.30,3.56-12.68,3.56c-10.90,0.00-20.91-8.89-20.91-19.93c0.00-11.09,9.96-20.07,20.91-20.07c8.37,0.00,12.68,3.56,12.68,3.56l-3.74,7.49s-3.09-2.39-7.58-2.39c-8.84,0.00-12.73,6.18-12.73,11.32c0.00,5.19,3.88,11.37,12.73,11.37z"/>
		<path d="M509.18,880.68c0.00-11.27,8.84-19.98,19.46-19.98c10.71,0.00,19.42,8.70,19.42,19.98s-8.33,20.02-19.42,20.02c-11.42,0.00-19.46-8.75-19.46-20.02z  M518.67,880.68c0.00,5.75,2.76,11.51,9.96,11.51c7.02,0.00,9.92-5.75,9.92-11.51s-3.09-11.51-9.92-11.51c-6.78,0.00-9.96,5.75-9.96,11.51z"/>
		<path d="M565.73,876.05l0.00,23.95l-8.80,0.00l0.00-38.60l8.80,0.00l15.35,23.95l0.09,0.00l0.00-23.95l8.80,0.00l0.00,38.60l-8.80,0.00l-15.35-23.95l-0.09,0.00z"/>
		<path d="M635.48,878.39l0.00,8.37c-2.11,9.78-10.25,13.94-17.82,13.94c-10.39,0.00-18.81-8.94-18.81-19.98c0.00-11.09,7.95-20.02,18.81-20.02c6.78,0.00,11.51,2.53,14.88,6.60l-5.75,6.32c-2.25-3.60-5.19-4.96-8.61-4.96c-5.43,0.00-9.82,5.38-9.82,12.07c0.00,6.55,4.40,11.88,9.82,11.88c4.21,0.00,8.37-2.71,8.37-7.44l-8.89,0.00l0.00-6.78l17.82,0.00z"/>
		<path d="M644.36,861.40l13.80,0.00c7.16,0.00,12.58,3.88,12.58,11.46c0.00,5.80-3.18,9.68-7.91,11.18l13.29,15.95l-11.18,0.00l-11.79-15.25l0.00,15.25l-8.80,0.00l0.00-38.60z  M653.16,878.53l1.03,0.00c3.32,0.00,7.30-0.23,7.30-5.05s-3.98-5.05-7.30-5.05l-1.03,0.00l0.00,10.11z"/>
		<path d="M704.94,861.40l0.00,7.72l-13.29,0.00l0.00,7.67l12.73,0.00l0.00,7.72l-12.73,0.00l0.00,7.77l13.29,0.00l0.00,7.72l-22.08,0.00l0.00-38.60l22.08,0.00z"/>
		<path d="M727.06,900.00l-16.19-38.60l9.92,0.00l9.73,25.36l9.73-25.36l9.92,0.00l-16.19,38.60l-6.92,0.00z"/>
		<path d="M778.75,861.40l0.00,7.72l-13.29,0.00l0.00,7.67l12.73,0.00l0.00,7.72l-12.73,0.00l0.00,7.77l13.29,0.00l0.00,7.72l-22.08,0.00l0.00-38.60l22.08,0.00z"/>
		<path d="M794.14,889.99c2.99,0.00,5.38,2.39,5.38,5.38c0.00,5.66-4.02,10.25-7.86,13.43l-2.39-1.96s2.81-2.67,3.56-6.55c-2.29-0.56-4.02-2.43-4.02-4.91c0.00-2.99,2.39-5.38,5.33-5.38z"/>
		<path d="M844.70,861.40l0.00,27.70c0.00,7.58-4.30,11.60-12.02,11.60c-5.52,0.00-9.03-3.70-9.03-3.70l2.81-7.35s2.76,2.62,5.01,2.62c2.53,0.00,4.44-1.54,4.44-5.43l0.00-25.45l8.80,0.00z"/>
		<path d="M853.12,880.68c0.00-11.27,8.84-19.98,19.46-19.98c10.71,0.00,19.42,8.70,19.42,19.98s-8.33,20.02-19.42,20.02c-11.42,0.00-19.46-8.75-19.46-20.02z  M862.61,880.68c0.00,5.75,2.76,11.51,9.96,11.51c7.02,0.00,9.92-5.75,9.92-11.51s-3.09-11.51-9.92-11.51c-6.78,0.00-9.96,5.75-9.96,11.51z"/>
		<path d="M909.67,884.51l0.00,15.49l-8.80,0.00l0.00-38.60l8.80,0.00l0.00,15.39l12.44,0.00l0.00-15.39l8.80,0.00l0.00,38.60l-8.80,0.00l0.00-15.49l-12.44,0.00z"/>
		<path d="M950.32,876.05l0.00,23.95l-8.80,0.00l0.00-38.60l8.80,0.00l15.35,23.95l0.09,0.00l0.00-23.95l8.80,0.00l0.00,38.60l-8.80,0.00l-15.35-23.95l-0.09,0.00z"/>
		<path d="M1001.21,880.68c0.00-11.27,8.84-19.98,19.46-19.98c10.71,0.00,19.42,8.70,19.42,19.98s-8.33,20.02-19.42,20.02c-11.42,0.00-19.46-8.75-19.46-20.02z  M1010.71,880.68c0.00,5.75,2.76,11.51,9.96,11.51c7.02,0.00,9.92-5.75,9.92-11.51s-3.09-11.51-9.92-11.51c-6.78,0.00-9.96,5.75-9.96,11.51z"/>
		<path d="M1081.39,861.40l-19.13,30.88l17.87,0.00l0.00,7.72l-33.22,0.00l19.09-30.88l-16.37,0.00l0.00-7.72l31.77,0.00z"/>
		<path d="M1112.03,861.40l0.00,7.72l-13.29,0.00l0.00,7.67l12.73,0.00l0.00,7.72l-12.73,0.00l0.00,7.77l13.29,0.00l0.00,7.72l-22.08,0.00l0.00-38.60l22.08,0.00z"/>
		<path d="M1130.88,861.40l0.00,30.88l13.29,0.00l0.00,7.72l-22.08,0.00l0.00-38.60l8.80,0.00z"/>
		<path d="M1162.31,861.40l0.00,30.88l13.29,0.00l0.00,7.72l-22.08,0.00l0.00-38.60l8.80,0.00z"/>
		<path d="M1190.28,889.99c2.99,0.00,5.38,2.39,5.38,5.38c0.00,5.66-4.02,10.25-7.86,13.43l-2.39-1.96s2.81-2.67,3.56-6.55c-2.29-0.56-4.02-2.43-4.02-4.91c0.00-2.99,2.39-5.38,5.33-5.38z"/>
	</g>
	<g aria-label="TEMPLE STANYAN, ALEXANDER">
		<path d="M263.13,929.12l0.00-7.72l27.13,0.00l0.00,7.72l-9.17,0.00l0.00,30.88l-8.80,0.00l0.00-30.88l-9.17,0.00z"/>
		<path d="M320.53,921.40l0.00,7.72l-13.29,0.00l0.00,7.67l12.73,0.00l0.00,7.72l-12.73,0.00l0.00,7.77l13.29,0.00l0.00,7.72l-22.08,0.00l0.00-38.60l22.08,0.00z"/>
		<path d="M362.49,960.00l-1.82-22.88l-0.23,0.00l-7.91,22.64l-5.24,0.00l-7.91-22.64l-0.23,0.00l-1.82,22.88l-8.80,0.00l3.46-38.60l9.36,0.00l8.56,22.27l8.56-22.27l9.36,0.00l3.46,38.60l-8.80,0.00z"/>
		<path d="M379.84,921.40l14.08,0.00c7.53,0.00,13.19,3.88,13.19,11.88c0.00,7.95-5.66,12.40-13.19,12.40l-5.29,0.00l0.00,14.32l-8.80,0.00l0.00-38.60z  M388.64,938.67l2.48,0.00c3.46,0.00,6.74-1.17,6.74-5.10c0.00-3.98-3.27-5.15-6.74-5.15l-2.48,0.00l0.00,10.25z"/>
		<path d="M424.80,921.40l0.00,30.88l13.29,0.00l0.00,7.72l-22.08,0.00l0.00-38.60l8.80,0.00z"/>
		<path d="M469.51,921.40l0.00,7.72l-13.29,0.00l0.00,7.67l12.73,0.00l0.00,7.72l-12.73,0.00l0.00,7.77l13.29,0.00l0.00,7.72l-22.08,0.00l0.00-38.60l22.08,0.00z"/>
		<path d="M510.63,920.70c7.02,0.00,11.98,3.65,11.98,3.65l-3.56,7.02s-3.84-2.67-7.81-2.67c-2.99,0.00-4.58,1.36-4.58,3.46c0.00,2.15,3.65,3.70,8.05,5.57c4.30,1.82,9.03,5.47,9.03,10.53c0.00,9.22-7.02,12.44-14.55,12.44c-9.03,0.00-14.50-5.10-14.50-5.10l4.40-7.39s5.15,4.35,9.45,4.35c1.92,0.00,5.57-0.19,5.57-3.79c0.00-2.81-4.12-4.07-8.70-6.36c-4.63-2.29-7.35-5.89-7.35-9.92c0.00-7.20,6.36-11.79,12.58-11.79z"/>
		<path d="M528.16,929.12l0.00-7.72l27.13,0.00l0.00,7.72l-9.17,0.00l0.00,30.88l-8.80,0.00l0.00-30.88l-9.17,0.00z"/>
		<path d="M580.84,921.40l15.58,38.60l-9.45,0.00l-2.85-7.72l-14.69,0.00l-2.85,7.72l-9.45,0.00l15.58-38.60l8.14,0.00z  M581.12,944.56l-4.30-11.23l-0.09,0.00l-4.30,11.23l8.70,0.00z"/>
		<path d="M611.71,936.05l0.00,23.95l-8.80,0.00l0.00-38.60l8.80,0.00l15.35,23.95l0.09,0.00l0.00-23.95l8.80,0.00l0.00,38.60l-8.80,0.00l-15.35-23.95l-0.09,0.00z"/>
		<path d="M638.13,921.40l10.57,0.00l8.05,12.35l8.05-12.35l10.57,0.00l-14.22,21.29l0.00,17.31l-8.80,0.00l0.00-17.31z"/>
		<path d="M697.17,921.40l15.58,38.60l-9.45,0.00l-2.85-7.72l-14.69,0.00l-2.85,7.72l-9.45,0.00l15.58-38.60l8.14,0.00z  M697.45,944.56l-4.30-11.23l-0.09,0.00l-4.30,11.23l8.70,0.00z"/>
		<path d="M728.04,936.05l0.00,23.95l-8.80,0.00l0.00-38.60l8.80,0.00l15.35,23.95l0.09,0.00l0.00-23.95l8.80,0.00l0.00,38.60l-8.80,0.00l-15.35-23.95l-0.09,0.00z"/>
		<path d="M768.22,949.99c2.99,0.00,5.38,2.39,5.38,5.38c0.00,5.66-4.02,10.25-7.86,13.43l-2.39-1.96s2.81-2.67,3.56-6.55c-2.29-0.56-4.02-2.43-4.02-4.91c0.00-2.99,2.39-5.38,5.33-5.38z"/>
		<path d="M821.59,921.40l15.58,38.60l-9.45,0.00l-2.85-7.72l-14.69,0.00l-2.85,7.72l-9.45,0.00l15.58-38.60l8.14,0.00z  M821.87,944.56l-4.30-11.23l-0.09,0.00l-4.30,11.23l8.70,0.00z"/>
		<path d="M852.46,921.40l0.00,30.88l13.29,0.00l0.00,7.72l-22.08,0.00l0.00-38.60l8.80,0.00z"/>
		<path d="M897.18,921.40l0.00,7.72l-13.29,0.00l0.00,7.67l12.73,0.00l0.00,7.72l-12.73,0.00l0.00,7.77l13.29,0.00l0.00,7.72l-22.08,0.00l0.00-38.60l22.08,0.00z"/>
		<path d="M943.35,960.00l-11.37,0.00l-9.12-13.15l-9.12,13.15l-10.90,0.00l14.60-20.77l-12.16-17.82l10.48,0.00l7.11,10.53l7.11-10.53l10.95,0.00l-12.63,17.82z"/>
		<path d="M969.17,921.40l15.58,38.60l-9.45,0.00l-2.85-7.72l-14.69,0.00l-2.85,7.72l-9.45,0.00l15.58-38.60l8.14,0.00z  M969.45,944.56l-4.30-11.23l-0.09,0.00l-4.30,11.23l8.70,0.00z"/>
		<path d="M1000.04,936.05l0.00,23.95l-8.80,0.00l0.00-38.60l8.80,0.00l15.35,23.95l0.09,0.00l0.00-23.95l8.80,0.00l0.00,38.60l-8.80,0.00l-15.35-23.95l-0.09,0.00z"/>
		<path d="M1034.89,921.40l11.18,0.00c10.57,0.00,19.46,8.05,19.46,19.27c0.00,11.27-8.84,19.32-19.46,19.32l-11.18,0.00l0.00-38.60z  M1043.68,952.14l1.36,0.00c6.50,0.00,10.95-4.96,10.99-11.42c0.00-6.46-4.44-11.46-10.99-11.46l-1.36,0.00l0.00,22.88z"/>
		<path d="M1096.50,921.40l0.00,7.72l-13.29,0.00l0.00,7.67l12.73,0.00l0.00,7.72l-12.73,0.00l0.00,7.77l13.29,0.00l0.00,7.72l-22.08,0.00l0.00-38.60l22.08,0.00z"/>
		<path d="M1106.55,921.40l13.80,0.00c7.16,0.00,12.58,3.88,12.58,11.46c0.00,5.80-3.18,9.68-7.91,11.18l13.29,15.95l-11.18,0.00l-11.79-15.25l0.00,15.25l-8.80,0.00l0.00-38.60z  M1115.35,938.53l1.03,0.00c3.32,0.00,7.30-0.23,7.30-5.05s-3.98-5.05-7.30-5.05l-1.03,0.00l0.00,10.11z"/>
	</g>
	<g aria-label="STOPFORD CATCOTT, NICHOLAS ROWE,">
		<path d="M155.83,980.70c7.02,0.00,11.98,3.65,11.98,3.65l-3.56,7.02s-3.84-2.67-7.81-2.67c-2.99,0.00-4.58,1.36-4.58,3.46c0.00,2.15,3.65,3.70,8.05,5.57c4.30,1.82,9.03,5.47,9.03,10.53c0.00,9.22-7.02,12.44-14.55,12.44c-9.03,0.00-14.50-5.10-14.50-5.10l4.40-7.39s5.15,4.35,9.45,4.35c1.92,0.00,5.57-0.19,5.57-3.79c0.00-2.81-4.12-4.07-8.70-6.36c-4.63-2.29-7.35-5.89-7.35-9.92c0.00-7.20,6.36-11.79,12.58-11.79z"/>
		<path d="M173.37,989.12l0.00-7.72l27.13,0.00l0.00,7.72l-9.17,0.00l0.00,30.88l-8.80,0.00l0.00-30.88l-9.17,0.00z"/>
		<path d="M205.46,1000.68c0.00-11.27,8.84-19.98,19.46-19.98c10.71,0.00,19.42,8.70,19.42,19.98s-8.33,20.02-19.42,20.02c-11.42,0.00-19.46-8.75-19.46-20.02z  M214.96,1000.68c0.00,5.75,2.76,11.51,9.96,11.51c7.02,0.00,9.92-5.75,9.92-11.51s-3.09-11.51-9.92-11.51c-6.78,0.00-9.96,5.75-9.96,11.51z"/>
		<path d="M253.22,981.40l14.08,0.00c7.53,0.00,13.19,3.88,13.19,11.88c0.00,7.95-5.66,12.40-13.19,12.40l-5.29,0.00l0.00,14.32l-8.80,0.00l0.00-38.60z  M262.01,998.67l2.48,0.00c3.46,0.00,6.74-1.17,6.74-5.10c0.00-3.98-3.27-5.15-6.74-5.15l-2.48,0.00l0.00,10.25z"/>
		<path d="M311.69,981.40l0.00,7.72l-13.52,0.00l0.00,7.67l12.49,0.00l0.00,7.72l-12.49,0.00l0.00,15.49l-8.80,0.00l0.00-38.60l22.32,0.00z"/>
		<path d="M319.17,1000.68c0.00-11.27,8.84-19.98,19.46-19.98c10.71,0.00,19.42,8.70,19.42,19.98s-8.33,20.02-19.42,20.02c-11.42,0.00-19.46-8.75-19.46-20.02z  M328.67,1000.68c0.00,5.75,2.76,11.51,9.96,11.51c7.02,0.00,9.92-5.75,9.92-11.51s-3.09-11.51-9.92-11.51c-6.78,0.00-9.96,5.75-9.96,11.51z"/>
		<path d="M366.93,981.40l13.80,0.00c7.16,0.00,12.58,3.88,12.58,11.46c0.00,5.80-3.18,9.68-7.91,11.18l13.29,15.95l-11.18,0.00l-11.79-15.25l0.00,15.25l-8.80,0.00l0.00-38.60z  M375.73,998.53l1.03,0.00c3.32,0.00,7.30-0.23,7.30-5.05s-3.98-5.05-7.30-5.05l-1.03,0.00l0.00,10.11z"/>
		<path d="M405.43,981.40l11.18,0.00c10.57,0.00,19.46,8.05,19.46,19.27c0.00,11.27-8.84,19.32-19.46,19.32l-11.18,0.00l0.00-38.60z  M414.23,1012.14l1.36,0.00c6.50,0.00,10.95-4.96,10.99-11.42c0.00-6.46-4.44-11.46-10.99-11.46l-1.36,0.00l0.00,22.88z"/>
		<path d="M481.77,1012.05c4.49,0.00,7.58-2.39,7.58-2.39l3.74,7.49s-4.30,3.56-12.68,3.56c-10.90,0.00-20.91-8.89-20.91-19.93c0.00-11.09,9.96-20.07,20.91-20.07c8.37,0.00,12.68,3.56,12.68,3.56l-3.74,7.49s-3.09-2.39-7.58-2.39c-8.84,0.00-12.73,6.18-12.73,11.32c0.00,5.19,3.88,11.37,12.73,11.37z"/>
		<path d="M521.06,981.40l15.58,38.60l-9.45,0.00l-2.85-7.72l-14.69,0.00l-2.85,7.72l-9.45,0.00l15.58-38.60l8.14,0.00z  M521.34,1004.56l-4.30-11.23l-0.09,0.00l-4.30,11.23l8.70,0.00z"/>
		<path d="M538.46,989.12l0.00-7.72l27.13,0.00l0.00,7.72l-9.17,0.00l0.00,30.88l-8.80,0.00l0.00-30.88l-9.17,0.00z"/>
		<path d="M592.82,1012.05c4.49,0.00,7.58-2.39,7.58-2.39l3.74,7.49s-4.30,3.56-12.68,3.56c-10.90,0.00-20.91-8.89-20.91-19.93c0.00-11.09,9.96-20.07,20.91-20.07c8.37,0.00,12.68,3.56,12.68,3.56l-3.74,7.49s-3.09-2.39-7.58-2.39c-8.84,0.00-12.73,6.18-12.73,11.32c0.00,5.19,3.88,11.37,12.73,11.37z"/>
		<path d="M610.77,1000.68c0.00-11.27,8.84-19.98,19.46-19.98c10.71,0.00,19.42,8.70,19.42,19.98s-8.33,20.02-19.42,20.02c-11.42,0.00-19.46-8.75-19.46-20.02z  M620.27,1000.68c0.00,5.75,2.76,11.51,9.96,11.51c7.02,0.00,9.92-5.75,9.92-11.51s-3.09-11.51-9.92-11.51c-6.78,0.00-9.96,5.75-9.96,11.51z"/>
		<path d="M654.61,989.12l0.00-7.72l27.13,0.00l0.00,7.72l-9.17,0.00l0.00,30.88l-8.80,0.00l0.00-30.88l-9.17,0.00z"/>
		<path d="M688.14,989.12l0.00-7.72l27.13,0.00l0.00,7.72l-9.17,0.00l0.00,30.88l-8.80,0.00l0.00-30.88l-9.17,0.00z"/>
		<path d="M725.75,1009.99c2.99,0.00,5.38,2.39,5.38,5.38c0.00,5.66-4.02,10.25-7.86,13.43l-2.39-1.96s2.81-2.67,3.56-6.55c-2.29-0.56-4.02-2.43-4.02-4.91c0.00-2.99,2.39-5.38,5.33-5.38z"/>
		<path d="M768.31,996.05l0.00,23.95l-8.80,0.00l0.00-38.60l8.80,0.00l15.35,23.95l0.09,0.00l0.00-23.95l8.80,0.00l0.00,38.60l-8.80,0.00l-15.35-23.95l-0.09,0.00z"/>
		<path d="M811.96,981.40l0.00,38.60l-8.80,0.00l0.00-38.60l8.80,0.00z"/>
		<path d="M841.61,1012.05c4.49,0.00,7.58-2.39,7.58-2.39l3.74,7.49s-4.30,3.56-12.68,3.56c-10.90,0.00-20.91-8.89-20.91-19.93c0.00-11.09,9.96-20.07,20.91-20.07c8.37,0.00,12.68,3.56,12.68,3.56l-3.74,7.49s-3.09-2.39-7.58-2.39c-8.84,0.00-12.73,6.18-12.73,11.32c0.00,5.19,3.88,11.37,12.73,11.37z"/>
		<path d="M870.10,1004.51l0.00,15.49l-8.80,0.00l0.00-38.60l8.80,0.00l0.00,15.39l12.44,0.00l0.00-15.39l8.80,0.00l0.00,38.60l-8.80,0.00l0.00-15.49l-12.44,0.00z"/>
		<path d="M900.22,1000.68c0.00-11.27,8.84-19.98,19.46-19.98c10.71,0.00,19.42,8.70,19.42,19.98s-8.33,20.02-19.42,20.02c-11.42,0.00-19.46-8.75-19.46-20.02z  M909.72,1000.68c0.00,5.75,2.76,11.51,9.96,11.51c7.02,0.00,9.92-5.75,9.92-11.51s-3.09-11.51-9.92-11.51c-6.78,0.00-9.96,5.75-9.96,11.51z"/>
		<path d="M956.77,981.40l0.00,30.88l13.29,0.00l0.00,7.72l-22.08,0.00l0.00-38.60l8.80,0.00z"/>
		<path d="M999.72,981.40l15.58,38.60l-9.45,0.00l-2.85-7.72l-14.69,0.00l-2.85,7.72l-9.45,0.00l15.58-38.60l8.14,0.00z  M1000.00,1004.56l-4.30-11.23l-0.09,0.00l-4.30,11.23l8.70,0.00z"/>
		<path d="M1035.08,980.70c7.02,0.00,11.98,3.65,11.98,3.65l-3.56,7.02s-3.84-2.67-7.81-2.67c-2.99,0.00-4.58,1.36-4.58,3.46c0.00,2.15,3.65,3.70,8.05,5.57c4.30,1.82,9.03,5.47,9.03,10.53c0.00,9.22-7.02,12.44-14.55,12.44c-9.03,0.00-14.50-5.10-14.50-5.10l4.40-7.39s5.15,4.35,9.45,4.35c1.92,0.00,5.57-0.19,5.57-3.79c0.00-2.81-4.12-4.07-8.70-6.36c-4.63-2.29-7.35-5.89-7.35-9.92c0.00-7.20,6.36-11.79,12.58-11.79z"/>
		<path d="M1075.07,981.40l13.80,0.00c7.16,0.00,12.58,3.88,12.58,11.46c0.00,5.80-3.18,9.68-7.91,11.18l13.29,15.95l-11.18,0.00l-11.79-15.25l0.00,15.25l-8.80,0.00l0.00-38.60z  M1083.86,998.53l1.03,0.00c3.32,0.00,7.30-0.23,7.30-5.05s-3.98-5.05-7.30-5.05l-1.03,0.00l0.00,10.11z"/>
		<path d="M1111.83,1000.68c0.00-11.27,8.84-19.98,19.46-19.98c10.71,0.00,19.42,8.70,19.42,19.98s-8.33,20.02-19.42,20.02c-11.42,0.00-19.46-8.75-19.46-20.02z  M1121.33,1000.68c0.00,5.75,2.76,11.51,9.96,11.51c7.02,0.00,9.92-5.75,9.92-11.51s-3.09-11.51-9.92-11.51c-6.78,0.00-9.96,5.75-9.96,11.51z"/>
		<path d="M1187.71,1020.00l-6.18-21.66l-6.18,21.66l-9.78,0.00l-10.99-38.60l9.78,0.00l6.60,26.48l0.23,0.00l7.02-26.48l6.64,0.00l7.02,26.48l0.23,0.00l6.60-26.48l9.73,0.00l-10.99,38.60l-9.73,0.00z"/>
		<path d="M1237.62,981.40l0.00,7.72l-13.29,0.00l0.00,7.67l12.73,0.00l0.00,7.72l-12.73,0.00l0.00,7.77l13.29,0.00l0.00,7.72l-22.08,0.00l0.00-38.60l22.08,0.00z"/>
		<path d="M1253.01,1009.99c2.99,0.00,5.38,2.39,5.38,5.38c0.00,5.66-4.02,10.25-7.86,13.43l-2.39-1.96s2.81-2.67,3.56-6.55c-2.29-0.56-4.02-2.43-4.02-4.91c0.00-2.99,2.39-5.38,5.33-5.38z"/>
	</g>
	<g aria-label="SAMUEL GARTH, AND LEONARD">
		<path d="M270.13,1040.70c7.02,0.00,11.98,3.65,11.98,3.65l-3.56,7.02s-3.84-2.67-7.81-2.67c-2.99,0.00-4.58,1.36-4.58,3.46c0.00,2.15,3.65,3.70,8.05,5.57c4.30,1.82,9.03,5.47,9.03,10.53c0.00,9.22-7.02,12.44-14.55,12.44c-9.03,0.00-14.50-5.10-14.50-5.10l4.40-7.39s5.15,4.35,9.45,4.35c1.92,0.00,5.57-0.19,5.57-3.79c0.00-2.81-4.12-4.07-8.70-6.36c-4.63-2.29-7.35-5.89-7.35-9.92c0.00-7.20,6.36-11.79,12.58-11.79z"/>
		<path d="M311.95,1041.40l15.58,38.60l-9.45,0.00l-2.85-7.72l-14.69,0.00l-2.85,7.72l-9.45,0.00l15.58-38.60l8.14,0.00z  M312.23,1064.56l-4.30-11.23l-0.09,0.00l-4.30,11.23l8.70,0.00z"/>
		<path d="M365.93,1080.00l-1.82-22.88l-0.23,0.00l-7.91,22.64l-5.24,0.00l-7.91-22.64l-0.23,0.00l-1.82,22.88l-8.80,0.00l3.46-38.60l9.36,0.00l8.56,22.27l8.56-22.27l9.36,0.00l3.46,38.60l-8.80,0.00z"/>
		<path d="M412.94,1041.40l0.00,24.89c0.00,9.54-5.24,14.41-15.06,14.41s-15.06-4.87-15.06-14.41l0.00-24.89l8.80,0.00l0.00,22.32c0.00,6.46,1.96,8.33,6.27,8.33s6.27-1.87,6.27-8.33l0.00-22.32l8.80,0.00z"/>
		<path d="M445.17,1041.40l0.00,7.72l-13.29,0.00l0.00,7.67l12.73,0.00l0.00,7.72l-12.73,0.00l0.00,7.77l13.29,0.00l0.00,7.72l-22.08,0.00l0.00-38.60l22.08,0.00z"/>
		<path d="M464.02,1041.40l0.00,30.88l13.29,0.00l0.00,7.72l-22.08,0.00l0.00-38.60l8.80,0.00z"/>
		<path d="M539.33,1058.39l0.00,8.37c-2.11,9.78-10.25,13.94-17.82,13.94c-10.39,0.00-18.81-8.94-18.81-19.98c0.00-11.09,7.95-20.02,18.81-20.02c6.78,0.00,11.51,2.53,14.88,6.60l-5.75,6.32c-2.25-3.60-5.19-4.96-8.61-4.96c-5.43,0.00-9.82,5.38-9.82,12.07c0.00,6.55,4.40,11.88,9.82,11.88c4.21,0.00,8.37-2.71,8.37-7.44l-8.89,0.00l0.00-6.78l17.82,0.00z"/>
		<path d="M567.81,1041.40l15.58,38.60l-9.45,0.00l-2.85-7.72l-14.69,0.00l-2.85,7.72l-9.45,0.00l15.58-38.60l8.14,0.00z  M568.09,1064.56l-4.30-11.23l-0.09,0.00l-4.30,11.23l8.70,0.00z"/>
		<path d="M589.89,1041.40l13.80,0.00c7.16,0.00,12.58,3.88,12.58,11.46c0.00,5.80-3.18,9.68-7.91,11.18l13.29,15.95l-11.18,0.00l-11.79-15.25l0.00,15.25l-8.80,0.00l0.00-38.60z  M598.68,1058.53l1.03,0.00c3.32,0.00,7.30-0.23,7.30-5.05s-3.98-5.05-7.30-5.05l-1.03,0.00l0.00,10.11z"/>
		<path d="M624.08,1049.12l0.00-7.72l27.13,0.00l0.00,7.72l-9.17,0.00l0.00,30.88l-8.80,0.00l0.00-30.88l-9.17,0.00z"/>
		<path d="M668.19,1064.51l0.00,15.49l-8.80,0.00l0.00-38.60l8.80,0.00l0.00,15.39l12.44,0.00l0.00-15.39l8.80,0.00l0.00,38.60l-8.80,0.00l0.00-15.49l-12.44,0.00z"/>
		<path d="M705.38,1069.99c2.99,0.00,5.38,2.39,5.38,5.38c0.00,5.66-4.02,10.25-7.86,13.43l-2.39-1.96s2.81-2.67,3.56-6.55c-2.29-0.56-4.02-2.43-4.02-4.91c0.00-2.99,2.39-5.38,5.33-5.38z"/>
		<path d="M758.75,1041.40l15.58,38.60l-9.45,0.00l-2.85-7.72l-14.69,0.00l-2.85,7.72l-9.45,0.00l15.58-38.60l8.14,0.00z  M759.03,1064.56l-4.30-11.23l-0.09,0.00l-4.30,11.23l8.70,0.00z"/>
		<path d="M789.62,1056.05l0.00,23.95l-8.80,0.00l0.00-38.60l8.80,0.00l15.35,23.95l0.09,0.00l0.00-23.95l8.80,0.00l0.00,38.60l-8.80,0.00l-15.35-23.95l-0.09,0.00z"/>
		<path d="M824.47,1041.40l11.18,0.00c10.57,0.00,19.46,8.05,19.46,19.27c0.00,11.27-8.84,19.32-19.46,19.32l-11.18,0.00l0.00-38.60z  M833.26,1072.14l1.36,0.00c6.50,0.00,10.95-4.96,10.99-11.42c0.00-6.46-4.44-11.46-10.99-11.46l-1.36,0.00l0.00,22.88z"/>
		<path d="M890.56,1041.40l0.00,30.88l13.29,0.00l0.00,7.72l-22.08,0.00l0.00-38.60l8.80,0.00z"/>
		<path d="M935.28,1041.40l0.00,7.72l-13.29,0.00l0.00,7.67l12.73,0.00l0.00,7.72l-12.73,0.00l0.00,7.77l13.29,0.00l0.00,7.72l-22.08,0.00l0.00-38.60l22.08,0.00z"/>
		<path d="M943.60,1060.68c0.00-11.27,8.84-19.98,19.46-19.98c10.71,0.00,19.42,8.70,19.42,19.98s-8.33,20.02-19.42,20.02c-11.42,0.00-19.46-8.75-19.46-20.02z  M953.10,1060.68c0.00,5.75,2.76,11.51,9.96,11.51c7.02,0.00,9.92-5.75,9.92-11.51s-3.09-11.51-9.92-11.51c-6.78,0.00-9.96,5.75-9.96,11.51z"/>
		<path d="M1000.16,1056.05l0.00,23.95l-8.80,0.00l0.00-38.60l8.80,0.00l15.35,23.95l0.09,0.00l0.00-23.95l8.80,0.00l0.00,38.60l-8.80,0.00l-15.35-23.95l-0.09,0.00z"/>
		<path d="M1054.61,1041.40l15.58,38.60l-9.45,0.00l-2.85-7.72l-14.69,0.00l-2.85,7.72l-9.45,0.00l15.58-38.60l8.14,0.00z  M1054.89,1064.56l-4.30-11.23l-0.09,0.00l-4.30,11.23l8.70,0.00z"/>
		<path d="M1076.68,1041.40l13.80,0.00c7.16,0.00,12.58,3.88,12.58,11.46c0.00,5.80-3.18,9.68-7.91,11.18l13.29,15.95l-11.18,0.00l-11.79-15.25l0.00,15.25l-8.80,0.00l0.00-38.60z  M1085.48,1058.53l1.03,0.00c3.32,0.00,7.30-0.23,7.30-5.05s-3.98-5.05-7.30-5.05l-1.03,0.00l0.00,10.11z"/>
		<path d="M1115.18,1041.40l11.18,0.00c10.57,0.00,19.46,8.05,19.46,19.27c0.00,11.27-8.84,19.32-19.46,19.32l-11.18,0.00l0.00-38.60z  M1123.98,1072.14l1.36,0.00c6.50,0.00,10.95-4.96,10.99-11.42c0.00-6.46-4.44-11.46-10.99-11.46l-1.36,0.00l0.00,22.88z"/>
	</g>
	<g aria-label="WELSTED">
		<path d="M605.05,1140.00l-6.18-21.66l-6.18,21.66l-9.78,0.00l-10.99-38.60l9.78,0.00l6.60,26.48l0.23,0.00l7.02-26.48l6.64,0.00l7.02,26.48l0.23,0.00l6.60-26.48l9.73,0.00l-10.99,38.60l-9.73,0.00z"/>
		<path d="M654.96,1101.40l0.00,7.72l-13.29,0.00l0.00,7.67l12.73,0.00l0.00,7.72l-12.73,0.00l0.00,7.77l13.29,0.00l0.00,7.72l-22.08,0.00l0.00-38.60l22.08,0.00z"/>
		<path d="M673.81,1101.40l0.00,30.88l13.29,0.00l0.00,7.72l-22.08,0.00l0.00-38.60l8.80,0.00z"/>
		<path d="M710.67,1100.70c7.02,0.00,11.98,3.65,11.98,3.65l-3.56,7.02s-3.84-2.67-7.81-2.67c-2.99,0.00-4.58,1.36-4.58,3.46c0.00,2.15,3.65,3.70,8.05,5.57c4.30,1.82,9.03,5.47,9.03,10.53c0.00,9.22-7.02,12.44-14.55,12.44c-9.03,0.00-14.50-5.10-14.50-5.10l4.40-7.39s5.15,4.35,9.45,4.35c1.92,0.00,5.57-0.19,5.57-3.79c0.00-2.81-4.12-4.07-8.70-6.36c-4.63-2.29-7.35-5.89-7.35-9.92c0.00-7.20,6.36-11.79,12.58-11.79z"/>
		<path d="M728.20,1109.12l0.00-7.72l27.13,0.00l0.00,7.72l-9.17,0.00l0.00,30.88l-8.80,0.00l0.00-30.88l-9.17,0.00z"/>
		<path d="M785.60,1101.40l0.00,7.72l-13.29,0.00l0.00,7.67l12.73,0.00l0.00,7.72l-12.73,0.00l0.00,7.77l13.29,0.00l0.00,7.72l-22.08,0.00l0.00-38.60l22.08,0.00z"/>
		<path d="M795.65,1101.40l11.18,0.00c10.57,0.00,19.46,8.05,19.46,19.27c0.00,11.27-8.84,19.32-19.46,19.32l-11.18,0.00l0.00-38.60z  M804.45,1132.14l1.36,0.00c6.50,0.00,10.95-4.96,10.99-11.42c0.00-6.46-4.44-11.46-10.99-11.46l-1.36,0.00l0.00,22.88z"/>
	</g>
</svg>
